<svg width="41" height="40" viewBox="0 0 41 40" fill="none" xmlns="http://www.w3.org/2000/svg">
<path d="M10.3603 36.3333C9.43623 36.3333 8.64544 36.0072 7.98793 35.355C7.32931 34.7017 7 33.9167 7 33V6.33333C7 5.41667 7.32931 4.63167 7.98793 3.97833C8.64544 3.32611 9.43623 3 10.3603 3H30.5222C31.4463 3 32.2377 3.32611 32.8963 3.97833C33.5538 4.63167 33.8826 5.41667 33.8826 6.33333V33C33.8826 33.9167 33.5538 34.7017 32.8963 35.355C32.2377 36.0072 31.4463 36.3333 30.5222 36.3333H10.3603ZM18.7611 18L22.9615 15.5L27.1619 18V6.33333H18.7611V18Z" fill="#E14658"/>
</svg>
