<svg width="41" height="40" viewBox="0 0 41 40" fill="none" xmlns="http://www.w3.org/2000/svg">
<path d="M23.893 3.33334H10.2399C8.36255 3.33334 6.82657 4.83334 6.82657 6.66668V33.3333C6.82657 35.1667 8.36255 36.6667 10.2399 36.6667H30.7196C32.5969 36.6667 34.1329 35.1667 34.1329 33.3333V13.3333L23.893 3.33334ZM20.4797 16.6667C22.357 16.6667 23.893 18.1667 23.893 20C23.893 21.8333 22.357 23.3333 20.4797 23.3333C18.6024 23.3333 17.0664 21.8333 17.0664 20C17.0664 18.1667 18.6024 16.6667 20.4797 16.6667ZM27.3063 30H13.6531V29.05C13.6531 27.7 14.4723 26.5 15.7353 25.9667C17.2317 25.3289 18.8469 24.9996 20.4797 24.9996C22.1125 24.9996 23.7277 25.3289 25.2242 25.9667C25.8425 26.2248 26.3695 26.6546 26.7397 27.2028C27.1099 27.751 27.3069 28.3934 27.3063 29.05V30Z" fill="#E14658"/>
</svg>
