<svg width="36" height="35" viewBox="0 0 36 35" fill="none" xmlns="http://www.w3.org/2000/svg">
<path d="M29.5304 11.6666L17.9282 18.9583L6.32598 11.6666V8.74992L17.9282 16.0416L29.5304 8.74992M29.5304 5.83325H6.32598C4.71617 5.83325 3.42542 7.13117 3.42542 8.74992V26.2499C3.42542 27.0235 3.73102 27.7653 4.27497 28.3123C4.81893 28.8593 5.5567 29.1666 6.32598 29.1666H29.5304C30.2997 29.1666 31.0374 28.8593 31.5814 28.3123C32.1254 27.7653 32.4309 27.0235 32.4309 26.2499V8.74992C32.4309 7.97637 32.1254 7.2345 31.5814 6.68752C31.0374 6.14054 30.2997 5.83325 29.5304 5.83325Z" fill="#E14658"/>
</svg>
