<svg width="35" height="35" viewBox="0 0 35 35" fill="none" xmlns="http://www.w3.org/2000/svg">
<path d="M22.5195 30.625V20.4663H25.903L26.4091 16.5171H22.5195V13.9971C22.5195 12.8537 22.8356 12.0735 24.4657 12.0735H26.5454V8.54146C25.5387 8.43404 24.5268 8.38195 23.5144 8.38542C20.5166 8.38542 18.4645 10.2258 18.4645 13.6062V16.5171H15.0737V20.4663H18.4645V30.625H5.98342C5.59878 30.625 5.2299 30.4714 4.95792 30.1979C4.68594 29.9244 4.53314 29.5534 4.53314 29.1667V5.83333C4.53314 5.44656 4.68594 5.07563 4.95792 4.80214C5.2299 4.52865 5.59878 4.375 5.98342 4.375H29.1878C29.5725 4.375 29.9414 4.52865 30.2133 4.80214C30.4853 5.07563 30.6381 5.44656 30.6381 5.83333V29.1667C30.6381 29.5534 30.4853 29.9244 30.2133 30.1979C29.9414 30.4714 29.5725 30.625 29.1878 30.625H22.5195Z" fill="#E14658"/>
</svg>
