<svg width="35" height="34" viewBox="0 0 35 34" fill="none" xmlns="http://www.w3.org/2000/svg">
<g clip-path="url(#clip0_15_200)">
<path d="M11.1934 2.83325H23.0276C27.5359 2.83325 31.1989 6.51659 31.1989 11.0499V22.9499C31.1989 25.1291 30.338 27.2191 28.8056 28.76C27.2732 30.3009 25.1948 31.1666 23.0276 31.1666H11.1934C6.68509 31.1666 3.0221 27.4833 3.0221 22.9499V11.0499C3.0221 8.87072 3.883 6.78078 5.41541 5.23986C6.94782 3.69893 9.02622 2.83325 11.1934 2.83325M10.9116 5.66659C9.56647 5.66659 8.27644 6.20391 7.32528 7.16034C6.37413 8.11678 5.83978 9.41398 5.83978 10.7666V23.2333C5.83978 26.0524 8.10801 28.3333 10.9116 28.3333H23.3094C24.6545 28.3333 25.9446 27.7959 26.8957 26.8395C27.8469 25.8831 28.3812 24.5859 28.3812 23.2333V10.7666C28.3812 7.94742 26.113 5.66659 23.3094 5.66659H10.9116ZM24.5069 7.79159C24.974 7.79159 25.4219 7.97815 25.7522 8.31025C26.0824 8.64235 26.268 9.09276 26.268 9.56242C26.268 10.0321 26.0824 10.4825 25.7522 10.8146C25.4219 11.1467 24.974 11.3333 24.5069 11.3333C24.0398 11.3333 23.5919 11.1467 23.2617 10.8146C22.9314 10.4825 22.7459 10.0321 22.7459 9.56242C22.7459 9.09276 22.9314 8.64235 23.2617 8.31025C23.5919 7.97815 24.0398 7.79159 24.5069 7.79159ZM17.1105 9.91659C18.9787 9.91659 20.7705 10.6629 22.0915 11.9912C23.4125 13.3196 24.1547 15.1213 24.1547 16.9999C24.1547 18.8785 23.4125 20.6802 22.0915 22.0086C20.7705 23.337 18.9787 24.0833 17.1105 24.0833C15.2423 24.0833 13.4505 23.337 12.1295 22.0086C10.8085 20.6802 10.0663 18.8785 10.0663 16.9999C10.0663 15.1213 10.8085 13.3196 12.1295 11.9912C13.4505 10.6629 15.2423 9.91659 17.1105 9.91659M17.1105 12.7499C15.9896 12.7499 14.9145 13.1977 14.1219 13.9947C13.3293 14.7917 12.884 15.8727 12.884 16.9999C12.884 18.1271 13.3293 19.2081 14.1219 20.0051C14.9145 20.8022 15.9896 21.2499 17.1105 21.2499C18.2314 21.2499 19.3065 20.8022 20.0991 20.0051C20.8917 19.2081 21.337 18.1271 21.337 16.9999C21.337 15.8727 20.8917 14.7917 20.0991 13.9947C19.3065 13.1977 18.2314 12.7499 17.1105 12.7499Z" fill="#E14658"/>
</g>
<defs>
<clipPath id="clip0_15_200">
<rect width="33.8122" height="34" fill="white" transform="translate(0.204422)"/>
</clipPath>
</defs>
</svg>
