<svg width="36" height="35" viewBox="0 0 36 35" fill="none" xmlns="http://www.w3.org/2000/svg">
<path d="M28.4226 4.375C29.1919 4.375 29.9297 4.68229 30.4736 5.22927C31.0176 5.77625 31.3232 6.51812 31.3232 7.29167V27.7083C31.3232 28.4819 31.0176 29.2237 30.4736 29.7707C29.9297 30.3177 29.1919 30.625 28.4226 30.625H8.11878C7.34951 30.625 6.61174 30.3177 6.06778 29.7707C5.52382 29.2237 5.21823 28.4819 5.21823 27.7083V7.29167C5.21823 6.51812 5.52382 5.77625 6.06778 5.22927C6.61174 4.68229 7.34951 4.375 8.11878 4.375H28.4226ZM27.6975 26.9792V19.25C27.6975 17.9891 27.1994 16.7799 26.3127 15.8883C25.4261 14.9967 24.2235 14.4958 22.9696 14.4958C21.7369 14.4958 20.3011 15.2542 19.605 16.3917V14.7729H15.5587V26.9792H19.605V19.7896C19.605 18.6667 20.5041 17.7479 21.6209 17.7479C22.1593 17.7479 22.6758 17.963 23.0566 18.3459C23.4373 18.7288 23.6512 19.2481 23.6512 19.7896V26.9792H27.6975ZM10.8453 12.4833C11.4915 12.4833 12.1112 12.2252 12.5681 11.7657C13.0251 11.3063 13.2818 10.6831 13.2818 10.0333C13.2818 8.67708 12.1941 7.56875 10.8453 7.56875C10.1953 7.56875 9.57185 7.82841 9.11221 8.29061C8.65256 8.75281 8.39433 9.37969 8.39433 10.0333C8.39433 11.3896 9.49654 12.4833 10.8453 12.4833M12.8612 26.9792V14.7729H8.84392V26.9792H12.8612V26.9792Z" fill="#E14658"/>
</svg>
