<?xml version="1.0" encoding="UTF-8"?>
<svg id="Capa_2" data-name="Capa 2" xmlns="http://www.w3.org/2000/svg" viewBox="0 0 371.57 246.46">
  <defs>
    <style>
      .cls-1 {
        fill: #fff;
      }

      .cls-2 {
        fill: rgba(255, 255, 255, .7);
      }

      .cls-3 {
        fill: #f05936;
      }

      .cls-4, .cls-5, .cls-6, .cls-7, .cls-8 {
        isolation: isolate;
      }

      .cls-4, .cls-9, .cls-6 {
        fill: #76f7ff;
      }

      .cls-4, .cls-7 {
        opacity: .43;
      }

      .cls-10 {
        fill: #b3825d;
      }

      .cls-11 {
        fill: rgba(255, 255, 255, .3);
      }

      .cls-5, .cls-12 {
        fill: #303030;
      }

      .cls-5, .cls-6 {
        opacity: .2;
      }

      .cls-13 {
        fill-rule: evenodd;
      }

      .cls-13, .cls-14 {
        fill: #b3caf8;
      }

      .cls-15 {
        fill: #ff5a6d;
      }

      .cls-16, .cls-8 {
        fill: #18204d;
      }

      .cls-17 {
        fill: rgba(255, 255, 255, .6);
      }

      .cls-18 {
        fill: #e61158;
      }

      .cls-7 {
        fill: #491eb8;
      }

      .cls-8 {
        opacity: .16;
      }
    </style>
  </defs>
  <g id="Capa_1-2" data-name="Capa 1">
    <g>
      <path class="cls-17" d="M43.22,0H2.19C.98,0,0,.98,0,2.19H0c0,1.21,.98,2.19,2.19,2.19H43.22c1.21,0,2.19-.98,2.19-2.19s-.98-2.19-2.19-2.19Z"/>
      <path class="cls-15" d="M12.32,55.95c6.81,0,12.32-5.52,12.32-12.32s-5.52-12.32-12.32-12.32S0,36.83,0,43.63s5.52,12.32,12.32,12.32Z"/>
      <path class="cls-15" d="M153.01,43.55H40.05c-.95,0-1.71,.77-1.71,1.71s.77,1.71,1.71,1.71h112.96c.95,0,1.71-.77,1.71-1.71s-.77-1.71-1.71-1.71Z"/>
      <path class="cls-11" d="M132.91,52.45H39.73c-.77,0-1.39,.62-1.39,1.39s.62,1.39,1.39,1.39h93.18c.77,0,1.39-.62,1.39-1.39s-.62-1.39-1.39-1.39Z"/>
      <path class="cls-11" d="M155.84,60.7H39.84c-.83,0-1.5,.67-1.5,1.5s.67,1.5,1.5,1.5h116c.83,0,1.5-.67,1.5-1.5s-.67-1.5-1.5-1.5Z"/>
      <path d="M12.32,119.95c6.81,0,12.32-5.52,12.32-12.32s-5.52-12.32-12.32-12.32S0,100.83,0,107.63s5.52,12.32,12.32,12.32Z"/>
      <path d="M159.86,102.87H40.05c-.95,0-1.71,.77-1.71,1.71s.77,1.71,1.71,1.71h119.81c.94,0,1.71-.77,1.71-1.71s-.77-1.71-1.71-1.71Z"/>
      <path class="cls-1" d="M142.56,103.31H54.06c-8.15,0-14.75,.45-14.75,1s6.6,1,14.75,1h88.5c8.15,0,14.75-.45,14.75-1s-6.6-1-14.75-1Z"/>
      <path class="cls-11" d="M141.84,111.77H39.84c-.83,0-1.5,.67-1.5,1.5s.67,1.5,1.5,1.5h102c.83,0,1.5-.67,1.5-1.5s-.67-1.5-1.5-1.5Z"/>
      <path class="cls-11" d="M102.84,120.25H39.84c-.83,0-1.5,.67-1.5,1.5s.67,1.5,1.5,1.5h63c.83,0,1.5-.67,1.5-1.5s-.67-1.5-1.5-1.5Z"/>
      <path class="cls-11" d="M102.84,128.73H39.84c-.83,0-1.5,.67-1.5,1.5s.67,1.5,1.5,1.5h63c.83,0,1.5-.67,1.5-1.5s-.67-1.5-1.5-1.5Z"/>
      <path d="M12.32,187.95c6.81,0,12.32-5.52,12.32-12.32s-5.52-12.32-12.32-12.32-12.32,5.52-12.32,12.32,5.52,12.32,12.32,12.32Z"/>
      <path class="cls-11" d="M147.84,188.06H39.84c-.83,0-1.5,.67-1.5,1.5s.67,1.5,1.5,1.5h108c.83,0,1.5-.67,1.5-1.5s-.67-1.5-1.5-1.5Z"/>
      <path class="cls-11" d="M97.84,196.53H39.84c-.83,0-1.5,.67-1.5,1.5s.67,1.5,1.5,1.5h58c.83,0,1.5-.67,1.5-1.5s-.67-1.5-1.5-1.5Z"/>
      <path class="cls-1" d="M364.72,0H214.11c-3.78,0-6.85,3.07-6.85,6.85V239.61c0,3.78,3.07,6.85,6.85,6.85h150.61c3.78,0,6.85-3.07,6.85-6.85V6.85c0-3.78-3.07-6.85-6.85-6.85Z"/>
      <path class="cls-18" d="M364.72,0H214.11c-3.78,0-6.85,3.07-6.85,6.85V239.61c0,3.78,3.07,6.85,6.85,6.85h150.61c3.78,0,6.85-3.07,6.85-6.85V6.85c0-3.78-3.07-6.85-6.85-6.85Z"/>
      <path class="cls-7" d="M237.73,74.08c-4.78,4.58-8.54,12.75-5.71,17.41,1.61,2.64,4.86,3.38,15.99,3.96,20.53,1.08,36.12-.02,37.55-.13,14.39-1.07,12.14-1.52,22.06-2.01,11.21-.55,16.33-.08,24.97-2.17,6.94-1.68,10.95-2.64,14.94-6.11,8.86-7.71,8.65-19.98,8.61-22.01-.05-2.78-.59-12.36-7.65-20.1-10.64-11.66-30.58-13.11-41.15-5.26-12.38,9.19-4.87,25.87-16.03,31.82-9.86,5.25-19.54-5.72-41.44-1.25-3.26,.66-8.05,1.93-12.13,5.85Z"/>
      <path class="cls-6" d="M231.05,107.21c-1.49,0-2.7-.36-3.51-1.28-2.32-2.63-.79-9.19,2.98-12.75,4.07-3.85,9.79-3.03,19.26-1.67,3.28,.47,7,1,11.26,1.43,9.28,.93,18.91,1.08,28.61,.47,.05,0,.09,.04,.1,.08,0,.05-.04,.09-.08,.1-9.71,.62-19.35,.46-28.64-.47-4.26-.42-7.98-.96-11.27-1.43-9.42-1.35-15.1-2.17-19.11,1.63-3.7,3.5-5.22,9.92-2.96,12.49,2.01,2.29,6.64,.94,11.99-.61,1.46-.42,2.97-.86,4.5-1.25,11.49-2.9,18.19-1.25,24.67,.35,5.81,1.43,11.81,2.91,21.33,1.26,9.73-1.69,15.89-5.33,21.32-8.53,6.3-3.72,11.28-6.66,19.15-4.66,4.12,1.05,7.16,3.01,9.61,4.58,3.04,1.95,5.44,3.5,8.33,2.4,2.79-1.06,4.97-4.19,6.14-8.81,1.06-4.16,1.19-9.25,.35-13.62-2.47-12.86-15.05-21.25-25.65-22.62-6.33-.82-9.99,1.07-14.22,3.25-3.98,2.05-8.48,4.37-16.12,4.74-7.95,.38-12.73-1.62-17.79-3.73-4.45-1.86-9.05-3.78-16.09-4.1-.05,0-.09-.04-.09-.09,0-.05,.04-.09,.09-.09,0,0,0,0,0,0,7.07,.32,11.69,2.24,16.15,4.11,5.05,2.11,9.81,4.1,17.71,3.72,7.6-.37,12.09-2.68,16.05-4.72,4.26-2.2,7.94-4.09,14.32-3.27,10.66,1.38,23.32,9.82,25.8,22.76,.84,4.39,.71,9.51-.36,13.69-1.19,4.68-3.41,7.85-6.25,8.93-2.98,1.14-5.41-.43-8.49-2.41-2.56-1.65-5.46-3.51-9.55-4.56-7.8-1.98-12.75,.94-19.01,4.64-5.44,3.21-11.61,6.86-21.38,8.55-9.56,1.66-15.58,.18-21.41-1.26-6.75-1.67-13.13-3.24-24.58-.35-1.52,.38-3.03,.82-4.49,1.25-3.31,.96-6.34,1.84-8.67,1.84Z"/>
      <path class="cls-14" d="M317.29,85.24c8.76,0,15.85-7.1,15.85-15.85s-7.1-15.85-15.85-15.85-15.85,7.1-15.85,15.85,7.1,15.85,15.85,15.85Z"/>
      <path class="cls-9" d="M327.1,84.12h-23.87v16.71h23.87v-16.71Z"/>
      <path class="cls-4" d="M279.57,58.13c5.07,0,9.19-4.11,9.19-9.19s-4.11-9.19-9.19-9.19-9.19,4.11-9.19,9.19,4.11,9.19,9.19,9.19Z"/>
      <path class="cls-10" d="M286.38,101.66c-1.58,0-2.87-1.28-2.88-2.86-.01-1.59,1.27-2.89,2.86-2.9l10.71-.07,.74-12.77c.09-1.59,1.45-2.81,3.05-2.71,1.59,.09,2.8,1.46,2.71,3.05l-.8,13.79c-.14,2.46-2.18,4.39-4.64,4.41l-11.73,.08h-.02Z"/>
      <path class="cls-10" d="M315.63,101.56c-1.54,0-2.82-1.22-2.88-2.77-.06-1.59,1.17-2.93,2.77-3l10.3-.41v-12.17c0-1.59,1.29-2.88,2.88-2.88s2.88,1.29,2.88,2.88v12.87c0,2.72-2.13,4.93-4.84,5.04l-11,.44s-.08,0-.12,0Z"/>
      <path class="cls-16" d="M349.67,104.43h-115.48c-.85,0-1.53-.69-1.53-1.53s.69-1.53,1.53-1.53h115.48c.85,0,1.53,.69,1.53,1.53s-.69,1.53-1.53,1.53Z"/>
      <path class="cls-9" d="M297.13,86.67c0-10.45,7.4-15.02,17.04-15.02s17.87,4.56,17.87,15.02"/>
      <path class="cls-3" d="M310.33,58.74c.76,0,1.37-.61,1.37-1.37s-.61-1.37-1.37-1.37-1.37,.61-1.37,1.37,.61,1.37,1.37,1.37Z"/>
      <path class="cls-3" d="M317.97,58.74c.76,0,1.37-.61,1.37-1.37s-.61-1.37-1.37-1.37-1.37,.61-1.37,1.37,.61,1.37,1.37,1.37Z"/>
      <path class="cls-10" d="M317.97,62.52v11.51c0,2.09-1.69,3.78-3.78,3.78s-3.78-1.69-3.78-3.78v-11.51c0-.78,.24-1.51,.64-2.11,.68-1.01,1.83-1.67,3.13-1.67,1.04,0,1.99,.42,2.67,1.11,.68,.68,1.11,1.63,1.11,2.67Z"/>
      <path class="cls-12" d="M317.97,60.82l-.62,4.15c0,2.06-.81,4.8-2.8,4.99-3.68,.34-4.13-1.69-4.13-3.78v-7.47c.74-1.01,2-1.67,3.43-1.67,1.14,0,2.17,.42,2.92,1.11,.75,.68,1.21,1.63,1.21,2.67Z"/>
      <path class="cls-10" d="M314.4,69.2h-.43c-1.97,0-3.56-1.6-3.56-3.56v-9.84c0-1.97,1.6-3.56,3.56-3.56h.43c1.97,0,3.56,1.59,3.56,3.56v9.84c0,1.97-1.6,3.56-3.56,3.56Z"/>
      <path class="cls-9" d="M310.95,54.76l6.51-.02c1.37,0,1.49-4.74-.79-4.17l-.43,.27c-.52-.37-1.15-.57-1.8-.57l-3.51,.02c-1.03,0-1.85,.84-1.85,1.86s.84,2.61,1.87,2.61Z"/>
      <path class="cls-12" d="M311.88,58.09c.2,0,.36-.16,.36-.36s-.16-.36-.36-.36-.36,.16-.36,.36,.16,.36,.36,.36Z"/>
      <path class="cls-12" d="M315.07,58.09c.2,0,.36-.16,.36-.36s-.16-.36-.36-.36-.36,.16-.36,.36,.16,.36,.36,.36Z"/>
      <path class="cls-12" d="M313.31,62.92c-.12,0-.24-.04-.34-.12-.18-.13-.3-.35-.32-.57-.03-.33,.09-.63,.21-.92l.03-.08c.33-.82,.52-1.68,.57-2.55h.18c-.05,.91-.24,1.79-.58,2.62l-.03,.08c-.11,.27-.23,.56-.2,.84,.02,.17,.11,.35,.25,.45,.07,.05,.17,.1,.3,.08l.04,.18s-.07,0-.1,0Z"/>
      <path class="cls-12" d="M313.26,65.05c-.21,0-.37-.03-.38-.04l.04-.18s.66,.15,1.13-.21c.3-.23,.47-.61,.49-1.14h.18c-.03,.6-.22,1.03-.56,1.29-.3,.22-.64,.27-.9,.27Z"/>
      <path class="cls-14" d="M314.26,78.69c-.12,0-.2,0-.21,0-.11,0-.19-.1-.18-.21,0-.11,.1-.19,.21-.18,.02,0,2.04,.12,3.42-1.17,.87-.81,1.31-2.02,1.31-3.58,0-.11,.09-.2,.2-.2s.2,.09,.2,.2c0,1.68-.48,2.98-1.44,3.87-1.25,1.17-2.92,1.28-3.51,1.28Z"/>
      <path class="cls-14" d="M348.87,99.55l-11.32-.02v1.72s11.32,.01,11.32,.01v-1.72Z"/>
      <path class="cls-16" d="M347.54,97.83l-11.32-.02v1.72s11.32,.01,11.32,.01v-1.72Z"/>
      <path class="cls-9" d="M349.25,96.11h-11.32s0,1.7,0,1.7l11.32,.02v-1.72Z"/>
      <path class="cls-9" d="M284.64,101.11h-6.92c0-1.14,.92-2.06,2.06-2.06h2.8c1.14,0,2.06,.92,2.06,2.06Z"/>
      <path class="cls-14" d="M342.73,105.38h-96.36c-.23,0-.42-.19-.42-.42s.19-.42,.42-.42h96.36c.23,0,.42,.19,.42,.42s-.19,.42-.42,.42Z"/>
      <path class="cls-9" d="M333.41,56.05c2.6,0,4.7-2.11,4.7-4.7s-2.11-4.7-4.7-4.7-4.7,2.11-4.7,4.7,2.1,4.7,4.7,4.7Z"/>
      <path class="cls-12" d="M312.24,56.49l-1.93,.46,.04,.18,1.93-.46-.04-.18Z"/>
      <path class="cls-12" d="M314.63,56.49l-.04,.18,1.93,.46,.04-.18-1.93-.46Z"/>
      <path class="cls-9" d="M316.54,55.49c.05,0,.09-.04,.09-.09s-.04-.09-.09-.09-.09,.04-.09,.09,.04,.09,.09,.09Z"/>
      <path class="cls-9" d="M316.45,55.1c.05,0,.09-.04,.09-.09s-.04-.09-.09-.09-.09,.04-.09,.09,.04,.09,.09,.09Z"/>
      <path class="cls-9" d="M315.78,55.1s.09-.04,.09-.09-.04-.09-.09-.09-.09,.04-.09,.09,.04,.09,.09,.09Z"/>
      <path class="cls-9" d="M316.12,55.1s.09-.04,.09-.09-.04-.09-.09-.09-.09,.04-.09,.09,.04,.09,.09,.09Z"/>
      <path class="cls-9" d="M317.52,55.1s.09-.04,.09-.09-.04-.09-.09-.09-.09,.04-.09,.09,.04,.09,.09,.09Z"/>
      <path class="cls-9" d="M316.84,55.1s.09-.04,.09-.09-.04-.09-.09-.09-.09,.04-.09,.09,.04,.09,.09,.09Z"/>
      <path class="cls-9" d="M317.18,55.1c.05,0,.09-.04,.09-.09s-.04-.09-.09-.09-.09,.04-.09,.09,.04,.09,.09,.09Z"/>
      <path class="cls-9" d="M317.63,55.41c.05,0,.09-.04,.09-.09s-.04-.09-.09-.09-.09,.04-.09,.09,.04,.09,.09,.09Z"/>
      <path class="cls-9" d="M316.92,55.49s.09-.04,.09-.09-.04-.09-.09-.09-.09,.04-.09,.09,.04,.09,.09,.09Z"/>
      <path class="cls-9" d="M317.29,55.49s.09-.04,.09-.09-.04-.09-.09-.09-.09,.04-.09,.09,.04,.09,.09,.09Z"/>
      <path class="cls-9" d="M317.67,55.74s.09-.04,.09-.09-.04-.09-.09-.09-.09,.04-.09,.09,.04,.09,.09,.09Z"/>
      <path class="cls-9" d="M316.93,55.83c.05,0,.09-.04,.09-.09s-.04-.09-.09-.09-.09,.04-.09,.09,.04,.09,.09,.09Z"/>
      <path class="cls-9" d="M317.34,55.82c.05,0,.09-.04,.09-.09s-.04-.09-.09-.09-.09,.04-.09,.09,.04,.09,.09,.09Z"/>
      <path class="cls-9" d="M317.69,56.08c.05,0,.09-.04,.09-.09s-.04-.09-.09-.09-.09,.04-.09,.09,.04,.09,.09,.09Z"/>
      <path class="cls-9" d="M317.37,56.17c.05,0,.09-.04,.09-.09s-.04-.09-.09-.09-.09,.04-.09,.09,.04,.09,.09,.09Z"/>
      <path class="cls-9" d="M317.73,56.43s.09-.04,.09-.09-.04-.09-.09-.09-.09,.04-.09,.09,.04,.09,.09,.09Z"/>
      <path class="cls-9" d="M317.39,56.51s.09-.04,.09-.09-.04-.09-.09-.09-.09,.04-.09,.09,.04,.09,.09,.09Z"/>
      <path class="cls-9" d="M317.73,56.77s.09-.04,.09-.09-.04-.09-.09-.09-.09,.04-.09,.09,.04,.09,.09,.09Z"/>
      <path class="cls-9" d="M317.39,56.85s.09-.04,.09-.09-.04-.09-.09-.09-.09,.04-.09,.09,.04,.09,.09,.09Z"/>
      <path class="cls-9" d="M317.73,57.12s.09-.04,.09-.09-.04-.09-.09-.09-.09,.04-.09,.09,.04,.09,.09,.09Z"/>
      <path class="cls-9" d="M317.39,57.21s.09-.04,.09-.09-.04-.09-.09-.09-.09,.04-.09,.09,.04,.09,.09,.09Z"/>
      <path class="cls-9" d="M317.73,57.47s.09-.04,.09-.09-.04-.09-.09-.09-.09,.04-.09,.09,.04,.09,.09,.09Z"/>
      <path class="cls-9" d="M317.39,57.56s.09-.04,.09-.09-.04-.09-.09-.09-.09,.04-.09,.09,.04,.09,.09,.09Z"/>
      <path class="cls-14" d="M232.23,57.57l39.26,1.37c.45,.02,1.09,.5,1.43,1.07l1.62,2.74h.15s-1.61-2.73-1.61-2.73c-.4-.69-1.17-1.26-1.7-1.28l-39.26-1.37c-.53-.02-.64,.53-.23,1.21l1.62,2.74h.15s-1.62-2.73-1.62-2.73c-.34-.58-.25-1.03,.19-1.02Z"/>
      <path class="cls-13" d="M271.54,58.76c-.06-.01-.11-.02-.16-.02l-39.26-1.37c-.36-.01-.53,.24-.46,.62,.03,.17,.11,.37,.23,.59l1.62,2.74h.15s-1.62-2.73-1.62-2.73c-.01-.02-.03-.05-.04-.07-.11-.2-.16-.39-.17-.54,0-.25,.13-.41,.4-.4l39.26,1.37s.01,0,.02,0c.45,.03,1.07,.5,1.41,1.07l1.62,2.74h.16s-1.62-2.73-1.62-2.73c-.01-.02-.03-.05-.04-.07-.37-.59-1-1.08-1.49-1.19Zm-39.31-1.01l39.26,1.37c.17,0,.41,.11,.65,.29,.24,.18,.47,.43,.63,.69l1.66,2.82,.59,.02-1.78-3.02c-.22-.37-.52-.7-.85-.94-.32-.24-.68-.41-1-.43l-39.26-1.37c-.16,0-.31,.03-.43,.12-.12,.09-.19,.22-.22,.37-.05,.28,.05,.64,.26,1l1.67,2.82,.58,.02-1.78-3.02c-.16-.27-.2-.48-.18-.6,.01-.06,.03-.09,.06-.1,.02-.02,.07-.04,.15-.03Z"/>
      <path class="cls-14" d="M290.98,90.36l-1.04-1.76-10.97-18.6-2.02-3.42h-.15s2.01,3.41,2.01,3.41l10.97,18.6,1.04,1.76c.34,.58,.25,1.03-.19,1.02l-39.26-1.37c-.45-.02-1.09-.5-1.43-1.07l-.53-.89-3.33-5.64-.63-1.07-3.33-5.64-.87-1.47-3.33-5.64-2.01-3.42h-.15s2.01,3.41,2.01,3.41l3.33,5.64,.87,1.47,3.33,5.64,.63,1.07,3.33,5.64,.53,.89c.4,.69,1.17,1.26,1.7,1.28l39.26,1.37c.53,.02,.64-.53,.23-1.21Z"/>
      <path class="cls-13" d="M277.05,66.4l2.07,3.5,12.01,20.36c.21,.36,.31,.71,.26,1-.03,.15-.1,.28-.22,.37-.12,.09-.27,.13-.43,.12l-39.26-1.37c-.32-.01-.68-.18-1-.43-.33-.24-.63-.58-.85-.94l-3.86-6.54-8.16-13.83-2.18-3.7,.58,.02,5.39,9.14,4.2,7.11,3.96,6.71,.53,.89c.16,.27,.39,.51,.63,.69,.25,.18,.48,.28,.65,.29l39.26,1.37c.08,0,.13-.02,.15-.03,.02-.02,.05-.05,.06-.11,.02-.12-.02-.33-.18-.6l-14.2-24.06,.58,.02Zm13.77,23.95s.03,.05,.04,.07c.11,.2,.16,.38,.17,.53,0,.26-.13,.42-.4,.41l-39.26-1.37s-.01,0-.02,0c-.45-.03-1.07-.51-1.41-1.07l-14.03-23.78h-.15s14.03,23.77,14.03,23.77c.01,.02,.03,.05,.04,.07,.37,.59,1,1.08,1.49,1.19,.06,.01,.11,.02,.16,.02l39.26,1.37c.37,.01,.53-.24,.46-.63-.03-.17-.11-.37-.23-.58l-14.03-23.78h-.16s14.03,23.77,14.03,23.77Z"/>
      <path class="cls-9" d="M317.73,57.82s.09-.04,.09-.09-.04-.09-.09-.09-.09,.04-.09,.09,.04,.09,.09,.09Z"/>
      <path class="cls-9" d="M317.01,56.18s.09-.04,.09-.09-.04-.09-.09-.09-.09,.04-.09,.09,.04,.09,.09,.09Z"/>
      <path class="cls-14" d="M276.6,101.39h-5.7l-4.31-7.8,5.69,.24,4.31,7.56Z"/>
      <path class="cls-5" d="M275.95,100.33l-5.55,.04-.91-1.56,5.55-.04,.91,1.56Z"/>
      <path class="cls-14" d="M285.77,101.39h-24.14v-.13c0-.49,.39-.88,.88-.88h22.39c.48,0,.88,.39,.88,.88v.13Z"/>
      <path class="cls-9" d="M226.5,61.07l7,.24h.15s.81,.03,.81,.03l39.26,1.37,.81,.03h.16s2.59,.1,2.59,.1c.82,.03,1.99,.91,2.61,1.97,.62,1.06,.46,1.89-.35,1.86l-2.59-.09h-.16s-.81-.03-.81-.03l-39.26-1.37-.81-.03h-.15s-7-.25-7-.25c-.82-.03-1.99-.91-2.61-1.97-.62-1.06-.46-1.89,.35-1.86Z"/>
      <path class="cls-9" d="M278,69.96l-16.57-.58,10.97,18.6,16.57,.58,.81,.03-10.97-18.6-.81-.03Z"/>
      <path class="cls-9" d="M283.04,70.14l-4.27-.15,10.97,18.6,4.27,.15-10.97-18.6Z"/>
      <path class="cls-9" d="M229.19,68.31l3.33,5.64,9.82,.3-3.33-5.64-9.82-.3Z"/>
      <path class="cls-9" d="M258.37,69.28l-19.64-.69-.81-.03,3.33,5.64,.81,.03,19.64,.69-3.33-5.64Z"/>
      <path class="cls-9" d="M319.94,101.6h-25.39v-.53c0-.56,.45-1.01,1.01-1.01h23.38c.55,0,1.01,.45,1.01,1.01v.53Z"/>
      <path class="cls-14" d="M302.94,124.69h-64.96c-1.72,0-3.12-1.4-3.12-3.12v-11.43c0-1.72,1.4-3.12,3.12-3.12h64.96c1.72,0,3.12,1.4,3.12,3.12v11.43c0,1.72-1.4,3.12-3.12,3.12Z"/>
      <path class="cls-14" d="M349.34,124.69h-37.93c-1.72,0-3.12-1.4-3.12-3.12v-11.43c0-1.72,1.4-3.12,3.12-3.12h37.93c1.72,0,3.12,1.4,3.12,3.12v11.43c0,1.72-1.4,3.12-3.12,3.12Z"/>
      <path class="cls-12" d="M260.91,71.75s-.07-.02-.08-.05l-.19-.41s0-.1,.04-.12c.05-.02,.1,0,.12,.04l.19,.41s0,.1-.05,.12c-.01,0-.02,0-.04,0Z"/>
      <path class="cls-12" d="M260.35,70.53s-.07-.02-.08-.05l-.37-.81s0-.1,.04-.12c.04-.02,.1,0,.12,.04l.37,.81s0,.1-.04,.12c-.01,0-.03,0-.04,0Zm-.75-1.62s-.07-.02-.08-.05l-.37-.81s0-.1,.05-.12c.04-.02,.1,0,.12,.04l.37,.81s0,.1-.04,.12c-.01,0-.02,0-.04,0Zm-.75-1.62s-.07-.02-.08-.05l-.37-.81s0-.1,.04-.12c.05-.02,.1,0,.12,.04l.37,.81s0,.1-.04,.12c-.01,0-.02,0-.04,0Zm-.75-1.62s-.07-.02-.08-.05l-.37-.81s0-.1,.04-.12c.05-.02,.1,0,.12,.04l.37,.81s0,.1-.04,.12c-.01,0-.02,0-.04,0Zm-.75-1.62s-.07-.02-.08-.05l-.37-.81s0-.1,.04-.12c.04-.02,.1,0,.12,.04l.37,.81s0,.1-.04,.12c-.01,0-.03,0-.04,0Zm-.75-1.62s-.07-.02-.08-.05l-.37-.81s0-.1,.04-.12c.05-.02,.1,0,.12,.04l.37,.81s0,.1-.04,.12c-.01,0-.02,0-.04,0Zm-.75-1.62s-.07-.02-.08-.05l-.37-.81s0-.1,.04-.12c.04-.02,.1,0,.12,.04l.37,.81s0,.1-.04,.12c-.01,0-.02,0-.04,0Zm-.75-1.62s-.07-.02-.08-.05l-.37-.81s0-.1,.04-.12c.05-.02,.1,0,.12,.04l.37,.81s0,.1-.04,.12c-.01,0-.02,0-.04,0Zm-.75-1.62s-.07-.02-.08-.05l-.37-.81s0-.1,.04-.12c.04-.02,.1,0,.12,.04l.37,.81s0,.1-.04,.12c-.01,0-.03,0-.04,0Zm-.75-1.62s-.07-.02-.08-.05l-.37-.81s0-.1,.05-.12c.04-.02,.1,0,.12,.04l.37,.81s0,.1-.04,.12c-.01,0-.02,0-.04,0Zm-.75-1.62s-.07-.02-.08-.05l-.37-.81s0-.1,.04-.12c.04-.02,.1,0,.12,.04l.37,.81s0,.1-.05,.12c-.01,0-.02,0-.04,0Zm-.75-1.62s-.07-.02-.08-.05l-.37-.81s0-.1,.04-.12c.05-.02,.1,0,.12,.04l.37,.81s0,.1-.05,.12c-.01,0-.02,0-.04,0Zm-.75-1.62s-.07-.02-.08-.05l-.37-.81s0-.1,.04-.12c.04-.02,.1,0,.12,.04l.37,.81s0,.1-.04,.12c-.01,0-.03,0-.04,0Zm-.75-1.62s-.07-.02-.08-.05l-.17-.36c-.08-.16-.12-.34-.12-.52,0-.05,.04-.09,.09-.09,.05,0,.09,.04,.09,.09,0,.15,.04,.3,.1,.45l.17,.36s0,.1-.04,.12c-.01,0-.02,0-.04,0Zm.02-1.66s-.04,0-.06-.02c-.04-.03-.04-.09-.01-.13,.21-.25,.5-.41,.83-.45,.05,0,.09,.03,.1,.08,0,.05-.03,.09-.08,.1-.28,.04-.53,.17-.71,.39-.02,.02-.04,.03-.07,.03Zm27.57-.43h-.89s-.09-.04-.09-.09,.04-.09,.09-.09h.89s.09,.04,.09,.09-.04,.09-.09,.09Zm-1.79,0h-.89c-.05,0-.09-.04-.09-.09s.04-.09,.09-.09h.89s.09,.04,.09,.09-.04,.09-.09,.09Zm-1.79,0h-.89s-.09-.04-.09-.09,.04-.09,.09-.09h.89c.05,0,.09,.04,.09,.09s-.04,.09-.09,.09Zm-1.79,0h-.89s-.09-.04-.09-.09,.04-.09,.09-.09h.89s.09,.04,.09,.09-.04,.09-.09,.09Zm-1.79,0h-.89s-.09-.04-.09-.09,.04-.09,.09-.09h.89c.05,0,.09,.04,.09,.09s-.04,.09-.09,.09Zm-1.79,0h-.89s-.09-.04-.09-.09,.04-.09,.09-.09h.89s.09,.04,.09,.09-.04,.09-.09,.09Zm-1.79,0h-.89s-.09-.04-.09-.09,.04-.09,.09-.09h.89s.09,.04,.09,.09-.04,.09-.09,.09Zm-1.79,0h-.89c-.05,0-.09-.04-.09-.09s.04-.09,.09-.09h.89c.05,0,.09,.04,.09,.09s-.04,.09-.09,.09Zm-1.79,0h-.89s-.09-.04-.09-.09,.04-.09,.09-.09h.89s.09,.04,.09,.09-.04,.09-.09,.09Zm-1.79,0h-.89c-.05,0-.09-.04-.09-.09s.04-.09,.09-.09h.89s.09,.04,.09,.09-.04,.09-.09,.09Zm-1.79,0h-.89s-.09-.04-.09-.09,.04-.09,.09-.09h.89s.09,.04,.09,.09-.04,.09-.09,.09Zm-1.79,0h-.89s-.09-.04-.09-.09,.04-.09,.09-.09h.89s.09,.04,.09,.09-.04,.09-.09,.09Zm-1.79,0h-.89c-.05,0-.09-.04-.09-.09s.04-.09,.09-.09h.89c.05,0,.09,.04,.09,.09s-.04,.09-.09,.09Zm-1.79,0h-.89s-.09-.04-.09-.09,.04-.09,.09-.09h.89s.09,.04,.09,.09-.04,.09-.09,.09Zm-1.79,0h-.89c-.05,0-.09-.04-.09-.09s.04-.09,.09-.09h.89s.09,.04,.09,.09-.04,.09-.09,.09Z"/>
      <path class="cls-12" d="M279.57,47.33h-.45s-.09-.04-.09-.09,.04-.09,.09-.09h.45c.05,0,.09,.04,.09,.09s-.04,.09-.09,.09Z"/>
      <path class="cls-12" d="M263.04,72.98c.23-.56-.29-1.3-1.14-1.64-.86-.34-1.74-.16-1.96,.4-.22,.56,.29,1.3,1.15,1.64,.86,.34,1.73,.16,1.96-.4Z"/>
      <path class="cls-12" d="M280.1,48.78c-.9,0-1.65-.69-1.67-1.54-.01-.4,.14-.77,.42-1.06,.3-.31,.72-.48,1.17-.48,.9,0,1.64,.69,1.67,1.54,.01,.4-.14,.77-.42,1.06-.3,.31-.72,.48-1.17,.48Zm-.08-2.9c-.4,0-.77,.15-1.04,.43-.25,.25-.38,.58-.37,.93,.02,.75,.69,1.36,1.49,1.36,.4,0,.77-.15,1.04-.43,.25-.25,.38-.58,.37-.93-.02-.75-.69-1.36-1.49-1.36Z"/>
      <path class="cls-9" d="M280.06,47.95c.39,0,.71-.32,.71-.71s-.32-.71-.71-.71-.71,.32-.71,.71,.32,.71,.71,.71Z"/>
      <path class="cls-9" d="M281.55,50.62h-8.66c-.08,0-.15-.07-.15-.15s.07-.15,.15-.15h8.66c.08,0,.15,.07,.15,.15s-.07,.15-.15,.15Z"/>
      <path class="cls-9" d="M281.55,51.5h-8.66c-.08,0-.15-.07-.15-.15s.07-.15,.15-.15h8.66c.08,0,.15,.07,.15,.15s-.07,.15-.15,.15Z"/>
      <path class="cls-16" d="M246.2,81.31l-3.33-5.64-1.91-.03,3.33,5.64,1.91,.03Z"/>
      <path class="cls-16" d="M246.26,81.35l4.68,.16-3.33-5.64-4.68-.16-.81-.03,3.33,5.64,.81,.03Z"/>
      <path class="cls-16" d="M244.93,82.35l3.33,5.64,1.52,.04-3.33-5.64-1.52-.04Z"/>
      <path class="cls-16" d="M265.9,82.03l-3.33-5.64-6.65-.23,3.33,5.64,6.65,.23Z"/>
      <path class="cls-16" d="M258.42,81.77l-3.33-5.64-6.65-.23,3.33,5.64,6.65,.23Z"/>
      <path class="cls-16" d="M240.14,75.61l-6.65-.23,3.33,5.64,6.65,.23-3.33-5.64Z"/>
      <path class="cls-16" d="M266.53,83.1l-6.65-.23,3.33,5.64,6.65,.23-3.33-5.64Z"/>
      <path class="cls-16" d="M252.4,82.61l3.33,5.64,6.65,.23-3.33-5.64-6.65-.23Z"/>
      <path class="cls-16" d="M246.9,82.42l-.81-.03,3.33,5.64,.81,.03,4.68,.16-3.33-5.64-4.68-.16Z"/>
      <path class="cls-16" d="M237.45,82.09l3.33,5.64,6.65,.23-3.33-5.64-6.65-.23Z"/>
      <path class="cls-8" d="M289.1,89.59l-.65-1.11-15.25-25.84-1.23-2.08c-.36-.61-1.03-1.11-1.5-1.13l-37.56-1.31c-.47-.02-.56,.46-.2,1.07l1.23,2.08,2.26,3.83,2.01,3.42,3.33,5.64,.87,1.47,3.44,5.83,.52,.88,3.33,5.64,.14,.24c.36,.6,1.03,1.11,1.5,1.13l37.56,1.31c.47,.02,.56-.46,.2-1.07Z"/>
      <path class="cls-17" d="M348.35,136.92h-118c-1.38,0-2.5,1.12-2.5,2.5s1.12,2.5,2.5,2.5h118c1.38,0,2.5-1.12,2.5-2.5s-1.12-2.5-2.5-2.5Z"/>
      <path class="cls-17" d="M320.35,153.92h-62c-1.38,0-2.5,1.12-2.5,2.5s1.12,2.5,2.5,2.5h62c1.38,0,2.5-1.12,2.5-2.5s-1.12-2.5-2.5-2.5Z"/>
      <path class="cls-11" d="M335.94,170.92h-93.18c-.77,0-1.39,.62-1.39,1.39s.62,1.39,1.39,1.39h93.18c.77,0,1.39-.62,1.39-1.39s-.62-1.39-1.39-1.39Z"/>
      <path class="cls-2" d="M285.92,196.66c0-6.05-4.9-10.95-10.95-10.95s-10.95,4.9-10.95,10.95,4.9,10.95,10.95,10.95,10.95-4.9,10.95-10.95Z"/>
      <path class="cls-2" d="M314.68,196.66c0-6.05-4.9-10.95-10.95-10.95s-10.95,4.9-10.95,10.95,4.9,10.95,10.95,10.95,10.95-4.9,10.95-10.95Z"/>
    </g>
    <path class="cls-1" d="M42.57,32.73h-.95v2.58h-1.76v-7.3h2.87c.87,0,1.54,.19,2.03,.58,.49,.38,.73,.93,.73,1.63,0,.51-.1,.93-.31,1.26-.2,.33-.52,.61-.96,.81l1.52,2.94v.08h-1.89l-1.29-2.58Zm-.95-1.36h1.11c.33,0,.58-.09,.75-.26,.17-.18,.26-.42,.26-.74s-.09-.56-.26-.74c-.17-.18-.42-.27-.75-.27h-1.11v2.01Zm7.49,4.04c-.83,0-1.51-.25-2.02-.74-.51-.5-.77-1.14-.77-1.94v-.14c0-.55,.1-1.04,.31-1.47,.21-.42,.51-.75,.9-.98,.39-.23,.86-.35,1.4-.35,.76,0,1.36,.24,1.81,.71,.44,.47,.66,1.13,.66,1.98v.66h-3.36c.06,.3,.19,.54,.4,.72,.2,.17,.47,.26,.79,.26,.53,0,.95-.19,1.25-.56l.77,.91c-.21,.29-.51,.52-.9,.7-.38,.17-.8,.26-1.24,.26Zm-.19-4.32c-.49,0-.79,.33-.88,.98h1.7v-.13c0-.27-.06-.48-.21-.63-.14-.15-.35-.23-.62-.23Zm6,2.7c0-.14-.08-.26-.23-.35-.15-.09-.44-.18-.86-.27-.42-.09-.77-.22-1.04-.37-.27-.15-.48-.34-.63-.56-.14-.22-.22-.47-.22-.75,0-.5,.21-.91,.62-1.23,.41-.32,.95-.49,1.61-.49,.72,0,1.29,.16,1.72,.49,.43,.32,.65,.75,.65,1.28h-1.69c0-.43-.23-.65-.69-.65-.18,0-.33,.05-.45,.15-.12,.1-.18,.22-.18,.37s.07,.27,.22,.37c.15,.09,.38,.17,.7,.23,.32,.06,.61,.13,.85,.22,.82,.28,1.22,.78,1.22,1.51,0,.49-.22,.9-.66,1.21-.44,.31-1.01,.47-1.7,.47-.46,0-.88-.08-1.24-.25-.36-.17-.65-.39-.85-.68-.2-.29-.31-.59-.31-.91h1.58c0,.25,.09,.43,.25,.55,.16,.11,.37,.17,.62,.17,.23,0,.4-.05,.52-.14,.12-.09,.18-.22,.18-.37Zm7.46-1.15c0,.84-.19,1.52-.57,2.02-.38,.5-.89,.75-1.53,.75-.5,0-.91-.18-1.23-.55v2.53h-1.69v-7.51h1.58l.05,.5c.32-.4,.75-.6,1.28-.6,.67,0,1.19,.25,1.56,.74,.37,.49,.56,1.17,.56,2.03v.08Zm-1.69-.11c0-.96-.28-1.44-.84-1.44-.4,0-.67,.14-.8,.43v2.14c.15,.3,.42,.45,.81,.45,.54,0,.82-.46,.83-1.39v-.18Zm2.23,.02c0-.54,.11-1.02,.32-1.44,.21-.42,.51-.75,.91-.98,.39-.23,.86-.34,1.39-.34,.81,0,1.45,.25,1.92,.76,.47,.5,.7,1.19,.7,2.05v.06c0,.85-.24,1.52-.71,2.02-.47,.49-1.1,.74-1.91,.74s-1.39-.23-1.86-.69c-.47-.46-.72-1.09-.76-1.89v-.29Zm1.68,.11c0,.5,.08,.87,.24,1.1,.16,.23,.39,.35,.7,.35,.6,0,.91-.46,.92-1.39v-.17c0-.97-.31-1.46-.93-1.46-.56,0-.87,.42-.92,1.26v.31Zm5.84-2.77l.06,.64c.37-.49,.89-.74,1.55-.74,.57,0,.99,.17,1.26,.51,.28,.34,.43,.85,.44,1.52v3.49h-1.69v-3.42c0-.27-.06-.47-.17-.6-.11-.13-.31-.2-.6-.2-.33,0-.58,.13-.74,.39v3.83h-1.69v-5.43h1.58Zm7.09,3.9c0-.14-.08-.26-.23-.35-.15-.09-.44-.18-.86-.27-.42-.09-.77-.22-1.04-.37-.27-.15-.48-.34-.63-.56-.14-.22-.22-.47-.22-.75,0-.5,.21-.91,.62-1.23,.41-.32,.95-.49,1.61-.49,.72,0,1.29,.16,1.72,.49,.43,.32,.65,.75,.65,1.28h-1.69c0-.43-.23-.65-.69-.65-.18,0-.33,.05-.45,.15-.12,.1-.18,.22-.18,.37s.07,.27,.22,.37c.15,.09,.38,.17,.7,.23,.32,.06,.61,.13,.85,.22,.82,.28,1.22,.78,1.22,1.51,0,.49-.22,.9-.66,1.21-.44,.31-1.01,.47-1.7,.47-.46,0-.88-.08-1.24-.25-.36-.17-.65-.39-.85-.68-.2-.29-.31-.59-.31-.91h1.58c0,.25,.09,.43,.25,.55,.16,.11,.37,.17,.62,.17,.23,0,.4-.05,.52-.14,.12-.09,.18-.22,.18-.37Zm4.21,1.52h-1.69v-5.43h1.69v5.43Zm-1.8-6.82c0-.24,.09-.44,.26-.59,.17-.15,.4-.23,.68-.23s.5,.08,.68,.23c.17,.15,.26,.35,.26,.59s-.09,.44-.26,.59c-.17,.15-.4,.23-.68,.23s-.5-.08-.68-.23c-.17-.15-.26-.35-.26-.59Zm5,4.81l.86-3.41h1.78l-1.77,5.43h-1.72l-1.77-5.43h1.79l.84,3.41Zm5.7,2.11c-.83,0-1.51-.25-2.02-.74-.51-.5-.77-1.14-.77-1.94v-.14c0-.55,.1-1.04,.31-1.47,.21-.42,.51-.75,.9-.98,.4-.23,.86-.35,1.4-.35,.76,0,1.36,.24,1.81,.71,.44,.47,.66,1.13,.66,1.98v.66h-3.36c.06,.3,.19,.54,.4,.72,.2,.17,.47,.26,.79,.26,.54,0,.95-.19,1.25-.56l.77,.91c-.21,.29-.51,.52-.9,.7-.38,.17-.8,.26-1.24,.26Zm-.19-4.32c-.49,0-.79,.33-.88,.98h1.71v-.13c0-.27-.06-.48-.21-.63-.14-.15-.35-.23-.62-.23Zm11.45,1.5l.84-4.58h1.75l-1.55,7.3h-1.83l-.98-4.16-.96,4.16h-1.82l-1.56-7.3h1.75l.84,4.58,1-4.58h1.49l1.02,4.58Zm5.66,2.82c-.83,0-1.51-.25-2.02-.74-.51-.5-.77-1.14-.77-1.94v-.14c0-.55,.1-1.04,.31-1.47,.21-.42,.51-.75,.9-.98,.4-.23,.86-.35,1.4-.35,.76,0,1.36,.24,1.81,.71,.44,.47,.66,1.13,.66,1.98v.66h-3.36c.06,.3,.19,.54,.4,.72,.2,.17,.47,.26,.79,.26,.53,0,.95-.19,1.25-.56l.77,.91c-.21,.29-.51,.52-.9,.7-.38,.17-.8,.26-1.24,.26Zm-.19-4.32c-.5,0-.79,.33-.88,.98h1.71v-.13c0-.27-.06-.48-.21-.63-.14-.15-.35-.23-.62-.23Zm8.2,1.55c0,.89-.18,1.57-.55,2.05-.37,.48-.89,.72-1.55,.72-.55,0-1-.22-1.33-.66l-.07,.56h-1.51v-7.7h1.69v2.71c.31-.36,.72-.54,1.22-.54,.68,0,1.2,.24,1.57,.73,.37,.48,.55,1.17,.55,2.05v.09Zm-1.69-.11c0-.52-.07-.89-.21-1.11-.14-.22-.35-.34-.64-.34-.38,0-.65,.15-.79,.44v2.16c.14,.29,.41,.43,.8,.43s.65-.19,.76-.58c.05-.19,.08-.52,.08-.99Zm5.08,2.77v-7.3h2.35c.65,0,1.23,.15,1.74,.44,.51,.29,.92,.7,1.2,1.24,.29,.53,.44,1.13,.44,1.79v.34c0,.67-.14,1.27-.43,1.8-.28,.53-.68,.94-1.19,1.24-.51,.3-1.08,.45-1.71,.45h-2.4Zm1.76-5.94v4.59h.61c.5,0,.89-.18,1.16-.54,.27-.36,.41-.9,.41-1.6v-.32c0-.71-.14-1.24-.41-1.59-.27-.36-.66-.54-1.18-.54h-.59Zm7.43,6.04c-.83,0-1.51-.25-2.02-.74-.51-.5-.77-1.14-.77-1.94v-.14c0-.55,.1-1.04,.31-1.47,.21-.42,.51-.75,.9-.98,.39-.23,.86-.35,1.4-.35,.76,0,1.36,.24,1.81,.71,.44,.47,.66,1.13,.66,1.98v.66h-3.36c.06,.3,.19,.54,.4,.72,.2,.17,.47,.26,.79,.26,.53,0,.95-.19,1.25-.56l.77,.91c-.21,.29-.51,.52-.9,.7-.39,.17-.8,.26-1.24,.26Zm-.19-4.32c-.49,0-.79,.33-.88,.98h1.71v-.13c0-.27-.06-.48-.21-.63-.14-.15-.35-.23-.62-.23Zm6,2.7c0-.14-.08-.26-.23-.35s-.44-.18-.86-.27c-.42-.09-.77-.22-1.04-.37-.27-.15-.48-.34-.63-.56-.14-.22-.22-.47-.22-.75,0-.5,.21-.91,.62-1.23,.41-.32,.95-.49,1.61-.49,.71,0,1.29,.16,1.72,.49,.43,.32,.65,.75,.65,1.28h-1.69c0-.43-.23-.65-.69-.65-.18,0-.33,.05-.45,.15-.12,.1-.18,.22-.18,.37s.07,.27,.22,.37c.15,.09,.38,.17,.7,.23,.32,.06,.61,.13,.85,.22,.82,.28,1.22,.78,1.22,1.51,0,.49-.22,.9-.66,1.21-.44,.31-1.01,.47-1.7,.47-.46,0-.88-.08-1.24-.25-.36-.17-.65-.39-.85-.68-.2-.29-.31-.59-.31-.91h1.58c0,.25,.09,.43,.25,.55,.16,.11,.37,.17,.62,.17,.23,0,.4-.05,.52-.14,.12-.09,.18-.22,.18-.37Zm4.21,1.52h-1.69v-5.43h1.69v5.43Zm-1.79-6.82c0-.24,.09-.44,.26-.59,.17-.15,.4-.23,.68-.23s.5,.08,.68,.23c.17,.15,.26,.35,.26,.59s-.09,.44-.26,.59-.4,.23-.68,.23-.5-.08-.68-.23c-.17-.15-.26-.35-.26-.59Zm2.64,4.07c0-.55,.09-1.03,.27-1.45,.18-.42,.44-.75,.78-.97,.34-.23,.73-.35,1.18-.35,.57,0,1.01,.19,1.32,.57l.06-.47h1.54v5.22c0,.48-.11,.89-.34,1.24-.22,.35-.54,.63-.96,.81-.42,.19-.91,.29-1.46,.29-.4,0-.78-.08-1.16-.23-.37-.15-.65-.35-.85-.59l.71-.99c.31,.37,.73,.56,1.24,.56,.75,0,1.12-.38,1.12-1.15v-.17c-.32,.36-.73,.54-1.23,.54-.66,0-1.2-.25-1.6-.76-.41-.51-.61-1.19-.61-2.04v-.06Zm1.7,.11c0,.44,.08,.8,.25,1.06,.17,.26,.4,.39,.7,.39,.36,0,.63-.12,.8-.37v-2.28c-.16-.25-.43-.37-.79-.37-.3,0-.54,.14-.71,.41-.17,.27-.26,.66-.26,1.17Zm5.96-2.78l.06,.64c.37-.49,.89-.74,1.55-.74,.57,0,.99,.17,1.26,.51,.28,.34,.43,.85,.44,1.52v3.49h-1.69v-3.42c0-.27-.06-.47-.17-.6-.11-.13-.31-.2-.6-.2-.33,0-.58,.13-.74,.39v3.83h-1.69v-5.43h1.58Z"/>
    <path class="cls-1" d="M44.01,89.94h-2.41l-.42,1.36h-1.88l2.68-7.3h1.65l2.7,7.3h-1.89l-.43-1.36Zm-1.99-1.36h1.57l-.79-2.53-.78,2.53Zm6.6,.25v2.48h-1.76v-7.3h2.91c.56,0,1.05,.1,1.48,.31,.43,.2,.76,.5,1,.88,.24,.38,.36,.81,.36,1.29,0,.71-.26,1.28-.77,1.71-.51,.42-1.21,.64-2.1,.64h-1.12Zm0-1.36h1.15c.34,0,.6-.08,.78-.26,.18-.17,.27-.41,.27-.72,0-.34-.09-.61-.28-.82-.18-.2-.43-.31-.75-.31h-1.17v2.11Zm6.8,3.84h-1.75v-7.3h1.75v7.3Zm3.99-1.52c0-.14-.08-.26-.23-.35-.15-.09-.44-.18-.86-.27-.42-.09-.77-.22-1.04-.37-.27-.15-.48-.34-.63-.56-.14-.22-.22-.47-.22-.75,0-.5,.21-.91,.62-1.23,.41-.32,.95-.49,1.61-.49,.72,0,1.29,.16,1.72,.49,.43,.32,.65,.75,.65,1.28h-1.69c0-.43-.23-.65-.69-.65-.18,0-.33,.05-.45,.15-.12,.1-.18,.22-.18,.37s.07,.27,.22,.37c.15,.09,.38,.17,.7,.23,.32,.06,.61,.13,.85,.22,.82,.28,1.22,.78,1.22,1.51,0,.49-.22,.9-.66,1.21-.44,.31-1.01,.47-1.7,.47-.46,0-.88-.08-1.24-.25-.36-.17-.65-.39-.85-.68-.2-.29-.31-.59-.31-.91h1.58c0,.25,.09,.43,.25,.55,.16,.11,.37,.17,.62,.17,.23,0,.4-.05,.52-.14,.12-.09,.18-.22,.18-.37Zm7.28,.32c.24,0,.42-.06,.55-.19,.13-.13,.19-.31,.19-.54h1.58c0,.6-.21,1.08-.64,1.46-.42,.38-.97,.57-1.64,.57-.79,0-1.41-.25-1.87-.74-.45-.5-.68-1.18-.68-2.06v-.07c0-.55,.1-1.03,.3-1.45,.2-.42,.5-.74,.88-.97,.38-.23,.83-.34,1.35-.34,.71,0,1.27,.2,1.68,.59,.41,.39,.62,.92,.62,1.59h-1.58c0-.28-.07-.5-.21-.65-.14-.15-.32-.23-.55-.23-.44,0-.69,.28-.77,.84-.02,.18-.04,.42-.04,.73,0,.54,.07,.92,.2,1.13,.13,.21,.34,.32,.62,.32Zm2.83-1.56c0-.54,.11-1.02,.32-1.44,.21-.42,.51-.75,.91-.98,.39-.23,.86-.34,1.39-.34,.81,0,1.45,.25,1.92,.76,.47,.5,.7,1.18,.7,2.05v.06c0,.85-.24,1.52-.71,2.02-.47,.49-1.1,.74-1.91,.74s-1.39-.23-1.86-.69c-.47-.46-.72-1.09-.76-1.88v-.29Zm1.68,.11c0,.5,.08,.87,.24,1.1,.16,.23,.39,.35,.7,.35,.6,0,.91-.46,.92-1.39v-.17c0-.97-.31-1.46-.93-1.46-.57,0-.87,.42-.92,1.26v.31Zm5.84-2.77l.06,.64c.37-.49,.89-.74,1.55-.74,.56,0,.99,.17,1.26,.51,.28,.34,.43,.85,.44,1.52v3.5h-1.69v-3.43c0-.27-.06-.47-.17-.6-.11-.13-.31-.2-.6-.2-.33,0-.58,.13-.74,.39v3.83h-1.69v-5.43h1.58Zm7.09,3.9c0-.14-.08-.26-.23-.35-.15-.09-.44-.18-.86-.27-.42-.09-.77-.22-1.04-.37-.27-.15-.48-.34-.63-.56-.14-.22-.22-.47-.22-.75,0-.5,.21-.91,.62-1.23,.41-.32,.95-.49,1.61-.49,.72,0,1.29,.16,1.72,.49,.43,.32,.65,.75,.65,1.28h-1.69c0-.43-.23-.65-.69-.65-.18,0-.33,.05-.45,.15-.12,.1-.18,.22-.18,.37s.07,.27,.22,.37c.15,.09,.38,.17,.7,.23,.32,.06,.61,.13,.85,.22,.82,.28,1.22,.78,1.22,1.51,0,.49-.22,.9-.66,1.21-.44,.31-1.01,.47-1.7,.47-.46,0-.88-.08-1.24-.25-.36-.17-.65-.39-.85-.68-.2-.29-.31-.59-.31-.91h1.58c0,.25,.09,.43,.25,.55,.16,.11,.37,.17,.62,.17,.23,0,.4-.05,.52-.14,.12-.09,.18-.22,.18-.37Zm5.66,.94c-.36,.46-.84,.69-1.45,.69s-1.05-.17-1.35-.52c-.3-.35-.46-.85-.46-1.49v-3.52h1.69v3.53c0,.46,.23,.7,.68,.7,.39,0,.66-.14,.83-.42v-3.81h1.7v5.43h-1.58l-.05-.59Zm4.16-4.84l.06,.64c.39-.49,.9-.74,1.55-.74,.68,0,1.15,.27,1.39,.82,.37-.55,.9-.82,1.59-.82,1.1,0,1.67,.67,1.69,2v3.53h-1.69v-3.43c0-.28-.05-.48-.14-.61-.09-.13-.26-.19-.51-.19-.33,0-.58,.15-.75,.45v.07s0,3.71,0,3.71h-1.69v-3.42c0-.28-.04-.49-.14-.62-.09-.13-.26-.19-.52-.19-.32,0-.57,.15-.74,.45v3.78h-1.69v-5.43h1.58Zm12.29,2.75c0,.84-.19,1.52-.57,2.02-.38,.5-.89,.75-1.53,.75-.5,0-.91-.18-1.23-.55v2.53h-1.69v-7.51h1.58l.05,.5c.33-.4,.75-.6,1.28-.6,.67,0,1.19,.25,1.56,.74,.37,.49,.56,1.17,.56,2.03v.08Zm-1.69-.11c0-.96-.28-1.44-.84-1.44-.4,0-.67,.14-.8,.43v2.14c.15,.3,.42,.45,.81,.45,.54,0,.82-.46,.83-1.39v-.18Zm4.41-4v1.35h.89v1.17h-.89v2.48c0,.2,.04,.35,.11,.43,.07,.08,.22,.12,.44,.12,.17,0,.31-.01,.42-.03v1.21c-.3,.1-.62,.14-.95,.14-.58,0-1.01-.14-1.29-.41-.28-.27-.42-.69-.42-1.25v-2.69h-.69v-1.17h.69v-1.35h1.69Zm3.34,6.77h-1.69v-5.43h1.69v5.43Zm-1.79-6.82c0-.24,.09-.44,.26-.59,.17-.15,.4-.23,.68-.23s.5,.08,.68,.23c.17,.15,.26,.35,.26,.59s-.09,.44-.26,.59c-.17,.15-.4,.23-.68,.23s-.5-.08-.68-.23c-.17-.15-.26-.35-.26-.59Zm2.63,4.06c0-.54,.11-1.02,.32-1.44,.21-.42,.51-.75,.91-.98,.39-.23,.86-.34,1.39-.34,.81,0,1.45,.25,1.92,.76,.47,.5,.7,1.18,.7,2.05v.06c0,.85-.24,1.52-.71,2.02-.47,.49-1.1,.74-1.9,.74s-1.39-.23-1.86-.69c-.47-.46-.72-1.09-.76-1.88v-.29Zm1.68,.11c0,.5,.08,.87,.24,1.1s.39,.35,.7,.35c.6,0,.91-.46,.92-1.39v-.17c0-.97-.31-1.46-.93-1.46-.57,0-.87,.42-.92,1.26v.31Zm5.84-2.77l.06,.64c.37-.49,.89-.74,1.55-.74,.57,0,.99,.17,1.26,.51,.28,.34,.43,.85,.44,1.52v3.5h-1.69v-3.43c0-.27-.06-.47-.17-.6-.11-.13-.31-.2-.6-.2-.33,0-.58,.13-.74,.39v3.83h-1.69v-5.43h1.58Z"/>
    <path class="cls-1" d="M41.62,155.83v2.48h-1.76v-7.3h2.91c.56,0,1.05,.1,1.48,.31,.43,.2,.76,.5,1,.88,.24,.38,.36,.81,.36,1.29,0,.71-.26,1.28-.77,1.71-.51,.43-1.21,.64-2.1,.64h-1.12Zm0-1.36h1.15c.34,0,.6-.09,.78-.26,.18-.17,.27-.41,.27-.72,0-.34-.09-.61-.28-.82-.18-.2-.43-.31-.75-.31h-1.17v2.11Zm4.57,1.07c0-.54,.11-1.02,.32-1.44,.21-.42,.51-.75,.91-.98,.39-.23,.86-.34,1.39-.34,.81,0,1.45,.25,1.92,.76,.47,.5,.7,1.18,.7,2.05v.06c0,.85-.24,1.52-.71,2.02-.47,.49-1.1,.74-1.91,.74s-1.39-.23-1.86-.69c-.47-.46-.72-1.09-.76-1.89v-.29Zm1.68,.1c0,.5,.08,.87,.24,1.1s.39,.35,.7,.35c.6,0,.91-.46,.92-1.39v-.17c0-.97-.31-1.46-.93-1.46-.56,0-.87,.42-.92,1.26v.3Zm7.52,2.07c-.36,.46-.84,.69-1.45,.69s-1.05-.17-1.35-.52c-.3-.35-.46-.85-.46-1.49v-3.51h1.69v3.53c0,.46,.23,.7,.68,.7,.39,0,.66-.14,.83-.42v-3.81h1.7v5.43h-1.58l-.05-.59Zm4.35,.59h-1.69v-7.7h1.69v7.7Zm4.1,0c-.06-.11-.11-.27-.16-.49-.31,.39-.75,.59-1.3,.59-.51,0-.95-.15-1.3-.46-.36-.31-.54-.7-.54-1.17,0-.59,.22-1.03,.65-1.33,.43-.3,1.07-.45,1.9-.45h.52v-.29c0-.5-.22-.75-.65-.75-.4,0-.6,.2-.6,.59h-1.69c0-.52,.22-.95,.67-1.28,.45-.33,1.02-.49,1.71-.49s1.24,.17,1.64,.51c.4,.34,.61,.8,.62,1.39v2.4c0,.5,.08,.88,.23,1.14v.09h-1.69Zm-1.06-1.1c.21,0,.38-.04,.52-.14,.14-.09,.24-.19,.3-.31v-.87h-.49c-.59,0-.88,.26-.88,.79,0,.15,.05,.28,.16,.38,.1,.09,.24,.14,.4,.14Zm6.74-2.79l-.56-.04c-.53,0-.87,.17-1.02,.5v3.43h-1.69v-5.43h1.58l.06,.7c.28-.53,.68-.8,1.19-.8,.18,0,.34,.02,.47,.06l-.03,1.57Zm4.95,3.9h-1.69v-7.7h1.69v7.7Zm2.83,0h-1.69v-5.43h1.69v5.43Zm-1.8-6.82c0-.24,.09-.44,.26-.59s.4-.23,.68-.23,.5,.08,.68,.23c.17,.15,.26,.35,.26,.59s-.09,.44-.26,.59c-.17,.15-.4,.23-.68,.23s-.5-.08-.68-.23c-.17-.15-.26-.35-.26-.59Zm7.88,4.16c0,.89-.18,1.57-.55,2.05-.37,.48-.89,.72-1.55,.72-.55,0-1-.22-1.33-.66l-.07,.56h-1.51v-7.7h1.69v2.71c.31-.36,.72-.54,1.22-.54,.68,0,1.2,.24,1.56,.73,.37,.49,.55,1.17,.55,2.05v.09Zm-1.69-.1c0-.52-.07-.89-.21-1.11-.14-.22-.35-.34-.64-.34-.38,0-.65,.15-.79,.44v2.16c.14,.29,.41,.43,.8,.43s.65-.19,.76-.58c.05-.19,.08-.52,.08-.99Zm5.73-1.12l-.56-.04c-.53,0-.87,.17-1.02,.5v3.43h-1.69v-5.43h1.58l.06,.7c.28-.53,.68-.8,1.19-.8,.18,0,.34,.02,.47,.06l-.03,1.57Zm3.51,3.9c-.06-.11-.11-.27-.16-.49-.31,.39-.75,.59-1.3,.59-.51,0-.95-.15-1.3-.46-.36-.31-.54-.7-.54-1.17,0-.59,.22-1.03,.65-1.33,.43-.3,1.07-.45,1.9-.45h.52v-.29c0-.5-.22-.75-.65-.75-.4,0-.6,.2-.6,.59h-1.69c0-.52,.22-.95,.67-1.28,.45-.33,1.02-.49,1.71-.49s1.24,.17,1.64,.51c.4,.34,.61,.8,.62,1.39v2.4c0,.5,.08,.88,.23,1.14v.09h-1.69Zm-1.06-1.1c.21,0,.38-.04,.52-.14,.14-.09,.24-.19,.3-.31v-.87h-.49c-.59,0-.88,.26-.88,.79,0,.15,.05,.28,.15,.38,.1,.09,.24,.14,.4,.14Zm6.74-2.79l-.56-.04c-.53,0-.87,.17-1.02,.5v3.43h-1.69v-5.43h1.58l.06,.7c.28-.53,.68-.8,1.19-.8,.18,0,.34,.02,.47,.06l-.03,1.57Zm2.39,3.9h-1.69v-5.43h1.69v5.43Zm-1.79-6.82c0-.24,.09-.44,.26-.59,.17-.15,.4-.23,.68-.23s.5,.08,.68,.23c.17,.15,.26,.35,.26,.59s-.09,.44-.26,.59c-.17,.15-.4,.23-.68,.23s-.5-.08-.68-.23c-.17-.15-.26-.35-.26-.59Zm5.47,6.92c-.83,0-1.51-.25-2.02-.74-.51-.5-.77-1.15-.77-1.94v-.14c0-.55,.1-1.04,.31-1.47,.21-.42,.51-.75,.9-.98,.39-.23,.86-.35,1.4-.35,.76,0,1.36,.24,1.81,.71,.44,.47,.66,1.13,.66,1.98v.66h-3.36c.06,.3,.19,.54,.4,.72,.2,.17,.47,.26,.79,.26,.53,0,.95-.19,1.25-.56l.77,.91c-.21,.29-.51,.52-.9,.7-.38,.17-.8,.26-1.24,.26Zm-.19-4.32c-.49,0-.79,.33-.88,.98h1.71v-.13c0-.27-.06-.48-.21-.63-.14-.15-.35-.23-.62-.23Zm6,2.7c0-.14-.07-.26-.22-.35-.15-.09-.44-.18-.86-.27-.42-.09-.77-.22-1.04-.37-.27-.15-.48-.34-.63-.56-.14-.22-.22-.47-.22-.75,0-.5,.21-.91,.62-1.23,.41-.32,.95-.49,1.61-.49,.72,0,1.29,.16,1.72,.49,.43,.32,.65,.75,.65,1.28h-1.69c0-.43-.23-.65-.69-.65-.18,0-.33,.05-.45,.15-.12,.1-.18,.22-.18,.37s.07,.27,.22,.37c.15,.09,.38,.17,.7,.23,.32,.06,.61,.13,.85,.21,.82,.28,1.22,.78,1.22,1.51,0,.49-.22,.9-.66,1.21-.44,.31-1.01,.47-1.71,.47-.46,0-.88-.08-1.24-.25-.36-.17-.65-.4-.85-.68-.2-.29-.31-.59-.31-.91h1.58c0,.25,.09,.44,.25,.55,.16,.11,.37,.17,.62,.17,.23,0,.4-.05,.52-.14,.12-.09,.18-.22,.18-.37Zm6.76,1.52h-1.69v-7.7h1.69v7.7Zm2.83,0h-1.7v-5.43h1.7v5.43Zm-1.79-6.82c0-.24,.09-.44,.26-.59s.4-.23,.68-.23,.5,.08,.68,.23,.26,.35,.26,.59-.09,.44-.26,.59c-.17,.15-.4,.23-.68,.23s-.5-.08-.68-.23c-.17-.15-.26-.35-.26-.59Zm5.02,4.8l-.48,.48v1.54h-1.69v-7.71h1.69v4.09l.17-.23,1.27-1.58h2.02l-1.9,2.23,2.03,3.19h-1.94l-1.18-2.02Zm5.96,2.12c-.83,0-1.51-.25-2.02-.74-.51-.5-.77-1.15-.77-1.94v-.14c0-.55,.1-1.04,.31-1.47,.21-.42,.51-.75,.9-.98,.4-.23,.86-.35,1.4-.35,.76,0,1.36,.24,1.8,.71,.44,.47,.66,1.13,.66,1.98v.66h-3.36c.06,.3,.19,.54,.4,.72,.2,.17,.47,.26,.79,.26,.54,0,.95-.19,1.25-.56l.77,.91c-.21,.29-.51,.52-.9,.7-.38,.17-.8,.26-1.24,.26Zm-.19-4.32c-.49,0-.79,.33-.88,.98h1.7v-.13c0-.27-.06-.48-.21-.63-.14-.15-.35-.23-.62-.23Zm-84.5,13.65h-.95v2.58h-1.76v-7.3h2.87c.87,0,1.54,.19,2.03,.58,.49,.38,.73,.93,.73,1.63,0,.51-.1,.93-.31,1.26-.2,.33-.52,.6-.96,.81l1.52,2.94v.07h-1.89l-1.29-2.58Zm-.95-1.36h1.11c.33,0,.58-.09,.75-.26,.17-.18,.26-.42,.26-.74s-.09-.56-.26-.74c-.17-.18-.42-.27-.75-.27h-1.11v2.01Zm7.49,4.04c-.83,0-1.51-.25-2.02-.74-.51-.5-.77-1.15-.77-1.94v-.14c0-.55,.1-1.04,.31-1.47,.21-.42,.51-.75,.9-.98,.39-.23,.86-.35,1.4-.35,.76,0,1.36,.24,1.81,.71,.44,.47,.66,1.13,.66,1.98v.66h-3.36c.06,.3,.19,.54,.4,.72,.2,.17,.47,.26,.79,.26,.53,0,.95-.19,1.25-.56l.77,.91c-.21,.29-.51,.52-.9,.7-.38,.17-.8,.26-1.24,.26Zm-.19-4.32c-.49,0-.79,.33-.88,.98h1.7v-.13c0-.27-.06-.48-.21-.63-.14-.15-.35-.23-.62-.23Zm6.22,4.22c-.06-.11-.11-.27-.16-.49-.31,.39-.75,.59-1.3,.59-.51,0-.95-.15-1.3-.46-.36-.31-.54-.7-.54-1.17,0-.59,.22-1.03,.65-1.33,.43-.3,1.07-.45,1.9-.45h.52v-.29c0-.5-.22-.75-.65-.75-.4,0-.6,.2-.6,.59h-1.69c0-.52,.22-.95,.67-1.28,.45-.33,1.02-.49,1.71-.49s1.24,.17,1.64,.51c.4,.34,.61,.8,.62,1.39v2.4c0,.5,.08,.88,.23,1.14v.09h-1.69Zm-1.06-1.1c.21,0,.38-.04,.52-.14,.14-.09,.24-.19,.3-.31v-.87h-.49c-.59,0-.88,.26-.88,.79,0,.15,.05,.28,.16,.38,.1,.09,.24,.14,.4,.14Zm5.75-.1c.24,0,.42-.06,.55-.19,.13-.13,.19-.31,.19-.54h1.58c0,.6-.21,1.08-.64,1.46-.42,.38-.97,.57-1.64,.57-.79,0-1.41-.25-1.87-.74-.45-.49-.68-1.18-.68-2.06v-.07c0-.55,.1-1.03,.3-1.45,.2-.42,.5-.74,.88-.97,.38-.23,.83-.34,1.35-.34,.71,0,1.27,.2,1.68,.59,.41,.39,.62,.92,.62,1.59h-1.58c0-.28-.07-.5-.21-.65-.14-.15-.32-.23-.55-.23-.44,0-.69,.28-.77,.84-.02,.18-.04,.42-.04,.73,0,.54,.07,.92,.2,1.13,.13,.21,.34,.32,.62,.32Zm5.01-5.57v1.35h.89v1.17h-.89v2.48c0,.2,.04,.35,.11,.43,.07,.08,.22,.12,.44,.12,.17,0,.31-.01,.42-.03v1.21c-.3,.1-.62,.15-.95,.15-.58,0-1.01-.14-1.29-.41-.28-.27-.42-.69-.42-1.25v-2.69h-.69v-1.17h.69v-1.35h1.69Zm2.16,8.74l-.85-.4,.17-.34c.23-.43,.36-.85,.37-1.24v-1.25h1.35v1.09c0,.39-.11,.78-.3,1.17-.19,.4-.44,.72-.74,.98Zm7.57-3.49c0-.14-.08-.26-.23-.35-.15-.09-.44-.18-.86-.27-.42-.09-.77-.22-1.04-.37-.27-.15-.48-.34-.63-.56-.14-.22-.22-.47-.22-.75,0-.5,.21-.91,.62-1.23,.41-.32,.95-.49,1.61-.49,.72,0,1.29,.16,1.72,.49,.43,.32,.65,.75,.65,1.28h-1.69c0-.43-.23-.65-.69-.65-.18,0-.33,.05-.45,.15-.12,.1-.18,.22-.18,.37s.07,.27,.22,.37c.15,.09,.38,.17,.7,.23,.32,.06,.61,.13,.85,.21,.82,.28,1.22,.78,1.22,1.51,0,.49-.22,.9-.66,1.21-.44,.31-1.01,.47-1.7,.47-.46,0-.88-.08-1.24-.25-.36-.17-.65-.4-.85-.68-.2-.29-.31-.59-.31-.91h1.58c0,.25,.09,.44,.25,.55,.16,.11,.37,.17,.62,.17,.23,0,.4-.05,.52-.14,.12-.09,.18-.22,.18-.37Zm4.39-5.25v1.35h.89v1.17h-.89v2.48c0,.2,.04,.35,.11,.43,.07,.08,.22,.12,.44,.12,.17,0,.31-.01,.42-.03v1.21c-.3,.1-.62,.15-.95,.15-.58,0-1.01-.14-1.29-.41-.28-.27-.42-.69-.42-1.25v-2.69h-.69v-1.17h.69v-1.35h1.69Zm3.73,4.41l.9-3.06h1.81l-2.21,6.33-.1,.23c-.31,.7-.87,1.05-1.66,1.05-.22,0-.45-.03-.7-.1v-1.21h.22c.24,0,.42-.04,.54-.11,.13-.07,.22-.19,.28-.37l.14-.36-1.89-5.48h1.81l.86,3.06Zm4.94,2.37h-1.69v-7.7h1.69v7.7Zm3.67,.1c-.83,0-1.51-.25-2.02-.74-.51-.5-.77-1.15-.77-1.94v-.14c0-.55,.1-1.04,.31-1.47,.21-.42,.51-.75,.9-.98,.39-.23,.86-.35,1.4-.35,.76,0,1.36,.24,1.81,.71,.44,.47,.66,1.13,.66,1.98v.66h-3.36c.06,.3,.19,.54,.4,.72,.2,.17,.47,.26,.79,.26,.54,0,.95-.19,1.25-.56l.77,.91c-.21,.29-.51,.52-.9,.7-.38,.17-.8,.26-1.24,.26Zm-.19-4.32c-.49,0-.79,.33-.88,.98h1.7v-.13c0-.27-.06-.48-.21-.63-.14-.15-.35-.23-.62-.23Zm2.95,1.47c0-.86,.19-1.54,.56-2.03,.37-.49,.89-.74,1.55-.74,.49,0,.89,.19,1.22,.57v-2.75h1.69v7.7h-1.52l-.08-.58c-.35,.46-.79,.68-1.32,.68-.65,0-1.16-.25-1.53-.74-.38-.49-.57-1.2-.57-2.11Zm1.69,.11c0,.96,.28,1.44,.84,1.44,.37,0,.64-.16,.8-.47v-2.07c-.15-.32-.42-.48-.79-.48-.52,0-.8,.42-.85,1.26v.31Zm-53.67,13.44c.24,0,.42-.06,.55-.19,.13-.13,.19-.31,.19-.54h1.58c0,.6-.21,1.08-.64,1.46-.42,.38-.97,.57-1.64,.57-.79,0-1.41-.25-1.87-.74s-.68-1.18-.68-2.06v-.07c0-.55,.1-1.03,.3-1.45,.2-.42,.5-.74,.88-.97,.38-.23,.83-.34,1.35-.34,.71,0,1.27,.2,1.68,.59,.41,.39,.62,.92,.62,1.59h-1.58c0-.28-.07-.5-.21-.65-.14-.15-.32-.23-.55-.23-.44,0-.69,.28-.77,.84-.02,.18-.04,.42-.04,.73,0,.54,.07,.92,.2,1.13,.13,.21,.34,.32,.62,.32Zm2.83-1.56c0-.54,.11-1.02,.32-1.44,.21-.42,.51-.75,.91-.98,.39-.23,.86-.34,1.39-.34,.81,0,1.45,.25,1.92,.76,.47,.5,.7,1.18,.7,2.05v.06c0,.85-.24,1.52-.71,2.02-.47,.49-1.1,.74-1.91,.74s-1.39-.23-1.86-.69c-.47-.46-.72-1.09-.76-1.89v-.29Zm1.68,.1c0,.5,.08,.87,.24,1.1,.16,.23,.39,.35,.7,.35,.6,0,.91-.46,.92-1.39v-.17c0-.97-.31-1.46-.93-1.46-.56,0-.87,.42-.92,1.26v.3Zm5.88-2.77l.06,.64c.38-.49,.9-.74,1.55-.74,.69,0,1.15,.27,1.39,.82,.37-.55,.9-.82,1.59-.82,1.1,0,1.66,.67,1.69,2v3.53h-1.69v-3.43c0-.28-.05-.48-.14-.61-.09-.13-.26-.19-.51-.19-.33,0-.58,.15-.75,.45v.07s0,3.71,0,3.71h-1.69v-3.41c0-.28-.05-.49-.14-.62-.09-.13-.26-.19-.52-.19-.32,0-.57,.15-.74,.45v3.78h-1.69v-5.43h1.58Zm12.28,2.75c0,.84-.19,1.52-.57,2.02-.38,.5-.89,.75-1.53,.75-.5,0-.91-.18-1.23-.55v2.53h-1.69v-7.51h1.58l.05,.5c.32-.4,.75-.6,1.28-.6,.67,0,1.19,.25,1.56,.74,.37,.49,.56,1.17,.56,2.03v.08Zm-1.69-.1c0-.96-.28-1.44-.84-1.44-.4,0-.67,.14-.8,.43v2.14c.15,.3,.42,.45,.81,.45,.54,0,.82-.46,.83-1.39v-.18Zm2.23,.01c0-.54,.11-1.02,.32-1.44,.21-.42,.51-.75,.91-.98,.39-.23,.86-.34,1.39-.34,.81,0,1.45,.25,1.92,.76,.47,.5,.7,1.18,.7,2.05v.06c0,.85-.24,1.52-.71,2.02-.47,.49-1.1,.74-1.91,.74s-1.39-.23-1.86-.69c-.47-.46-.72-1.09-.76-1.89v-.29Zm1.68,.1c0,.5,.08,.87,.24,1.1,.16,.23,.39,.35,.7,.35,.6,0,.91-.46,.92-1.39v-.17c0-.97-.31-1.46-.93-1.46-.56,0-.87,.42-.92,1.26v.3Zm5.84-2.77l.06,.64c.37-.49,.89-.74,1.55-.74,.57,0,.99,.17,1.26,.51,.28,.34,.43,.85,.44,1.52v3.49h-1.69v-3.43c0-.27-.06-.47-.17-.6-.11-.13-.31-.2-.6-.2-.33,0-.58,.13-.74,.39v3.83h-1.69v-5.43h1.58Zm6.87,5.53c-.83,0-1.51-.25-2.02-.74-.51-.5-.77-1.15-.77-1.94v-.14c0-.55,.1-1.04,.31-1.47,.21-.42,.51-.75,.9-.98,.39-.23,.86-.35,1.4-.35,.76,0,1.36,.24,1.81,.71,.44,.47,.66,1.13,.66,1.98v.66h-3.36c.06,.3,.19,.54,.4,.72,.2,.17,.47,.26,.79,.26,.53,0,.95-.19,1.25-.56l.77,.91c-.21,.29-.51,.52-.9,.7-.38,.17-.8,.26-1.24,.26Zm-.19-4.32c-.49,0-.79,.33-.88,.98h1.7v-.13c0-.27-.06-.48-.21-.63-.14-.15-.35-.23-.62-.23Zm4.71-1.2l.06,.64c.37-.49,.89-.74,1.55-.74,.56,0,.99,.17,1.26,.51,.28,.34,.43,.85,.44,1.52v3.49h-1.69v-3.43c0-.27-.06-.47-.17-.6-.11-.13-.31-.2-.6-.2-.33,0-.58,.13-.74,.39v3.83h-1.69v-5.43h1.58Zm6.21-1.35v1.35h.89v1.17h-.89v2.48c0,.2,.04,.35,.11,.43,.07,.08,.22,.12,.44,.12,.17,0,.31-.01,.42-.03v1.21c-.3,.1-.62,.15-.95,.15-.58,0-1.01-.14-1.29-.41-.28-.27-.42-.69-.42-1.25v-2.69h-.69v-1.17h.69v-1.35h1.69Zm4.4,5.25c0-.14-.08-.26-.23-.35-.15-.09-.44-.18-.86-.27-.42-.09-.77-.22-1.04-.37-.27-.15-.48-.34-.63-.56-.14-.22-.22-.47-.22-.75,0-.5,.21-.91,.62-1.23,.41-.32,.95-.49,1.61-.49,.72,0,1.29,.16,1.72,.49,.44,.32,.65,.75,.65,1.28h-1.69c0-.43-.23-.65-.69-.65-.18,0-.33,.05-.45,.15-.12,.1-.18,.22-.18,.37s.07,.27,.22,.37c.15,.09,.38,.17,.7,.23,.33,.06,.61,.13,.85,.21,.81,.28,1.22,.78,1.22,1.51,0,.49-.22,.9-.66,1.21-.44,.31-1.01,.47-1.7,.47-.46,0-.88-.08-1.24-.25-.36-.17-.65-.4-.85-.68-.2-.29-.31-.59-.31-.91h1.58c0,.25,.09,.44,.25,.55,.16,.11,.37,.17,.62,.17,.23,0,.4-.05,.52-.14,.12-.09,.18-.22,.18-.37Zm3.02,3.49l-.85-.4,.17-.34c.23-.43,.36-.85,.37-1.24v-1.25h1.35v1.09c0,.39-.11,.78-.3,1.17-.19,.4-.44,.72-.74,.98Zm7.36-1.87c-.83,0-1.51-.25-2.02-.74-.51-.5-.77-1.15-.77-1.94v-.14c0-.55,.1-1.04,.31-1.47,.21-.42,.51-.75,.9-.98,.39-.23,.86-.35,1.4-.35,.76,0,1.36,.24,1.81,.71,.44,.47,.66,1.13,.66,1.98v.66h-3.36c.06,.3,.19,.54,.4,.72,.2,.17,.47,.26,.79,.26,.53,0,.95-.19,1.25-.56l.77,.91c-.21,.29-.51,.52-.9,.7-.39,.17-.8,.26-1.24,.26Zm-.19-4.32c-.5,0-.79,.33-.88,.98h1.71v-.13c0-.27-.06-.48-.21-.63-.14-.15-.35-.23-.62-.23Zm5.13-2.55v1.35h.89v1.17h-.89v2.48c0,.2,.04,.35,.11,.43,.07,.08,.22,.12,.44,.12,.17,0,.31-.01,.42-.03v1.21c-.3,.1-.62,.15-.95,.15-.58,0-1.01-.14-1.29-.41-.28-.27-.42-.69-.42-1.25v-2.69h-.69v-1.17h.69v-1.35h1.69Zm3.86,5.57c.24,0,.42-.06,.55-.19,.13-.13,.19-.31,.19-.54h1.59c0,.6-.21,1.08-.64,1.46-.42,.38-.97,.57-1.64,.57-.79,0-1.41-.25-1.86-.74s-.68-1.18-.68-2.06v-.07c0-.55,.1-1.03,.3-1.45,.2-.42,.5-.74,.88-.97,.38-.23,.83-.34,1.35-.34,.71,0,1.27,.2,1.68,.59,.41,.39,.62,.92,.62,1.59h-1.59c0-.28-.07-.5-.21-.65-.14-.15-.32-.23-.55-.23-.44,0-.69,.28-.77,.84-.02,.18-.03,.42-.03,.73,0,.54,.06,.92,.19,1.13,.13,.21,.34,.32,.62,.32Zm4.09-.44c.27,0,.49,.08,.67,.24,.18,.16,.26,.36,.26,.61s-.09,.45-.26,.61c-.18,.16-.4,.24-.67,.24s-.49-.08-.67-.24c-.17-.16-.26-.36-.26-.61s.09-.45,.26-.61c.18-.16,.4-.24,.67-.24Z"/>
  </g>
</svg>