<?xml version="1.0" encoding="utf-8"?>
<!-- Generator: Adobe Illustrator 26.4.1, SVG Export Plug-In . SVG Version: 6.00 Build 0)  -->
<svg version="1.1" id="Capa_2_00000132071652904610296030000015711508805762285212_"
	 xmlns="http://www.w3.org/2000/svg" xmlns:xlink="http://www.w3.org/1999/xlink" x="0px" y="0px" viewBox="0 0 384.8 246.5"
	 style="enable-background:new 0 0 384.8 246.5;" xml:space="preserve">
<style type="text/css">
	.st0{opacity:0.5;enable-background:new    ;}
	.st1{fill:#E61C5B;}
	.st2{fill:#1D1D1B;}
	.st3{fill-rule:evenodd;clip-rule:evenodd;fill:#212122;}
	.st4{fill-rule:evenodd;clip-rule:evenodd;fill:#3F4041;}
	.st5{fill:#151515;}
	.st6{fill-rule:evenodd;clip-rule:evenodd;fill:#434244;}
	.st7{fill:#6A330D;}
	.st8{fill-rule:evenodd;clip-rule:evenodd;fill:#6A330D;}
	.st9{fill-rule:evenodd;clip-rule:evenodd;fill:#F0B9B2;}
	.st10{fill:#FFC3B8;}
	.st11{fill:#F0B9B2;}
	.st12{fill:#F0F1F1;}
	.st13{fill:#F3E6DE;}
	.st14{fill:#FFC7A8;}
	.st15{fill:#BBBDBF;}
	.st16{fill:#F3F3F3;}
	.st17{fill:#FFFFFF;}
	.st18{fill:#D0D2D3;}
	.st19{fill:#E5E6E7;}
	.st20{opacity:0.5;fill:#F0F1F1;enable-background:new    ;}
	.st21{opacity:0.5;fill:#F3E6DE;enable-background:new    ;}
	.st22{opacity:0.32;}
	.st23{opacity:0.32;fill:#FFFFFF;enable-background:new    ;}
	.st24{opacity:0.12;fill:#FFFFFF;enable-background:new    ;}
	.st25{fill:#414042;}
	.st26{fill-rule:evenodd;clip-rule:evenodd;fill:#FFC7A8;}
	.st27{fill-rule:evenodd;clip-rule:evenodd;fill:#FFC3B8;}
	.st28{fill:#8A5E3C;}
	.st29{fill:#F1F2F2;}
	.st30{fill:#6C6E70;}
	.st31{fill-rule:evenodd;clip-rule:evenodd;fill:#8A5E3C;}
	.st32{fill-rule:evenodd;clip-rule:evenodd;fill:#F3E6DE;}
	.st33{fill:#6D6E71;}
	.st34{fill:#231F20;}
	.st35{fill-rule:evenodd;clip-rule:evenodd;fill:#58595B;}
	.st36{fill:#E6205C;}
	.st37{fill:#E61158;}
	.st38{fill:#E6195A;}
</style>
<g id="Capa_1-2">
	<g>
		<path class="st0" d="M377.9,0H6.8C3.1,0,0,3.1,0,6.8v232.8c0,3.8,3.1,6.9,6.8,6.9h371c3.8,0,6.9-3.1,6.9-6.9V6.8
			C384.8,3.1,381.7,0,377.9,0z"/>
		<path class="st1" d="M157.5,0H6.8C3.1,0,0,3.1,0,6.8v232.8c0,3.8,3.1,6.9,6.8,6.9h150.6c3.8,0,6.9-3.1,6.9-6.9V6.8
			C164.3,3.1,161.2,0,157.5,0z"/>
		<path class="st2" d="M34,78.3c0-1.6,0.7-3.1,1.7-4.1c1.1-1.1,2.5-1.7,4.1-1.7h31.4c3.2,0,5.8-2.6,5.8-5.8v-0.2
			c0-2.7-1.6-5.6-4.3-5.7c-0.1,0-0.1,0-0.2,0c-2.9-0.4-5.1-2.8-5.1-5.8c0-1.6,0.7-3.1,1.7-4.1c1.1-1.1,2.5-1.7,4.1-1.7h33.9
			c3.2,0,6,2.7,5.9,5.9c0,1.6-0.7,3-1.7,4.1c-0.7,0.7-1.6,1.3-2.7,1.5c-0.5,0.1-1,0.2-1.5,0.2H104c-2.5,0.7-4.4,2.9-4.4,5.7v0.2
			c0,3.2,2.6,5.8,5.8,5.8h19c3.2,0,6,2.7,5.9,5.9c0,1.6-0.7,3-1.7,4.1c-1.1,1.1-2.5,1.7-4.1,1.7H39.8C36.6,84.1,34,81.5,34,78.3
			L34,78.3z"/>
		<path class="st2" d="M144.9,123.5H21c-1.2,0-2.2-1-2.2-2.2v-5c0-1.2,1-2.2,2.2-2.2h123.9c1.2,0,2.2,1,2.2,2.2v5
			C147.1,122.5,146.1,123.5,144.9,123.5z"/>
		<path class="st3" d="M15.4,75.4c0-0.1,0.1-0.2,0.2-0.2h10.6c0.1,0,0.2,0.1,0.2,0.2s-0.1,0.2-0.2,0.2H15.6
			C15.5,75.6,15.4,75.5,15.4,75.4z"/>
		<path class="st3" d="M17.8,78.5c0-0.1,0.1-0.2,0.2-0.2h8.1c0.1,0,0.2,0.1,0.2,0.2s-0.1,0.2-0.2,0.2H18
			C17.9,78.7,17.8,78.6,17.8,78.5z"/>
		<path class="st3" d="M76,109.9c0-0.1,0.1-0.2,0.2-0.2h10.6c0.1,0,0.2,0.1,0.2,0.2s-0.1,0.2-0.2,0.2H76.2
			C76.1,110.1,76,110,76,109.9z"/>
		<path class="st3" d="M78.4,113c0-0.1,0.1-0.2,0.2-0.2h8.1c0.1,0,0.2,0.1,0.2,0.2s-0.1,0.2-0.2,0.2h-8.1
			C78.5,113.2,78.4,113.1,78.4,113z"/>
		<path class="st4" d="M29.5,37.3c0-0.1,0.1-0.2,0.2-0.2h9.9c0.1,0,0.2,0.1,0.2,0.2s-0.1,0.2-0.2,0.2h-9.9
			C29.6,37.5,29.5,37.4,29.5,37.3z"/>
		<path class="st4" d="M40.7,37.3c0-0.1,0.1-0.2,0.2-0.2h7.5c0.1,0,0.2,0.1,0.2,0.2s-0.1,0.2-0.2,0.2h-7.5
			C40.8,37.5,40.7,37.4,40.7,37.3z"/>
		<path class="st4" d="M29.5,40.4c0-0.1,0.1-0.2,0.2-0.2H37c0.1,0,0.2,0.1,0.2,0.2s-0.1,0.2-0.2,0.2h-7.3
			C29.6,40.6,29.5,40.5,29.5,40.4z"/>
		<path class="st4" d="M38.5,40.4c0-0.1,0.1-0.2,0.2-0.2h18.2c0.1,0,0.2,0.1,0.2,0.2s-0.1,0.2-0.2,0.2H38.6
			C38.5,40.6,38.5,40.5,38.5,40.4z"/>
		<path class="st4" d="M29.5,34.2c0-0.1,0.1-0.2,0.2-0.2h4.1c0.1,0,0.2,0.1,0.2,0.2s-0.1,0.2-0.2,0.2h-4.1
			C29.6,34.4,29.5,34.4,29.5,34.2z"/>
		<path class="st5" d="M144.9,115c0.1,0,0.2-0.1,0.2-0.2s-0.1-0.2-0.2-0.2s-0.2,0.1-0.2,0.2S144.9,115,144.9,115z"/>
		<path class="st5" d="M146.1,118.2c0.1,0,0.2-0.1,0.2-0.2s-0.1-0.2-0.2-0.2s-0.2,0.1-0.2,0.2S146,118.2,146.1,118.2z"/>
		<path class="st5" d="M144.9,116.9c0.1,0,0.2-0.1,0.2-0.2s-0.1-0.2-0.2-0.2s-0.2,0.1-0.2,0.2S144.9,116.9,144.9,116.9z"/>
		<path class="st5" d="M144.6,122.3c0.1,0,0.2-0.1,0.2-0.2s-0.1-0.2-0.2-0.2s-0.2,0.1-0.2,0.2S144.5,122.3,144.6,122.3z"/>
		<path class="st5" d="M145.9,121.3c0.1,0,0.3-0.1,0.3-0.3s-0.1-0.3-0.3-0.3s-0.3,0.1-0.3,0.3S145.7,121.3,145.9,121.3z"/>
		<path class="st5" d="M145.1,119.2c0.1,0,0.3-0.1,0.3-0.3s-0.1-0.3-0.3-0.3s-0.3,0.1-0.3,0.3S145,119.2,145.1,119.2z"/>
		<path class="st5" d="M142.4,122.8c0.1,0,0.3-0.1,0.3-0.3s-0.1-0.3-0.3-0.3s-0.3,0.1-0.3,0.3S142.3,122.8,142.4,122.8z"/>
		<path class="st5" d="M144.3,121c0.1,0,0.3-0.1,0.3-0.3s-0.1-0.3-0.3-0.3s-0.3,0.1-0.3,0.3S144.1,121,144.3,121z"/>
		<path class="st6" d="M143.6,61.2c0.1,0,0.2,0.1,0.2,0.2v10.4c0,0.1-0.1,0.2-0.2,0.2s-0.2-0.1-0.2-0.2V61.4
			C143.4,61.3,143.5,61.2,143.6,61.2z"/>
		<path class="st6" d="M146.2,61.2c0.1,0,0.2,0.1,0.2,0.2v16.2c0,0.1-0.1,0.2-0.2,0.2s-0.2-0.1-0.2-0.2V61.4
			C146,61.3,146.1,61.2,146.2,61.2z"/>
		<path class="st6" d="M148.7,61.2c0.1,0,0.2,0.1,0.2,0.2v6.3c0,0.1-0.1,0.2-0.2,0.2s-0.2-0.1-0.2-0.2v-6.3
			C148.5,61.3,148.6,61.2,148.7,61.2z"/>
		<path class="st7" d="M107.6,79.1c0,0-3.6-4.3-3.9-3.6s0.1,1.6,0.1,1.6s-4.9-2.4-5.2-1.8c-0.4,0.7-0.3,4.9,1.4,5.9
			c1,0.6,5.3,2.9,5.3,2.9L107.6,79.1L107.6,79.1z"/>
		<path class="st8" d="M124.3,75.7c1.5,0.1,2.6,1.4,2.5,2.9c-0.1,0.7-0.1,1.5-0.1,2.4c0,0.6,0,1.2-0.1,1.9c-0.1,1.7-0.2,3.6-0.6,5.3
			c-0.3,1.6-1,3.7-2.7,4.9c-2,1.5-4.4,1.2-6.6,0.2c-3.2-1.6-5.8-3.3-7.6-4.6c-0.9-0.7-1.7-1.2-2.2-1.6c-0.2-0.2-0.4-0.4-0.6-0.5
			c-0.1-0.1-0.1-0.1-0.2-0.1c0,0,0,0-0.1,0l0,0l0,0l0,0c0,0,0,0,1.8-2l-1.8,2c-1.1-1-1.2-2.7-0.3-3.8c1-1.1,2.7-1.2,3.8-0.3l0,0l0,0
			l0,0l0,0l0.1,0.1c0.1,0.1,0.3,0.2,0.5,0.4c0.4,0.3,1.1,0.9,1.9,1.5c1.7,1.2,4.1,2.8,6.9,4.2c0.5,0.2,0.8,0.3,0.9,0.3
			c0-0.1,0.1-0.2,0.2-0.3c0.2-0.3,0.3-0.8,0.4-1.4c0.3-1.2,0.4-2.8,0.5-4.4c0-0.5,0-1.1,0.1-1.6c0-1.1,0.1-2.1,0.1-2.9
			C121.5,76.7,122.8,75.6,124.3,75.7L124.3,75.7z M120.2,88.9C120.2,88.9,120.1,88.9,120.2,88.9C120.1,88.9,120.2,88.9,120.2,88.9z
			 M109.6,82.4c0,0,0,0-1.7,2L109.6,82.4L109.6,82.4z"/>
		<path class="st9" d="M41,74.6c2.1-0.2,4,1.4,4.1,3.5c0.2,2.1,0.7,3.7,1.5,4.6c0.6,0.7,1.6,1.5,4.2,1.2c4.8-0.5,7.1-0.9,8.1-1.2
			c0.2-0.1,0.3-0.1,0.4-0.1c1.2-0.8,2.7-0.8,4-0.1c1.8,1,2.5,3.4,1.5,5.2l-3.3-1.8c3.3,1.8,3.3,1.9,3.3,1.9l0,0l0,0c0,0,0,0,0,0.1
			c0,0,0,0.1-0.1,0.1c0,0.1-0.1,0.1-0.1,0.2c-0.1,0.1-0.2,0.2-0.2,0.3c-0.2,0.2-0.3,0.3-0.5,0.5c-0.3,0.2-0.6,0.4-0.9,0.6
			c-0.5,0.3-1.2,0.5-2,0.7c-1.6,0.4-4.4,0.9-9.3,1.4c-4.8,0.5-8.5-1-10.9-4c-2.2-2.7-2.9-6.1-3.1-8.8C37.3,76.6,38.9,74.8,41,74.6
			L41,74.6z"/>
		<path class="st10" d="M45.5,69.1c0,2.3-1.9,4.2-4.2,4.2s-4.2-1.9-4.2-4.2s1.9-4.2,4.2-4.2c1.1,0,2.9,0.3,3.6,1
			C45.8,66.7,45.5,67.8,45.5,69.1L45.5,69.1z"/>
		<path class="st11" d="M62.4,114.4h-5l-1.9-5.3h5L62.4,114.4z"/>
		<path class="st12" d="M62,113.2h-5l-0.3-0.9h5L62,113.2z"/>
		<path class="st13" d="M65.5,116.6h-8.4c-0.5,0-0.9-0.4-0.9-0.9h10.3C66.4,116.2,66,116.6,65.5,116.6z"/>
		<path class="st14" d="M56.1,115.7c0,0,0-1,0.5-1.9v-0.5c0-0.1,0.1-0.2,0.2-0.2h5.6c0.1,0,0.2,0.1,0.2,0.2l-0.1,0.6l3.3,1.1
			c0.3,0.1,0.6,0.4,0.6,0.7L56.1,115.7L56.1,115.7z"/>
		<path class="st11" d="M38.8,114.4l-5-0.1l4.9-5.6l4.3,0.9L38.8,114.4z"/>
		<path class="st12" d="M39.7,113.4h-5.1l1.2-1.4h5.1L39.7,113.4z"/>
		<path class="st13" d="M42.9,116.6h-8.4c-0.5,0-0.9-0.4-0.9-0.9h10.3C43.9,116.2,43.5,116.6,42.9,116.6z"/>
		<path class="st14" d="M33.6,115.7c0,0,0-1,0.5-1.9v-0.5c0-0.1,0.1-0.2,0.2-0.2h5.6c0.1,0,0.2,0.1,0.2,0.2l-0.1,0.6l3.3,1.1
			c0.3,0.1,0.6,0.4,0.6,0.7L33.6,115.7L33.6,115.7z"/>
		<path class="st15" d="M72,70.2l-5.5-1.4l0.1-0.3c0.1-0.5,0.7-0.8,1.2-0.7l3.7,0.9c0.5,0.1,0.8,0.7,0.7,1.2
			C72.1,69.9,72,70.2,72,70.2z"/>
		<path class="st15" d="M77.6,71.6L72,70.2l0.1-0.3c0.1-0.5,0.7-0.8,1.2-0.7l3.7,0.9c0.5,0.1,0.8,0.7,0.7,1.2
			C77.6,71.2,77.6,71.6,77.6,71.6z"/>
		<path class="st15" d="M61.5,92.4l6.9,1.7l-0.1,0.3c-0.1,0.5-0.7,0.8-1.2,0.7l-5-1.2c-0.5-0.1-0.8-0.7-0.7-1.2L61.5,92.4z"/>
		<path class="st16" d="M102.6,103c-0.1,0-0.3,0-0.4-0.1L54.6,91.1c-0.9-0.2-1.5-1.1-1.2-2l5.2-20.8c0.2-0.8,0.9-1.3,1.6-1.3
			c0.1,0,0.3,0,0.4,0.1l47.5,11.8c0.9,0.2,1.4,1.1,1.2,2l-5.2,20.8C104,102.5,103.3,103,102.6,103L102.6,103z"/>
		<path class="st17" d="M60.2,66.4v1.1c0.1,0,0.2,0,0.3,0l44.6,11.1l2.9,0.7c0.3,0.1,0.5,0.2,0.7,0.5s0.2,0.6,0.1,0.8l-5.2,20.8
			c-0.1,0.5-0.6,0.8-1.1,0.8c-0.1,0-0.2,0-0.3,0l-2.9-0.7L54.8,90.6c-0.6-0.2-1-0.8-0.8-1.4l5.2-20.8c0.1-0.5,0.6-0.9,1.1-0.9
			L60.2,66.4L60.2,66.4z M60.2,66.4c-1,0-1.9,0.7-2.2,1.7l-5.2,20.8c-0.3,1.2,0.4,2.4,1.6,2.7L99,102.7l2.9,0.7
			c0.2,0.1,0.4,0.1,0.6,0.1c1,0,1.9-0.7,2.2-1.7l5.2-20.8c0.3-1.2-0.4-2.4-1.6-2.7l-2.9-0.7L60.8,66.5
			C60.6,66.4,60.4,66.4,60.2,66.4L60.2,66.4z"/>
		<path class="st17" d="M59.8,75.5l-1.9,7.6c-0.3,1.1-1.4,1.8-2.5,1.5L54,84.3l2.9-11.6l1.4,0.3C59.4,73.3,60,74.4,59.8,75.5
			L59.8,75.5z"/>
		<path class="st14" d="M69.3,71.3L64.1,92l1,0.2l5.2-20.7C70.3,71.6,69.3,71.3,69.3,71.3z"/>
		<path class="st18" d="M71.3,71.8l-5.2,20.7l0.5,0.1L71.8,72L71.3,71.8z"/>
		<path class="st18" d="M71.9,73.4l-4.8,19.3l0.5,0.1l4.8-19.3L71.9,73.4z"/>
		<path class="st18" d="M72.3,75.7L68,93l0.5,0.1l4.3-17.3L72.3,75.7z"/>
		<path class="st14" d="M72.4,88.2L71,93.8l0.5,0.1l1.4-5.5L72.4,88.2z"/>
		<path class="st14" d="M73.6,87.3L71.9,94l0.5,0.1l1.7-6.7L73.6,87.3z"/>
		<path class="st14" d="M74.5,87.5l-1.7,6.7l0.5,0.1l1.7-6.7L74.5,87.5z"/>
		<path class="st14" d="M74.6,79.2l-1.4,5.5l0.5,0.1l1.4-5.5L74.6,79.2z"/>
		<path class="st14" d="M75.8,78.3L74.2,85l0.5,0.1l1.7-6.7L75.8,78.3z"/>
		<path class="st14" d="M76.8,78.5l-1.7,6.7l0.5,0.1l1.7-6.7L76.8,78.5z"/>
		<path class="st14" d="M76.4,89.2L75,94.8l0.5,0.1l1.4-5.5L76.4,89.2z"/>
		<path class="st14" d="M77.6,88.3L75.9,95l0.5,0.1l1.7-6.7L77.6,88.3z"/>
		<path class="st14" d="M78.5,88.5l-1.7,6.7l0.5,0.1l1.7-6.7L78.5,88.5z"/>
		<path class="st14" d="M78.6,80.2l-1.4,5.5l0.5,0.1l1.4-5.5L78.6,80.2z"/>
		<path class="st14" d="M79.8,79.3L78.2,86l0.5,0.1l1.7-6.7L79.8,79.3z"/>
		<path class="st14" d="M80.7,79.5L79,86.2l0.5,0.1l1.7-6.7L80.7,79.5z"/>
		<path class="st18" d="M83.2,84.4l-0.6,2.4l0.5,0.1l0.6-2.4L83.2,84.4z"/>
		<path class="st18" d="M84.3,84.2L83.6,87l0.5,0.1l0.7-2.9H84.3z"/>
		<path class="st18" d="M85.1,84.7l-0.6,2.6l0.5,0.1l0.6-2.6L85.1,84.7z"/>
		<path class="st18" d="M86.8,85.3l-0.6,2.4l0.5,0.1l0.6-2.4L86.8,85.3z"/>
		<path class="st18" d="M87.8,85.1L87.1,88l0.5,0.1l0.7-2.9L87.8,85.1z"/>
		<path class="st18" d="M88.7,85.6L88,88.2l0.5,0.1l0.6-2.6L88.7,85.6z"/>
		<path class="st13" d="M56.9,86.6l-0.8,3.2c-0.1,0.3-0.4,0.5-0.7,0.4s-0.5-0.4-0.4-0.7l0.8-3.2c0.1-0.3,0.4-0.5,0.7-0.4
			S57,86.3,56.9,86.6z"/>
		<path class="st13" d="M61.3,69l-0.8,3.2c-0.1,0.3-0.4,0.5-0.7,0.4s-0.5-0.4-0.4-0.7l0.8-3.2c0.1-0.3,0.4-0.5,0.7-0.4
			S61.4,68.7,61.3,69z"/>
		<path class="st19" d="M66.6,71.6L62,89.9c-0.2,0.8-1.1,1.3-1.9,1.1s-1.3-1-1.1-1.8l4.6-18.3c0.2-0.8,1.1-1.3,1.9-1.1
			C66.3,69.9,66.8,70.7,66.6,71.6z"/>
		<path class="st14" d="M92.2,78l-1.3,5c-0.2,0.7-0.9,1.2-1.6,1l-5-1.3c-0.7-0.2-1.2-0.9-1-1.6l1.3-5c0.2-0.7,0.9-1.2,1.6-1l5,1.3
			C91.9,76.5,92.4,77.3,92.2,78z"/>
		<path class="st14" d="M107.7,81.8l-4.6,18.3c-0.2,0.7-0.9,1.2-1.6,1l-9.9-2.5c-0.7-0.2-1.2-0.9-1-1.6l4.6-18.3
			c0.2-0.7,0.9-1.2,1.6-1l9.9,2.5C107.4,80.4,107.9,81.1,107.7,81.8z"/>
		<path class="st14" d="M88.9,91.2l-1.3,5c-0.2,0.7-0.9,1.2-1.6,1L81,96c-0.7-0.2-1.2-0.9-1-1.6l1.3-5c0.2-0.7,0.9-1.2,1.6-1l5,1.3
			C88.6,89.8,89.1,90.5,88.9,91.2z"/>
		<path class="st20" d="M108.8,80.8l-5.2,20.8c-0.1,0.5-0.6,0.8-1.1,0.8c-0.1,0-0.2,0-0.3,0l-2.9-0.7l5.7-23l2.9,0.7
			c0.3,0.1,0.5,0.3,0.7,0.5C108.9,80.2,108.9,80.5,108.8,80.8L108.8,80.8z"/>
		<path class="st21" d="M104.7,89.3L104,92c0,0.1-0.1,0.1-0.1,0.1l0,0c-0.2-0.1-0.3-0.3-0.3-0.5l0.5-2.2c0.1-0.2,0.3-0.3,0.5-0.3
			C104.7,89.2,104.7,89.2,104.7,89.3C104.7,89.2,104.7,89.3,104.7,89.3L104.7,89.3z"/>
		<path class="st13" d="M78.5,73.6L78,75.8c-0.1,0.2-0.2,0.3-0.4,0.3L76,75.7c-0.2-0.1-0.3-0.2-0.3-0.4l0.6-2.2
			c0.1-0.2,0.2-0.3,0.4-0.3l1.6,0.4C78.4,73.2,78.6,73.4,78.5,73.6z"/>
		<path class="st13" d="M82.5,74.6l-0.6,2.2c-0.1,0.2-0.2,0.3-0.4,0.3l-1.6-0.4c-0.2-0.1-0.3-0.2-0.3-0.4l0.6-2.2
			c0.1-0.2,0.2-0.3,0.4-0.3l1.6,0.4C82.4,74.1,82.6,74.3,82.5,74.6L82.5,74.6z"/>
		<g class="st22">
			<path class="st23" d="M90,100.5L84.1,99L57.3,71.1l0.8-3c0.1-0.2,0.1-0.4,0.3-0.6L90,100.5L90,100.5z"/>
		</g>
		<g class="st22">
			<path class="st23" d="M105.2,100.2L105.2,100.2l-0.4,1.7c0,0.1-0.1,0.2-0.1,0.4H99L64.3,67.4l10.8,2.7l0,0L105.2,100.2
				L105.2,100.2z"/>
		</g>
		<path class="st24" d="M90,100.5L84.1,99L57.3,71.1l0.8-3c0.1-0.2,0.1-0.4,0.3-0.6L90,100.5L90,100.5z"/>
		<path class="st24" d="M105.2,100.2L105.2,100.2l-0.4,1.7c0,0.1-0.1,0.2-0.1,0.4H99L64.3,67.4l10.8,2.7l0,0L105.2,100.2
			L105.2,100.2z"/>
		<path class="st25" d="M42.3,113.9l-5.4-3.5l2.1-2.6c-5-2.1-10.3-6.7-10-12.5l11.4,0.5c-0.1,1.6,0.6,1.8,1.4,2L48,99l0.7,0.3
			c0.2,0.1,0.4,0.2,0.6,0.3c2,1.2,3.3,3.3,3.4,5.6c0,0.1,0,0.2,0,0.3C52.5,108,42.3,113.9,42.3,113.9L42.3,113.9z"/>
		<path class="st26" d="M60.3,96.3c-1.1-4.2-5.5-6.7-9.8-5.4L50.4,91L43,93.8l-6.4,2.8L29,96.2l-0.1,2.1c-0.4,3,0.9,5.9,3,7.7
			c2.3,2,5.7,2.7,8.9,1.2l0,0c0.1,0,0.2-0.1,0.3-0.1l6.2-2.7l3.2-1.2l2.7,8.7l10.9-3.4L60.3,96.3L60.3,96.3z M38.3,96.7l-1.7-0.1
			C37.2,96.5,37.8,96.5,38.3,96.7z"/>
		<path class="st13" d="M47.4,95.7c-6.1,1.9-12.5,4.9-18.6,3.1l0.4-9.6c0-7.5,6.1-13.6,13.6-13.6H44c1.9,0,3.4,1.5,3.4,3.4
			C47.4,78.9,47.4,95.7,47.4,95.7z"/>
		<path class="st27" d="M39.7,96.4c-2.2-2.6-2.9-6-3.1-8.6l7.1-0.6c0.2,2.1,0.7,3.7,1.5,4.8c0.6,0.8,1.8,1.6,4.5,1.3l0.4,3.5
			l-0.4-3.5c0.9-0.1,2.1-0.2,3.1-0.2c0.1,0,0.2,0,0.4,0c1.3-0.1,2.2-0.2,2.7-0.2l1,7c-0.8,0.1-2.1,0.2-3.2,0.3c-0.1,0-0.2,0-0.3,0
			c-1.1,0.1-2.2,0.1-2.9,0.2C45.6,100.7,42,99.3,39.7,96.4L39.7,96.4z"/>
		<path class="st12" d="M35.8,87.8c-0.3-4.1,0.3-7.7,0.4-8.1c0.8-4,9.4-2.2,8.6,1.7l0,0c0,0-0.5,2.7-0.3,5.6L35.8,87.8L35.8,87.8z"
			/>
		<path class="st13" d="M45.1,71.6h-7.7v5.3h7.7V71.6z"/>
		<path class="st10" d="M45.3,67.8c0,0,0.9,1.9,0.8,1.9c-0.1,0.1-1.2,0.4-1.2,0.4L45.3,67.8L45.3,67.8z"/>
		<path class="st14" d="M41.7,67.1l4.4-0.7c0,0-1.1-4.3-5.2-3.3c-4.2,1.1-3.5,3-3.5,3s-2.1-0.3-2.1,1.9v8.7l8.9-2.2L41.7,67.1z"/>
		<path class="st26" d="M46.2,66.4L46.2,66.4L46.2,66.4L46.2,66.4l-4.4,0.8l2.5,7.3l-9.1,2.3v-0.1l0,0V68c0-0.6,0.1-1,0.3-1.3
			s0.5-0.5,0.8-0.6S36.8,66,37,66c0.1,0,0.2,0,0.2,0c0-0.1,0-0.1,0-0.2c0-0.2,0.1-0.5,0.3-0.8c0.4-0.7,1.3-1.4,3.4-1.9
			c1.1-0.3,1.9-0.2,2.6,0.1c0.7,0.3,1.2,0.7,1.6,1.2c0.4,0.5,0.7,1,0.8,1.4c0.1,0.2,0.1,0.4,0.2,0.5C46.1,66.3,46.1,66.4,46.2,66.4
			L46.2,66.4L46.2,66.4L46.2,66.4L46.2,66.4L46.2,66.4L46.2,66.4z M37.3,66.3L37.3,66.3L37.3,66.3C37.3,66.3,37.2,66.3,37.3,66.3
			c-0.1,0-0.2,0-0.3,0c-0.2,0-0.4,0-0.7,0.1c-0.2,0.1-0.5,0.2-0.7,0.5s-0.3,0.6-0.3,1.2v8.6l8.7-2.2l-2.5-7.4l4.4-0.7v-0.1
			c0-0.1-0.1-0.3-0.2-0.5c-0.2-0.4-0.4-0.9-0.8-1.3c-0.4-0.5-0.9-0.9-1.6-1.1c-0.7-0.2-1.5-0.3-2.5-0.1c-2.1,0.5-2.9,1.3-3.3,1.9
			c-0.2,0.3-0.2,0.6-0.2,0.7s0,0.2,0,0.2s0,0,0,0.1L37.3,66.3L37.3,66.3L37.3,66.3L37.3,66.3L37.3,66.3L37.3,66.3z"/>
		<path class="st28" d="M119.8,69.1c0,2.3,1.9,4.2,4.2,4.2s4.2-1.9,4.2-4.2s-1.9-4.2-4.2-4.2c-1.1,0-2.9,0.3-3.6,1
			C119.6,66.7,119.8,67.8,119.8,69.1z"/>
		<path class="st28" d="M102.9,114.4h5l1.9-5.3h-5L102.9,114.4z"/>
		<path class="st12" d="M103.2,113.2h5.2l0.3-0.9h-5.2L103.2,113.2z"/>
		<path class="st29" d="M99.9,116.6h8.4c0.5,0,0.9-0.4,0.9-0.9H98.9C98.9,116.2,99.4,116.6,99.9,116.6z"/>
		<path class="st14" d="M109.2,115.7c0,0,0-1-0.5-1.9v-0.5c0-0.1-0.1-0.2-0.2-0.2h-5.6c-0.1,0-0.2,0.1-0.2,0.2l0.1,0.6l-3.3,1.1
			c-0.3,0.1-0.6,0.4-0.6,0.7L109.2,115.7L109.2,115.7z"/>
		<path class="st28" d="M126.1,114.3l5.2-0.2l-5.4-6l-4.3,1.2L126.1,114.3L126.1,114.3z"/>
		<path class="st12" d="M125.2,113.3h5.5l-1.3-1.4h-5.5C123.8,111.9,125.1,113.3,125.2,113.3z"/>
		<path class="st29" d="M121.7,116.6h9.1c0.5,0,0.9-0.4,0.9-0.9l0,0h-11l0,0C120.8,116.2,121.2,116.6,121.7,116.6z"/>
		<path class="st14" d="M131.7,115.7c0,0,0-1-0.6-1.9v-0.5c0-0.1-0.1-0.2-0.2-0.2h-6c-0.1,0-0.2,0.1-0.2,0.2l0.1,0.6l-3.5,1.1
			c-0.3,0.1-0.6,0.4-0.7,0.8L131.7,115.7L131.7,115.7z"/>
		<path class="st25" d="M121.7,113.2c0,0-10-6-8.6-9.6c0.7-1.9,1.9-3.5,3.7-4.4l0.7-0.3l6.2-1.2c1.2-0.2,1.7-1.4,1.7-2.4l11.4-0.2
			c0.1,5.7-6.7,10.1-11.4,12.2l3.2,3.3L121.7,113.2L121.7,113.2z"/>
		<path class="st26" d="M114.8,103.1l-2.7,8.7l-10.9-3.4l3.8-12.1c1.1-4.2,5.5-6.7,9.8-5.4L115,91l7.4,2.8l6.1,2.7l8.4,0.2l-0.1,3.7
			l-0.1,0.5c-1.1,5.7-7.3,8.8-12.5,6.2l-6.2-2.7L114.8,103.1L114.8,103.1z"/>
		<path class="st13" d="M136.3,88l0.9,10.8c-5.2,2.1-10.9-0.8-16.4-2.3c-1.3-0.3-2.3-1.5-2.4-2.8l-1.1-14.4c-0.1-1.5,0.7-2.8,2-3.4
			c0.3-0.2,0.7-0.2,1.1-0.3l1.3-0.1c1.8-0.1,3.6,0.1,5.3,0.6C132.1,77.8,135.9,82.4,136.3,88z"/>
		<path class="st30" d="M121,75.6c-0.3,0-0.6,0.1-0.8,0.2v-0.1c0.1,0,0.1,0,0.2,0L121,75.6z"/>
		<path class="st31" d="M125.4,84.8c1.5,0.1,2.6,1.4,2.5,2.9c0,0.4,0,0.8-0.1,1.4c0,0.2,0,0.3,0,0.5c0,0.8-0.1,1.7-0.2,2.7
			c-0.2,1.9-0.8,4.2-2.4,6.3c-3.2,4.3-9.6,6.8-21.4,6.2c-1.5-0.1-2.6-1.3-2.6-2.8c0.1-1.5,1.3-2.6,2.8-2.6c11.2,0.6,15.2-1.9,16.8-4
			c0.8-1.1,1.2-2.4,1.3-3.8c0.1-0.7,0.1-1.4,0.1-2.2c0-0.1,0-0.3,0-0.4c0-0.6,0-1.2,0.1-1.8C122.6,85.8,124,84.7,125.4,84.8z"/>
		<path class="st13" d="M129.6,87.8c0.3-4.1-0.4-7.7-0.4-8.1c-0.8-4-9.4-2.2-8.6,1.7l0,0c0,0,0.5,2.7,0.3,5.6L129.6,87.8L129.6,87.8
			z"/>
		<path d="M129.6,87.8c0.3-4.1-0.4-7.7-0.4-8.1c-0.8-4-9.4-2.2-8.6,1.7l0,0c0,0,0.5,2.7,0.3,5.6L129.6,87.8L129.6,87.8z"/>
		<path class="st13" d="M127.9,71.6v4.8c-0.3-0.1-0.6-0.2-0.8-0.3c-1.7-0.6-3.4-0.8-5.3-0.6l-0.7,0.1l-0.6,0.1c-0.1,0-0.2,0-0.2,0
			v-4L127.9,71.6L127.9,71.6z"/>
		<path class="st28" d="M120.1,67.8c0,0-0.9,1.9-0.8,1.9c0.1,0.1,1.2,0.4,1.2,0.4L120.1,67.8L120.1,67.8z"/>
		<path class="st14" d="M123.7,67.1l-4.4-0.7c0,0,1.1-4.3,5.2-3.3c4.2,1.1,3.4,3.9,3.4,3.9s1.5,0.5,1.5,2.7s-2.9,1.8-2.9,1.8
			l-0.4-2.8c-0.1-0.8-0.7-1.4-1.5-1.5L123.7,67.1L123.7,67.1z"/>
		<path class="st10" d="M55.2,92.8c0,0,5.8-2.6,5.8-1.7s-0.8,1.5-0.8,1.5s5.6,0.5,5.7,1.3s-1.3,5.8-3.5,6c-1.3,0.1-6.1-0.1-6.1-0.1
			L55.2,92.8z"/>
		<path class="st28" d="M104.4,99.4c0,0-3.3-2.3-5-2c-0.8,0.1,0.7,1.9,0.7,1.9s-6.2,1.3-6.3,2.1c-0.1,0.8,1.8,3.1,3.6,3.8
			c1.4,0.6,7.1-0.4,7.1-0.4L104.4,99.4L104.4,99.4z"/>
		<path class="st14" d="M127.8,66.6c1,0,1.9-0.8,1.9-1.8s-0.8-1.8-1.8-1.8s-1.8,0.8-1.8,1.8C126,65.8,126.8,66.6,127.8,66.6z"/>
		<path class="st32" d="M101.8,113C101.8,113,101.9,112.9,101.8,113l2.3,1.3c0,0,0.1,0.1,0,0.1c0,0-0.1,0.1-0.1,0L101.8,113
			C101.8,113.1,101.7,113.1,101.8,113z"/>
		<path class="st32" d="M104.2,113.4C104.2,113.5,104.2,113.5,104.2,113.4l-2.5,0.7c-0.1,0-0.1,0-0.1-0.1s0-0.1,0.1-0.1L104.2,113.4
			C104.2,113.3,104.2,113.3,104.2,113.4z"/>
		<path class="st32" d="M123.8,113.1C123.8,113.1,123.9,113,123.8,113.1l2.3,1.3c0,0,0.1,0.1,0,0.1c0,0-0.1,0.1-0.1,0L123.8,113.1
			C123.9,113.2,123.8,113.1,123.8,113.1z"/>
		<path class="st32" d="M126.3,113.4C126.3,113.4,126.3,113.5,126.3,113.4l-2.5,0.7c0,0-0.1,0-0.1-0.1s0-0.1,0.1-0.1L126.3,113.4
			C126.3,113.4,126.3,113.4,126.3,113.4z"/>
		<path class="st33" d="M35.2,116.1C35.2,116.1,35.3,116.1,35.2,116.1c0.1-0.1,0-0.2,0-0.2S35.1,116,35.2,116.1
			C35.1,116.1,35.2,116.1,35.2,116.1z"/>
		<path class="st33" d="M34.8,116.6C34.8,116.6,34.9,116.5,34.8,116.6c0.1-0.1,0-0.2,0-0.2S34.8,116.4,34.8,116.6
			C34.8,116.5,34.8,116.6,34.8,116.6z"/>
		<path class="st33" d="M36,116.5C36,116.5,36.1,116.5,36,116.5c0.1-0.1,0-0.2,0-0.2S35.9,116.4,36,116.5
			C35.9,116.5,36,116.5,36,116.5z"/>
		<path class="st33" d="M35.6,116.4C35.6,116.4,35.7,116.3,35.6,116.4c0.1-0.1,0-0.2,0-0.2S35.5,116.3,35.6,116.4
			C35.5,116.3,35.5,116.4,35.6,116.4z"/>
		<path class="st33" d="M36,116C36,116,36.1,116,36,116c0.1-0.1,0-0.2,0-0.2S35.9,115.9,36,116C35.9,116,35.9,116,36,116z"/>
		<path class="st33" d="M39.5,116.5C39.5,116.5,39.6,116.5,39.5,116.5c0.1-0.1,0-0.2,0-0.2S39.4,116.4,39.5,116.5
			C39.4,116.5,39.5,116.5,39.5,116.5z"/>
		<path class="st33" d="M42.4,116.5C42.4,116.5,42.5,116.5,42.4,116.5c0.1-0.1,0-0.2,0-0.2S42.3,116.4,42.4,116.5
			C42.3,116.5,42.3,116.5,42.4,116.5z"/>
		<path class="st33" d="M34.6,116C34.6,116,34.7,116,34.6,116c0.1-0.1,0-0.2,0-0.2S34.5,115.9,34.6,116C34.5,116,34.6,116,34.6,116z
			"/>
		<path class="st33" d="M34,115.9C34,115.9,34,115.8,34,115.9c0.1-0.1,0-0.2,0-0.2S33.9,115.7,34,115.9
			C33.9,115.8,33.9,115.9,34,115.9z"/>
		<path class="st33" d="M34.3,116.4L34.3,116.4c0.1-0.1,0-0.2,0-0.2S34.2,116.3,34.3,116.4C34.2,116.4,34.2,116.4,34.3,116.4z"/>
		<path class="st33" d="M38.8,116.1C38.8,116.1,38.9,116,38.8,116.1c0.1-0.1,0-0.2,0-0.2S38.7,115.9,38.8,116.1
			C38.7,116,38.7,116.1,38.8,116.1z"/>
		<path class="st33" d="M36.9,115.9C36.9,115.9,37,115.9,36.9,115.9c0.1-0.1,0-0.2,0-0.2S36.8,115.8,36.9,115.9
			C36.8,115.9,36.9,115.9,36.9,115.9z"/>
		<path class="st33" d="M37,116.5C37,116.5,37.1,116.5,37,116.5c0.1-0.1,0-0.2,0-0.2S36.9,116.4,37,116.5
			C36.9,116.5,36.9,116.5,37,116.5z"/>
		<path class="st33" d="M37.4,116C37.4,116,37.5,115.9,37.4,116c0.1-0.1,0-0.2,0-0.2S37.3,115.8,37.4,116
			C37.3,115.9,37.3,116,37.4,116z"/>
		<path class="st33" d="M37.4,116.5C37.4,116.5,37.5,116.4,37.4,116.5c0.1-0.1,0-0.2,0-0.2S37.3,116.3,37.4,116.5
			C37.3,116.4,37.4,116.5,37.4,116.5z"/>
		<path class="st33" d="M36.5,116.3C36.5,116.3,36.6,116.2,36.5,116.3c0.1-0.1,0-0.2,0-0.2S36.4,116.1,36.5,116.3
			C36.4,116.2,36.4,116.3,36.5,116.3z"/>
		<path class="st33" d="M38.4,116.2C38.4,116.2,38.5,116.1,38.4,116.2c0.1-0.1,0-0.2,0-0.2S38.3,116,38.4,116.2
			C38.3,116.1,38.3,116.2,38.4,116.2z"/>
		<path class="st33" d="M38.4,116.5C38.4,116.5,38.5,116.4,38.4,116.5c0.1-0.1,0-0.2,0-0.2S38.3,116.3,38.4,116.5
			C38.3,116.4,38.3,116.5,38.4,116.5z"/>
		<path class="st33" d="M37.9,116.1C37.9,116.1,38,116.1,37.9,116.1c0.1-0.1,0-0.2,0-0.2S37.8,116,37.9,116.1
			C37.8,116.1,37.8,116.1,37.9,116.1z"/>
		<path class="st33" d="M40.9,116.3C40.9,116.3,41,116.3,40.9,116.3c0.1-0.1,0-0.2,0-0.2S40.8,116.2,40.9,116.3
			C40.8,116.3,40.9,116.3,40.9,116.3z"/>
		<path class="st33" d="M41.5,116.5C41.5,116.5,41.6,116.5,41.5,116.5c0.1-0.1,0-0.2,0-0.2S41.4,116.4,41.5,116.5
			C41.4,116.5,41.4,116.5,41.5,116.5z"/>
		<path class="st33" d="M42.1,116.3C42.1,116.3,42.2,116.2,42.1,116.3c0.1-0.1,0-0.2,0-0.2S42,116.1,42.1,116.3
			C42,116.2,42,116.3,42.1,116.3z"/>
		<path class="st33" d="M40.5,116.5C40.5,116.5,40.6,116.5,40.5,116.5c0.1-0.1,0-0.2,0-0.2S40.4,116.4,40.5,116.5
			C40.4,116.5,40.4,116.5,40.5,116.5z"/>
		<path class="st33" d="M40.5,115.9C40.5,115.9,40.6,115.9,40.5,115.9c0.1-0.1,0-0.2,0-0.2S40.4,115.8,40.5,115.9
			C40.4,115.9,40.5,115.9,40.5,115.9z"/>
		<path class="st33" d="M39.1,116.5C39.1,116.5,39.2,116.4,39.1,116.5c0.1-0.1,0-0.2,0-0.2S39,116.3,39.1,116.5
			C39,116.4,39,116.5,39.1,116.5z"/>
		<path class="st33" d="M41.5,116C41.5,116,41.6,116,41.5,116c0.1-0.1,0-0.2,0-0.2S41.4,115.9,41.5,116C41.4,116,41.5,116,41.5,116z
			"/>
		<path class="st33" d="M39.6,116.1C39.6,116.1,39.7,116.1,39.6,116.1c0.1-0.1,0-0.2,0-0.2S39.5,116,39.6,116.1
			C39.5,116.1,39.5,116.1,39.6,116.1z"/>
		<path class="st33" d="M40.2,116.3C40.2,116.3,40.3,116.3,40.2,116.3c0.1-0.1,0-0.2,0-0.2S40.1,116.2,40.2,116.3
			C40.1,116.3,40.2,116.3,40.2,116.3z"/>
		<path class="st33" d="M39.1,116.1C39.1,116.1,39.2,116.1,39.1,116.1c0.1-0.1,0-0.2,0-0.2S39,116,39.1,116.1
			C39,116.1,39,116.1,39.1,116.1z"/>
		<path class="st33" d="M42.5,116C42.5,116,42.6,116,42.5,116c0.1-0.1,0-0.2,0-0.2S42.4,115.9,42.5,116C42.4,116,42.5,116,42.5,116z
			"/>
		<path class="st33" d="M43,115.9C43,115.9,43.1,115.8,43,115.9c0.1-0.1,0-0.2,0-0.2S42.9,115.7,43,115.9
			C42.9,115.8,43,115.9,43,115.9z"/>
		<path class="st33" d="M43,116.5L43,116.5c0.1-0.1,0-0.2,0-0.2S42.9,116.4,43,116.5C42.9,116.5,42.9,116.5,43,116.5z"/>
		<path class="st33" d="M43.7,115.9C43.7,115.9,43.8,115.9,43.7,115.9c0.1-0.1,0-0.2,0-0.2S43.6,115.8,43.7,115.9
			C43.6,115.9,43.6,115.9,43.7,115.9z"/>
		<path class="st33" d="M43.4,116.2C43.4,116.2,43.5,116.1,43.4,116.2c0.1-0.1,0-0.2,0-0.2S43.3,116,43.4,116.2
			C43.3,116.1,43.4,116.2,43.4,116.2z"/>
		<path class="st33" d="M57.7,116.1C57.7,116.1,57.8,116.1,57.7,116.1c0.1-0.1,0-0.2,0-0.2S57.6,116,57.7,116.1
			C57.6,116.1,57.7,116.1,57.7,116.1z"/>
		<path class="st33" d="M57.3,116.6C57.3,116.6,57.4,116.5,57.3,116.6c0.1-0.1,0-0.2,0-0.2S57.2,116.4,57.3,116.6
			C57.2,116.5,57.3,116.6,57.3,116.6z"/>
		<path class="st33" d="M58.5,116.5C58.5,116.5,58.6,116.5,58.5,116.5c0.1-0.1,0-0.2,0-0.2S58.4,116.4,58.5,116.5
			C58.4,116.5,58.5,116.5,58.5,116.5z"/>
		<path class="st33" d="M58.1,116.4C58.1,116.4,58.2,116.3,58.1,116.4c0.1-0.1,0-0.2,0-0.2S58,116.3,58.1,116.4
			C58,116.3,58,116.4,58.1,116.4z"/>
		<path class="st33" d="M58.5,116C58.5,116,58.6,116,58.5,116c0.1-0.1,0-0.2,0-0.2S58.4,115.9,58.5,116C58.4,116,58.4,116,58.5,116z
			"/>
		<path class="st33" d="M62,116.5C62,116.5,62.1,116.5,62,116.5c0.1-0.1,0-0.2,0-0.2S61.9,116.4,62,116.5
			C61.9,116.5,62,116.5,62,116.5z"/>
		<path class="st33" d="M64.9,116.5C64.9,116.5,65,116.5,64.9,116.5c0.1-0.1,0-0.2,0-0.2S64.8,116.4,64.9,116.5
			C64.8,116.5,64.8,116.5,64.9,116.5z"/>
		<path class="st33" d="M57.1,116C57.1,116,57.2,116,57.1,116c0.1-0.1,0-0.2,0-0.2S57,115.9,57.1,116C57,116,57,116,57.1,116z"/>
		<path class="st33" d="M56.5,115.9C56.5,115.9,56.5,115.8,56.5,115.9c0.1-0.1,0-0.2,0-0.2S56.4,115.7,56.5,115.9
			C56.4,115.8,56.4,115.9,56.5,115.9z"/>
		<path class="st33" d="M56.8,116.4L56.8,116.4c0.1-0.1,0-0.2,0-0.2S56.7,116.3,56.8,116.4C56.7,116.4,56.7,116.4,56.8,116.4z"/>
		<path class="st33" d="M61.3,116.1C61.3,116.1,61.4,116,61.3,116.1c0.1-0.1,0-0.2,0-0.2S61.2,115.9,61.3,116.1
			C61.2,116,61.2,116.1,61.3,116.1z"/>
		<path class="st33" d="M59.4,115.9C59.4,115.9,59.5,115.9,59.4,115.9c0.1-0.1,0-0.2,0-0.2S59.3,115.8,59.4,115.9
			C59.3,115.9,59.4,115.9,59.4,115.9z"/>
		<path class="st33" d="M59.5,116.5C59.5,116.5,59.6,116.5,59.5,116.5c0.1-0.1,0-0.2,0-0.2S59.4,116.4,59.5,116.5
			C59.4,116.5,59.4,116.5,59.5,116.5z"/>
		<path class="st33" d="M59.9,116C59.9,116,60,115.9,59.9,116c0.1-0.1,0-0.2,0-0.2S59.8,115.8,59.9,116
			C59.8,115.9,59.8,116,59.9,116z"/>
		<path class="st33" d="M59.9,116.5C59.9,116.5,60,116.4,59.9,116.5c0.1-0.1,0-0.2,0-0.2S59.8,116.3,59.9,116.5
			C59.8,116.4,59.9,116.5,59.9,116.5z"/>
		<path class="st33" d="M59,116.3C59,116.3,59.1,116.2,59,116.3c0.1-0.1,0-0.2,0-0.2S58.9,116.1,59,116.3
			C58.9,116.2,58.9,116.3,59,116.3z"/>
		<path class="st33" d="M60.9,116.2C60.9,116.2,61,116.1,60.9,116.2c0.1-0.1,0-0.2,0-0.2S60.8,116,60.9,116.2
			C60.8,116.1,60.8,116.2,60.9,116.2z"/>
		<path class="st33" d="M60.9,116.5C60.9,116.5,61,116.4,60.9,116.5c0.1-0.1,0-0.2,0-0.2S60.8,116.3,60.9,116.5
			C60.8,116.4,60.8,116.5,60.9,116.5z"/>
		<path class="st33" d="M60.4,116.1C60.4,116.1,60.5,116.1,60.4,116.1c0.1-0.1,0-0.2,0-0.2S60.3,116,60.4,116.1
			C60.3,116.1,60.3,116.1,60.4,116.1z"/>
		<path class="st33" d="M63.4,116.3C63.4,116.3,63.5,116.3,63.4,116.3c0.1-0.1,0-0.2,0-0.2S63.3,116.2,63.4,116.3
			C63.3,116.3,63.4,116.3,63.4,116.3z"/>
		<path class="st33" d="M64,116.5L64,116.5c0.1-0.1,0-0.2,0-0.2S63.9,116.4,64,116.5C63.9,116.5,63.9,116.5,64,116.5z"/>
		<path class="st33" d="M64.6,116.3C64.6,116.3,64.7,116.2,64.6,116.3c0.1-0.1,0-0.2,0-0.2S64.5,116.1,64.6,116.3
			C64.5,116.2,64.5,116.3,64.6,116.3z"/>
		<path class="st33" d="M63,116.5C63,116.5,63.1,116.5,63,116.5c0.1-0.1,0-0.2,0-0.2S62.9,116.4,63,116.5
			C62.9,116.5,62.9,116.5,63,116.5z"/>
		<path class="st33" d="M63,115.9C63,115.9,63.1,115.9,63,115.9c0.1-0.1,0-0.2,0-0.2S62.9,115.8,63,115.9
			C62.9,115.9,63,115.9,63,115.9z"/>
		<path class="st33" d="M61.6,116.5C61.6,116.5,61.7,116.4,61.6,116.5c0.1-0.1,0-0.2,0-0.2S61.5,116.3,61.6,116.5
			C61.5,116.4,61.5,116.5,61.6,116.5z"/>
		<path class="st33" d="M64,116C64,116,64.1,116,64,116c0.1-0.1,0-0.2,0-0.2S63.9,115.9,64,116C63.9,116,64,116,64,116z"/>
		<path class="st33" d="M62.1,116.1C62.1,116.1,62.2,116.1,62.1,116.1c0.1-0.1,0-0.2,0-0.2S62,116,62.1,116.1
			C62,116.1,62,116.1,62.1,116.1z"/>
		<path class="st33" d="M62.7,116.3C62.7,116.3,62.8,116.3,62.7,116.3c0.1-0.1,0-0.2,0-0.2S62.6,116.2,62.7,116.3
			C62.6,116.3,62.7,116.3,62.7,116.3z"/>
		<path class="st33" d="M61.6,116.1C61.6,116.1,61.7,116.1,61.6,116.1c0.1-0.1,0-0.2,0-0.2S61.5,116,61.6,116.1
			C61.5,116.1,61.5,116.1,61.6,116.1z"/>
		<path class="st33" d="M65,116C65,116,65.1,116,65,116c0.1-0.1,0-0.2,0-0.2S64.9,115.9,65,116C64.9,116,65,116,65,116z"/>
		<path class="st33" d="M65.5,115.9C65.5,115.9,65.6,115.8,65.5,115.9c0.1-0.1,0-0.2,0-0.2S65.4,115.7,65.5,115.9
			C65.4,115.8,65.5,115.9,65.5,115.9z"/>
		<path class="st33" d="M65.4,116.5C65.4,116.5,65.5,116.5,65.4,116.5c0.1-0.1,0-0.2,0-0.2S65.4,116.4,65.4,116.5L65.4,116.5z"/>
		<path class="st33" d="M66.2,115.9C66.2,115.9,66.3,115.9,66.2,115.9c0.1-0.1,0-0.2,0-0.2S66.1,115.8,66.2,115.9
			C66.1,115.9,66.1,115.9,66.2,115.9z"/>
		<path class="st33" d="M65.9,116.2C65.9,116.2,66,116.1,65.9,116.2c0.1-0.1,0-0.2,0-0.2S65.9,116,65.9,116.2
			C65.9,116.1,65.9,116.2,65.9,116.2z"/>
		<path class="st34" d="M128.6,79.8C128.6,79.8,128.7,79.8,128.6,79.8c0.1-0.1,0.1-0.2,0-0.2S128.6,79.7,128.6,79.8L128.6,79.8z"/>
		<path class="st34" d="M121.4,85.5C121.5,85.5,121.5,85.5,121.4,85.5c0.1-0.1,0-0.2,0-0.2S121.3,85.4,121.4,85.5
			C121.3,85.5,121.4,85.5,121.4,85.5z"/>
		<path class="st34" d="M122.2,86.8C122.2,86.8,122.3,86.7,122.2,86.8c0.1-0.1,0-0.2,0-0.2S122.1,86.6,122.2,86.8
			C122.1,86.7,122.2,86.8,122.2,86.8z"/>
		<path class="st34" d="M121.2,86.9C121.2,86.9,121.3,86.9,121.2,86.9c0.1-0.1,0-0.2,0-0.2S121.1,86.8,121.2,86.9
			C121.1,86.9,121.2,86.9,121.2,86.9z"/>
		<path class="st34" d="M122.4,84.6C122.4,84.6,122.5,84.6,122.4,84.6c0.1-0.1,0-0.2,0-0.2S122.3,84.5,122.4,84.6
			C122.3,84.6,122.3,84.6,122.4,84.6z"/>
		<path class="st34" d="M122.9,83.1C122.9,83.1,123,83.1,122.9,83.1c0.1-0.1,0-0.2,0-0.2S122.8,83,122.9,83.1
			C122.8,83.1,122.9,83.1,122.9,83.1z"/>
		<path class="st34" d="M124.7,82C124.7,82,124.8,82,124.7,82c0.1-0.1,0-0.2,0-0.2S124.6,81.9,124.7,82C124.6,82,124.7,82,124.7,82z
			"/>
		<path class="st34" d="M128.4,84.1C128.4,84.1,128.5,84,128.4,84.1c0.1-0.1,0.1-0.2,0-0.2S128.3,83.9,128.4,84.1
			C128.3,84,128.4,84.1,128.4,84.1z"/>
		<path class="st34" d="M127.2,86.7C127.2,86.7,127.3,86.6,127.2,86.7c0.1-0.1,0-0.2,0-0.2S127.1,86.5,127.2,86.7
			C127.1,86.6,127.2,86.7,127.2,86.7z"/>
		<path class="st34" d="M122.5,81.9C122.5,81.9,122.6,81.9,122.5,81.9c0.1-0.1,0-0.2,0-0.2S122.4,81.8,122.5,81.9
			C122.4,81.9,122.4,81.9,122.5,81.9z"/>
		<path class="st34" d="M123.2,86.3C123.2,86.3,123.3,86.2,123.2,86.3c0.1-0.1,0-0.2,0-0.2S123.1,86.1,123.2,86.3
			C123.1,86.2,123.1,86.3,123.2,86.3z"/>
		<path class="st34" d="M126.7,81.5L126.7,81.5c0.1-0.1,0-0.2,0-0.2S126.6,81.4,126.7,81.5C126.6,81.5,126.6,81.5,126.7,81.5z"/>
		<path class="st34" d="M124.2,80.2C124.2,80.2,124.3,80.2,124.2,80.2c0.1-0.1,0-0.2,0-0.2S124.1,80.1,124.2,80.2
			C124.1,80.2,124.1,80.2,124.2,80.2z"/>
		<path class="st34" d="M122.3,80.7C122.3,80.7,122.4,80.7,122.3,80.7c0.1-0.1,0-0.2,0-0.2S122.2,80.6,122.3,80.7
			C122.2,80.7,122.2,80.7,122.3,80.7z"/>
		<path class="st34" d="M124.3,83.6C124.3,83.6,124.4,83.5,124.3,83.6c0.1-0.1,0-0.2,0-0.2S124.2,83.4,124.3,83.6
			C124.2,83.5,124.2,83.6,124.3,83.6z"/>
		<path class="st34" d="M123.6,82.5C123.6,82.5,123.7,82.4,123.6,82.5c0.1-0.1,0-0.2,0-0.2S123.5,82.4,123.6,82.5
			C123.5,82.4,123.6,82.5,123.6,82.5z"/>
		<path class="st34" d="M125.9,79.2C125.9,79.2,126,79.2,125.9,79.2c0.1-0.1,0-0.2,0-0.2S125.8,79.1,125.9,79.2
			C125.8,79.2,125.9,79.2,125.9,79.2z"/>
		<path class="st34" d="M125.2,79.9C125.2,79.9,125.3,79.9,125.2,79.9c0.1-0.1,0-0.2,0-0.2S125.1,79.8,125.2,79.9
			C125.1,79.9,125.1,79.9,125.2,79.9z"/>
		<path class="st34" d="M125.3,81C125.3,81,125.4,81,125.3,81c0.1-0.1,0-0.2,0-0.2S125.2,80.9,125.3,81C125.2,81,125.3,81,125.3,81z
			"/>
		<path class="st34" d="M127.1,80.9C127.1,80.9,127.2,80.9,127.1,80.9c0.1-0.1,0-0.2,0-0.2S127,80.8,127.1,80.9
			C127,80.9,127,80.9,127.1,80.9z"/>
		<path class="st34" d="M121.6,81.2C121.7,81.2,121.7,81.2,121.6,81.2c0.1-0.1,0-0.2,0-0.2S121.5,81.1,121.6,81.2
			C121.5,81.2,121.6,81.2,121.6,81.2z"/>
		<path class="st34" d="M123.5,81.2C123.6,81.2,123.6,81.2,123.5,81.2c0.1-0.1,0-0.2,0-0.2S123.4,81.1,123.5,81.2
			C123.4,81.2,123.5,81.2,123.5,81.2z"/>
		<path class="st34" d="M124.8,86.9C124.8,86.9,124.9,86.9,124.8,86.9c0.1-0.1,0-0.2,0-0.2S124.7,86.8,124.8,86.9
			C124.7,86.9,124.8,86.9,124.8,86.9z"/>
		<path class="st34" d="M128.8,84.9C128.8,84.9,128.9,84.9,128.8,84.9c0.1-0.1,0.1-0.2,0-0.2S128.7,84.8,128.8,84.9
			C128.7,84.9,128.8,84.9,128.8,84.9z"/>
		<path class="st34" d="M125.8,85.3C125.8,85.3,125.9,85.2,125.8,85.3c0.1-0.1,0-0.2,0-0.2S125.7,85.1,125.8,85.3
			C125.7,85.2,125.8,85.3,125.8,85.3z"/>
		<path class="st34" d="M127.7,85.1C127.7,85.1,127.8,85,127.7,85.1c0.1-0.1,0-0.2,0-0.2S127.7,84.9,127.7,85.1
			C127.7,85,127.7,85.1,127.7,85.1z"/>
		<path class="st34" d="M127.3,83.2C127.3,83.2,127.4,83.1,127.3,83.2c0.1-0.1,0-0.2,0-0.2S127.2,83,127.3,83.2
			C127.2,83.1,127.2,83.2,127.3,83.2z"/>
		<path class="st34" d="M128.6,84.3C128.6,84.3,128.7,84.2,128.6,84.3c0.1-0.1,0.1-0.2,0-0.2S128.6,84.1,128.6,84.3
			C128.6,84.2,128.6,84.3,128.6,84.3z"/>
		<path class="st34" d="M125.7,82.9C125.7,82.9,125.8,82.8,125.7,82.9c0.1-0.1,0-0.2,0-0.2S125.7,82.7,125.7,82.9
			C125.7,82.8,125.7,82.9,125.7,82.9z"/>
		<path class="st34" d="M127.5,84.3C127.6,84.3,127.6,84.3,127.5,84.3c0.1-0.1,0-0.2,0-0.2S127.5,84.2,127.5,84.3L127.5,84.3z"/>
		<path class="st34" d="M128.2,85.1C128.3,85.1,128.3,85,128.2,85.1c0.1-0.1,0.1-0.2,0-0.2S128.2,84.9,128.2,85.1
			C128.2,85,128.2,85.1,128.2,85.1z"/>
		<path class="st34" d="M124.3,84.5C124.3,84.5,124.4,84.5,124.3,84.5c0.1-0.1,0-0.2,0-0.2S124.2,84.4,124.3,84.5
			C124.2,84.5,124.2,84.5,124.3,84.5z"/>
		<path class="st34" d="M126.7,82.9C126.7,82.9,126.8,82.9,126.7,82.9c0.1-0.1,0-0.2,0-0.2S126.7,82.8,126.7,82.9L126.7,82.9z"/>
		<path class="st34" d="M122.6,79C122.6,79,122.7,79,122.6,79c0.1-0.1,0-0.2,0-0.2S122.5,78.9,122.6,79C122.5,79,122.5,79,122.6,79z
			"/>
		<path class="st34" d="M126.4,84C126.4,84,126.4,83.9,126.4,84c0.1-0.1,0-0.2,0-0.2S126.3,83.8,126.4,84
			C126.3,83.9,126.3,84,126.4,84z"/>
		<path class="st34" d="M126.9,84.9C126.9,84.9,127,84.9,126.9,84.9c0.1-0.1,0-0.2,0-0.2S126.8,84.8,126.9,84.9
			C126.8,84.9,126.8,84.9,126.9,84.9z"/>
		<path class="st34" d="M124.4,79C124.4,79,124.5,79,124.4,79c0.1-0.1,0-0.2,0-0.2S124.3,78.9,124.4,79C124.3,79,124.3,79,124.4,79z
			"/>
		<path class="st34" d="M127.5,83.9C127.6,83.9,127.6,83.9,127.5,83.9c0.1-0.1,0-0.2,0-0.2S127.5,83.8,127.5,83.9L127.5,83.9z"/>
		<path class="st34" d="M126.6,78.6C126.6,78.6,126.6,78.5,126.6,78.6c0.1-0.1,0-0.2,0-0.2S126.5,78.4,126.6,78.6
			C126.5,78.5,126.5,78.6,126.6,78.6z"/>
		<path class="st34" d="M125,78.2C125,78.2,125.1,78.2,125,78.2c0.1-0.1,0-0.2,0-0.2S124.9,78.1,125,78.2
			C124.9,78.2,125,78.2,125,78.2z"/>
		<path class="st34" d="M126,78.3C126,78.3,126.1,78.3,126,78.3c0.1-0.1,0-0.2,0-0.2S125.9,78.2,126,78.3
			C125.9,78.3,126,78.3,126,78.3z"/>
		<path class="st34" d="M127,78.3C127,78.3,127.1,78.3,127,78.3c0.1-0.1,0-0.2,0-0.2S126.9,78.2,127,78.3
			C126.9,78.3,127,78.3,127,78.3z"/>
		<path class="st34" d="M126.3,83.1C126.3,83.1,126.4,83,126.3,83.1c0.1-0.1,0-0.2,0-0.2S126.2,82.9,126.3,83.1
			C126.2,83,126.3,83.1,126.3,83.1z"/>
		<path class="st34" d="M125.6,83.8C125.6,83.8,125.7,83.7,125.6,83.8c0.1-0.1,0-0.2,0-0.2S125.5,83.6,125.6,83.8
			C125.5,83.7,125.5,83.8,125.6,83.8z"/>
		<path class="st34" d="M128.3,83.4C128.3,83.4,128.4,83.3,128.3,83.4c0.1-0.1,0.1-0.2,0-0.2S128.2,83.2,128.3,83.4
			C128.2,83.3,128.3,83.4,128.3,83.4z"/>
		<path class="st34" d="M127,82.4C127,82.4,127.1,82.4,127,82.4c0.1-0.1,0-0.2,0-0.2S126.9,82.3,127,82.4
			C126.9,82.4,126.9,82.4,127,82.4z"/>
		<path class="st34" d="M125.4,82.1C125.4,82.1,125.5,82,125.4,82.1c0.1-0.1,0-0.2,0-0.2S125.3,81.9,125.4,82.1
			C125.3,82,125.4,82.1,125.4,82.1z"/>
		<path class="st34" d="M126.4,82.2C126.4,82.2,126.5,82.1,126.4,82.2c0.1-0.1,0-0.2,0-0.2S126.3,82,126.4,82.2
			C126.3,82.1,126.4,82.2,126.4,82.2z"/>
		<path class="st34" d="M124.4,81.1C124.4,81.1,124.5,81.1,124.4,81.1c0.1-0.1,0-0.2,0-0.2S124.3,81,124.4,81.1
			C124.3,81.1,124.3,81.1,124.4,81.1z"/>
		<path class="st34" d="M127.4,82.2C127.4,82.2,127.5,82.1,127.4,82.2c0.1-0.1,0-0.2,0-0.2S127.3,82,127.4,82.2
			C127.3,82.1,127.4,82.2,127.4,82.2z"/>
		<path class="st34" d="M127.7,80.4C127.8,80.4,127.8,80.3,127.7,80.4c0.1-0.1,0-0.2,0-0.2S127.6,80.2,127.7,80.4
			C127.6,80.3,127.7,80.4,127.7,80.4z"/>
		<path class="st34" d="M127.2,80.1L127.2,80.1c0.1-0.1,0-0.2,0-0.2S127.1,80,127.2,80.1C127.1,80.1,127.1,80.1,127.2,80.1z"/>
		<path class="st34" d="M128.2,80.1L128.2,80.1c0.1-0.1,0.1-0.2,0-0.2S128.1,80,128.2,80.1C128.1,80.1,128.1,80.1,128.2,80.1z"/>
		<path class="st34" d="M126.8,80.2L126.8,80.2c0.1-0.1,0-0.2,0-0.2S126.7,80.1,126.8,80.2C126.7,80.2,126.7,80.2,126.8,80.2z"/>
		<path class="st34" d="M127.4,79.6C127.4,79.6,127.5,79.5,127.4,79.6c0.1-0.1,0-0.2,0-0.2S127.3,79.4,127.4,79.6
			C127.3,79.5,127.3,79.6,127.4,79.6z"/>
		<path class="st34" d="M126.8,79.3C126.9,79.3,126.9,79.3,126.8,79.3c0.1-0.1,0-0.2,0-0.2S126.8,79.2,126.8,79.3L126.8,79.3z"/>
		<path class="st34" d="M127.8,79.3C127.9,79.3,127.9,79.3,127.8,79.3c0.1-0.1,0-0.2,0-0.2S127.8,79.2,127.8,79.3L127.8,79.3z"/>
		<path class="st34" d="M129,83.4C129,83.4,129.1,83.3,129,83.4c0.1-0.1,0.1-0.2,0-0.2S128.9,83.2,129,83.4
			C128.9,83.3,128.9,83.4,129,83.4z"/>
		<path class="st34" d="M128.6,82.7C128.6,82.7,128.7,82.6,128.6,82.7c0.1-0.1,0.1-0.2,0-0.2S128.5,82.5,128.6,82.7
			C128.5,82.6,128.6,82.7,128.6,82.7z"/>
		<path class="st34" d="M129,82.3C129,82.3,129.1,82.2,129,82.3c0.1-0.1,0.1-0.2,0-0.2S128.9,82.1,129,82.3
			C128.9,82.2,129,82.3,129,82.3z"/>
		<path class="st34" d="M127.9,82.9C127.9,82.9,128,82.9,127.9,82.9c0.1-0.1,0.1-0.2,0-0.2S127.8,82.8,127.9,82.9
			C127.8,82.9,127.9,82.9,127.9,82.9z"/>
		<path class="st34" d="M128.5,80.6C128.5,80.6,128.6,80.6,128.5,80.6c0.1-0.1,0.1-0.2,0-0.2S128.4,80.5,128.5,80.6
			C128.4,80.6,128.5,80.6,128.5,80.6z"/>
		<path class="st34" d="M127.7,81.5C127.7,81.5,127.8,81.4,127.7,81.5c0.1-0.1,0-0.2,0-0.2S127.6,81.3,127.7,81.5
			C127.6,81.4,127.7,81.5,127.7,81.5z"/>
		<path class="st34" d="M128.7,81.5C128.7,81.5,128.8,81.4,128.7,81.5c0.1-0.1,0.1-0.2,0-0.2S128.6,81.3,128.7,81.5
			C128.6,81.4,128.7,81.5,128.7,81.5z"/>
		<path class="st34" d="M127.4,87.2C127.4,87.2,127.5,87.2,127.4,87.2c0.1-0.1,0-0.2,0-0.2S127.4,87.1,127.4,87.2L127.4,87.2z"/>
		<path class="st34" d="M128.1,86.6C128.1,86.6,128.2,86.5,128.1,86.6c0.1-0.1,0.1-0.2,0-0.2S128,86.4,128.1,86.6
			C128,86.5,128,86.6,128.1,86.6z"/>
		<path class="st34" d="M126.9,85.6C126.9,85.6,127,85.6,126.9,85.6c0.1-0.1,0-0.2,0-0.2S126.8,85.5,126.9,85.6
			C126.8,85.6,126.8,85.6,126.9,85.6z"/>
		<path class="st34" d="M127.5,86.3C127.6,86.3,127.6,86.3,127.5,86.3c0.1-0.1,0-0.2,0-0.2S127.5,86.2,127.5,86.3L127.5,86.3z"/>
		<path class="st34" d="M126.1,86.6C126.1,86.6,126.2,86.5,126.1,86.6c0.1-0.1,0-0.2,0-0.2S126,86.4,126.1,86.6
			C126,86.5,126,86.6,126.1,86.6z"/>
		<path class="st34" d="M126.3,87.1C126.3,87.1,126.4,87.1,126.3,87.1c0.1-0.1,0-0.2,0-0.2S126.2,87,126.3,87.1
			C126.2,87.1,126.3,87.1,126.3,87.1z"/>
		<path class="st34" d="M125.4,86.2C125.5,86.2,125.5,86.1,125.4,86.2c0.1-0.1,0-0.2,0-0.2S125.3,86,125.4,86.2
			C125.3,86.1,125.4,86.2,125.4,86.2z"/>
		<path class="st34" d="M126.4,86.2C126.4,86.2,126.5,86.2,126.4,86.2c0.1-0.1,0-0.2,0-0.2S126.3,86.1,126.4,86.2
			C126.3,86.2,126.4,86.2,126.4,86.2z"/>
		<path class="st34" d="M128.5,86.3C128.5,86.3,128.6,86.3,128.5,86.3c0.1-0.1,0.1-0.2,0-0.2S128.4,86.2,128.5,86.3
			C128.4,86.3,128.5,86.3,128.5,86.3z"/>
		<path class="st34" d="M123.9,86.5C123.9,86.5,124,86.5,123.9,86.5c0.1-0.1,0-0.2,0-0.2S123.9,86.4,123.9,86.5L123.9,86.5z"/>
		<path class="st34" d="M125.1,84.9C125.1,84.9,125.2,84.9,125.1,84.9c0.1-0.1,0-0.2,0-0.2S125,84.8,125.1,84.9
			C125,84.9,125,84.9,125.1,84.9z"/>
		<path class="st34" d="M125.4,87.1C125.4,87.1,125.5,87.1,125.4,87.1c0.1-0.1,0-0.2,0-0.2S125.3,87,125.4,87.1
			C125.3,87.1,125.4,87.1,125.4,87.1z"/>
		<path class="st34" d="M124,85.6C124.1,85.6,124.1,85.6,124,85.6c0.1-0.1,0-0.2,0-0.2S124,85.5,124,85.6L124,85.6z"/>
		<path class="st34" d="M126,84.6C126,84.6,126.1,84.6,126,84.6c0.1-0.1,0-0.2,0-0.2S125.9,84.5,126,84.6
			C125.9,84.6,126,84.6,126,84.6z"/>
		<path class="st34" d="M121.9,82.8C121.9,82.8,121.9,82.7,121.9,82.8c0.1-0.1,0-0.2,0-0.2S121.8,82.6,121.9,82.8
			C121.8,82.7,121.8,82.8,121.9,82.8z"/>
		<path class="st34" d="M128.8,87.1C128.8,87.1,128.9,87.1,128.8,87.1c0.1-0.1,0.1-0.2,0-0.2S128.7,87,128.8,87.1
			C128.7,87.1,128.8,87.1,128.8,87.1z"/>
		<path class="st34" d="M121.2,84C121.2,84,121.3,83.9,121.2,84c0.1-0.1,0-0.2,0-0.2S121.1,83.8,121.2,84
			C121.1,83.9,121.2,84,121.2,84z"/>
		<path class="st34" d="M123.5,84C123.6,84,123.6,83.9,123.5,84c0.1-0.1,0-0.2,0-0.2S123.4,83.8,123.5,84
			C123.4,83.9,123.5,84,123.5,84z"/>
		<path class="st34" d="M123.4,85.2C123.4,85.2,123.5,85.1,123.4,85.2c0.1-0.1,0-0.2,0-0.2S123.3,85,123.4,85.2
			C123.3,85.1,123.4,85.2,123.4,85.2z"/>
		<path class="st34" d="M126.4,80.5L126.4,80.5c0.1-0.1,0-0.2,0-0.2S126.3,80.4,126.4,80.5C126.3,80.5,126.3,80.5,126.4,80.5z"/>
		<path class="st34" d="M129.1,85.9C129.1,85.9,129.2,85.9,129.1,85.9c0.1-0.1,0.1-0.2,0-0.2S129,85.8,129.1,85.9
			C129,85.9,129,85.9,129.1,85.9z"/>
		<path class="st34" d="M128.2,78.9C128.3,78.9,128.3,78.9,128.2,78.9c0.1-0.1,0.1-0.2,0-0.2S128.2,78.8,128.2,78.9L128.2,78.9z"/>
		<path class="st34" d="M128.3,81.8C128.3,81.8,128.4,81.8,128.3,81.8c0.1-0.1,0.1-0.2,0-0.2S128.2,81.7,128.3,81.8
			C128.2,81.8,128.3,81.8,128.3,81.8z"/>
		<path class="st34" d="M36.5,80C36.5,80,36.6,80,36.5,80c0.1-0.1,0-0.2,0-0.2S36.4,79.9,36.5,80C36.4,80,36.4,80,36.5,80z"/>
		<path class="st34" d="M43.7,85.7C43.7,85.7,43.8,85.6,43.7,85.7c0.1-0.1,0-0.2,0-0.2S43.6,85.5,43.7,85.7
			C43.6,85.6,43.7,85.7,43.7,85.7z"/>
		<path class="st34" d="M42.9,86.9C42.9,86.9,43,86.9,42.9,86.9c0.1-0.1,0-0.2,0-0.2S42.8,86.8,42.9,86.9
			C42.8,86.9,42.9,86.9,42.9,86.9z"/>
		<path class="st34" d="M43.9,87.1C43.9,87.1,44,87,43.9,87.1c0.1-0.1,0-0.2,0-0.2S43.8,87,43.9,87.1C43.8,87,43.9,87.1,43.9,87.1z"
			/>
		<path class="st34" d="M42.7,84.8C42.7,84.8,42.8,84.7,42.7,84.8c0.1-0.1,0-0.2,0-0.2S42.7,84.6,42.7,84.8
			C42.7,84.7,42.7,84.8,42.7,84.8z"/>
		<path class="st34" d="M42.2,83.3C42.2,83.3,42.3,83.2,42.2,83.3c0.1-0.1,0-0.2,0-0.2S42.1,83.1,42.2,83.3
			C42.1,83.2,42.2,83.3,42.2,83.3z"/>
		<path class="st34" d="M40.4,82.2C40.4,82.2,40.5,82.1,40.4,82.2c0.1-0.1,0-0.2,0-0.2S40.3,82,40.4,82.2
			C40.3,82.1,40.4,82.2,40.4,82.2z"/>
		<path class="st34" d="M36.7,84.2C36.7,84.2,36.8,84.2,36.7,84.2c0.1-0.1,0-0.2,0-0.2S36.6,84.1,36.7,84.2
			C36.6,84.2,36.6,84.2,36.7,84.2z"/>
		<path class="st34" d="M37.9,86.8C37.9,86.8,38,86.8,37.9,86.8c0.1-0.1,0-0.2,0-0.2S37.8,86.7,37.9,86.8
			C37.8,86.8,37.9,86.8,37.9,86.8z"/>
		<path class="st34" d="M42.6,82.1C42.6,82.1,42.7,82,42.6,82.1c0.1-0.1,0-0.2,0-0.2S42.5,81.9,42.6,82.1
			C42.5,82,42.6,82.1,42.6,82.1z"/>
		<path class="st34" d="M42,86.4L42,86.4c0.1-0.1,0-0.2,0-0.2S41.9,86.3,42,86.4C41.9,86.4,41.9,86.4,42,86.4z"/>
		<path class="st34" d="M38.5,81.7C38.5,81.7,38.6,81.6,38.5,81.7c0.1-0.1,0-0.2,0-0.2S38.4,81.5,38.5,81.7
			C38.4,81.6,38.4,81.7,38.5,81.7z"/>
		<path class="st34" d="M40.9,80.3C40.9,80.3,41,80.3,40.9,80.3c0.1-0.1,0-0.2,0-0.2S40.8,80.2,40.9,80.3
			C40.8,80.3,40.9,80.3,40.9,80.3z"/>
		<path class="st34" d="M42.8,80.9C42.8,80.9,42.9,80.8,42.8,80.9c0.1-0.1,0-0.2,0-0.2S42.7,80.7,42.8,80.9
			C42.7,80.8,42.8,80.9,42.8,80.9z"/>
		<path class="st34" d="M40.8,83.7C40.8,83.7,40.9,83.7,40.8,83.7c0.1-0.1,0-0.2,0-0.2S40.8,83.6,40.8,83.7L40.8,83.7z"/>
		<path class="st34" d="M41.5,82.6C41.5,82.6,41.6,82.6,41.5,82.6c0.1-0.1,0-0.2,0-0.2S41.4,82.5,41.5,82.6
			C41.4,82.6,41.5,82.6,41.5,82.6z"/>
		<path class="st34" d="M39.2,79.4C39.2,79.4,39.3,79.3,39.2,79.4c0.1-0.1,0-0.2,0-0.2S39.1,79.2,39.2,79.4
			C39.1,79.3,39.2,79.4,39.2,79.4z"/>
		<path class="st34" d="M39.9,80.1C39.9,80.1,40,80,39.9,80.1c0.1-0.1,0-0.2,0-0.2S39.8,79.9,39.9,80.1C39.8,80,39.9,80.1,39.9,80.1
			z"/>
		<path class="st34" d="M39.8,81.2C39.8,81.2,39.9,81.1,39.8,81.2c0.1-0.1,0-0.2,0-0.2S39.7,81,39.8,81.2
			C39.7,81.1,39.8,81.2,39.8,81.2z"/>
		<path class="st34" d="M38,81.1C38,81.1,38.1,81,38,81.1c0.1-0.1,0-0.2,0-0.2S37.9,80.9,38,81.1C37.9,81,38,81.1,38,81.1z"/>
		<path class="st34" d="M43.5,81.3C43.5,81.3,43.6,81.3,43.5,81.3c0.1-0.1,0-0.2,0-0.2S43.4,81.2,43.5,81.3
			C43.4,81.3,43.5,81.3,43.5,81.3z"/>
		<path class="st34" d="M41.6,81.3C41.6,81.3,41.7,81.3,41.6,81.3c0.1-0.1,0-0.2,0-0.2S41.5,81.2,41.6,81.3
			C41.5,81.3,41.6,81.3,41.6,81.3z"/>
		<path class="st34" d="M40.3,87.1C40.3,87.1,40.4,87,40.3,87.1c0.1-0.1,0-0.2,0-0.2S40.2,87,40.3,87.1C40.2,87,40.3,87.1,40.3,87.1
			z"/>
		<path class="st34" d="M36.3,85.1C36.3,85.1,36.4,85,36.3,85.1c0.1-0.1,0-0.2,0-0.2S36.2,84.9,36.3,85.1
			C36.2,85,36.3,85.1,36.3,85.1z"/>
		<path class="st34" d="M39.3,85.4C39.3,85.4,39.4,85.4,39.3,85.4c0.1-0.1,0-0.2,0-0.2S39.2,85.3,39.3,85.4
			C39.2,85.4,39.2,85.4,39.3,85.4z"/>
		<path class="st34" d="M37.4,85.2C37.4,85.2,37.5,85.2,37.4,85.2c0.1-0.1,0-0.2,0-0.2S37.3,85.1,37.4,85.2
			C37.3,85.2,37.3,85.2,37.4,85.2z"/>
		<path class="st34" d="M37.8,83.3C37.8,83.3,37.9,83.3,37.8,83.3c0.1-0.1,0-0.2,0-0.2S37.8,83.2,37.8,83.3L37.8,83.3z"/>
		<path class="st34" d="M36.5,84.4C36.5,84.4,36.6,84.4,36.5,84.4c0.1-0.1,0-0.2,0-0.2S36.4,84.3,36.5,84.4
			C36.4,84.4,36.4,84.4,36.5,84.4z"/>
		<path class="st34" d="M39.4,83C39.4,83,39.5,83,39.4,83c0.1-0.1,0-0.2,0-0.2S39.3,82.9,39.4,83C39.3,83,39.3,83,39.4,83z"/>
		<path class="st34" d="M37.6,84.5C37.6,84.5,37.7,84.5,37.6,84.5c0.1-0.1,0-0.2,0-0.2S37.5,84.4,37.6,84.5
			C37.5,84.5,37.5,84.5,37.6,84.5z"/>
		<path class="st34" d="M36.9,85.2C36.9,85.2,37,85.2,36.9,85.2c0.1-0.1,0-0.2,0-0.2S36.8,85.1,36.9,85.2
			C36.8,85.2,36.8,85.2,36.9,85.2z"/>
		<path class="st34" d="M40.8,84.7C40.8,84.7,40.9,84.6,40.8,84.7c0.1-0.1,0-0.2,0-0.2S40.8,84.5,40.8,84.7
			C40.8,84.6,40.8,84.7,40.8,84.7z"/>
		<path class="st34" d="M38.4,83.1C38.4,83.1,38.5,83,38.4,83.1c0.1-0.1,0-0.2,0-0.2S38.3,82.9,38.4,83.1
			C38.3,83,38.3,83.1,38.4,83.1z"/>
		<path class="st34" d="M42.5,79.2C42.5,79.2,42.6,79.2,42.5,79.2c0.1-0.1,0-0.2,0-0.2S42.5,79.1,42.5,79.2L42.5,79.2z"/>
		<path class="st34" d="M38.8,84.1L38.8,84.1c0.1-0.1,0-0.2,0-0.2S38.7,84,38.8,84.1C38.7,84.1,38.7,84.1,38.8,84.1z"/>
		<path class="st34" d="M38.2,85.1C38.2,85.1,38.3,85,38.2,85.1c0.1-0.1,0-0.2,0-0.2S38.2,84.9,38.2,85.1
			C38.2,85,38.2,85.1,38.2,85.1z"/>
		<path class="st34" d="M40.8,79.2L40.8,79.2c0.1-0.1,0-0.2,0-0.2S40.7,79.1,40.8,79.2C40.7,79.2,40.7,79.2,40.8,79.2z"/>
		<path class="st34" d="M37.6,84.1C37.6,84.1,37.7,84,37.6,84.1c0.1-0.1,0-0.2,0-0.2S37.5,83.9,37.6,84.1
			C37.5,84,37.5,84.1,37.6,84.1z"/>
		<path class="st34" d="M38.6,78.7C38.6,78.7,38.7,78.7,38.6,78.7c0.1-0.1,0-0.2,0-0.2S38.5,78.6,38.6,78.7
			C38.5,78.7,38.5,78.7,38.6,78.7z"/>
		<path class="st34" d="M40.1,78.4C40.1,78.4,40.2,78.3,40.1,78.4c0.1-0.1,0-0.2,0-0.2S40,78.3,40.1,78.4
			C40,78.3,40.1,78.4,40.1,78.4z"/>
		<path class="st34" d="M39.1,78.5C39.1,78.5,39.2,78.4,39.1,78.5c0.1-0.1,0-0.2,0-0.2S39,78.3,39.1,78.5
			C39,78.4,39.1,78.5,39.1,78.5z"/>
		<path class="st34" d="M38.1,78.5C38.1,78.5,38.2,78.4,38.1,78.5c0.1-0.1,0-0.2,0-0.2S38,78.3,38.1,78.5
			C38,78.4,38.1,78.5,38.1,78.5z"/>
		<path class="st34" d="M38.8,83.2C38.8,83.2,38.9,83.2,38.8,83.2c0.1-0.1,0-0.2,0-0.2S38.7,83.1,38.8,83.2
			C38.7,83.2,38.8,83.2,38.8,83.2z"/>
		<path class="st34" d="M39.5,83.9C39.5,83.9,39.6,83.9,39.5,83.9c0.1-0.1,0-0.2,0-0.2S39.4,83.8,39.5,83.9
			C39.4,83.9,39.5,83.9,39.5,83.9z"/>
		<path class="st34" d="M36.8,83.5C36.8,83.5,36.9,83.5,36.8,83.5c0.1-0.1,0-0.2,0-0.2S36.7,83.4,36.8,83.5
			C36.7,83.5,36.7,83.5,36.8,83.5z"/>
		<path class="st34" d="M38.2,82.6C38.2,82.6,38.2,82.5,38.2,82.6c0.1-0.1,0-0.2,0-0.2S38.1,82.4,38.2,82.6
			C38.1,82.5,38.1,82.6,38.2,82.6z"/>
		<path class="st34" d="M39.7,82.2C39.7,82.2,39.8,82.2,39.7,82.2c0.1-0.1,0-0.2,0-0.2S39.6,82.1,39.7,82.2
			C39.6,82.2,39.7,82.2,39.7,82.2z"/>
		<path class="st34" d="M38.7,82.3C38.7,82.3,38.8,82.3,38.7,82.3c0.1-0.1,0-0.2,0-0.2S38.6,82.2,38.7,82.3
			C38.6,82.3,38.7,82.3,38.7,82.3z"/>
		<path class="st34" d="M40.8,81.3C40.8,81.3,40.8,81.2,40.8,81.3c0.1-0.1,0-0.2,0-0.2S40.7,81.1,40.8,81.3
			C40.7,81.2,40.7,81.3,40.8,81.3z"/>
		<path class="st34" d="M37.7,82.3C37.7,82.3,37.8,82.3,37.7,82.3c0.1-0.1,0-0.2,0-0.2S37.6,82.2,37.7,82.3
			C37.6,82.3,37.7,82.3,37.7,82.3z"/>
		<path class="st34" d="M37.4,80.5C37.4,80.5,37.5,80.5,37.4,80.5c0.1-0.1,0-0.2,0-0.2S37.3,80.4,37.4,80.5
			C37.3,80.5,37.4,80.5,37.4,80.5z"/>
		<path class="st34" d="M38,80.3C38,80.3,38,80.2,38,80.3c0.1-0.1,0-0.2,0-0.2S37.9,80.1,38,80.3C37.9,80.2,37.9,80.3,38,80.3z"/>
		<path class="st34" d="M37,80.3C37,80.3,37.1,80.2,37,80.3c0.1-0.1,0-0.2,0-0.2S36.9,80.1,37,80.3C36.9,80.2,36.9,80.3,37,80.3z"/>
		<path class="st34" d="M38.4,80.4C38.4,80.4,38.5,80.3,38.4,80.4c0.1-0.1,0-0.2,0-0.2S38.3,80.3,38.4,80.4
			C38.3,80.3,38.3,80.4,38.4,80.4z"/>
		<path class="st34" d="M37.7,79.7C37.7,79.7,37.8,79.7,37.7,79.7c0.1-0.1,0-0.2,0-0.2S37.6,79.6,37.7,79.7
			C37.6,79.7,37.7,79.7,37.7,79.7z"/>
		<path class="st34" d="M38.3,79.5C38.3,79.5,38.4,79.4,38.3,79.5c0.1-0.1,0-0.2,0-0.2S38.2,79.3,38.3,79.5
			C38.2,79.4,38.2,79.5,38.3,79.5z"/>
		<path class="st34" d="M37.3,79.5C37.3,79.5,37.4,79.4,37.3,79.5c0.1-0.1,0-0.2,0-0.2S37.2,79.3,37.3,79.5
			C37.2,79.4,37.2,79.5,37.3,79.5z"/>
		<path class="st34" d="M36.2,83.5C36.2,83.5,36.3,83.5,36.2,83.5c0.1-0.1,0-0.2,0-0.2S36.1,83.4,36.2,83.5
			C36.1,83.5,36.1,83.5,36.2,83.5z"/>
		<path class="st34" d="M36.5,82.8C36.5,82.8,36.6,82.8,36.5,82.8c0.1-0.1,0-0.2,0-0.2S36.4,82.7,36.5,82.8
			C36.4,82.8,36.4,82.8,36.5,82.8z"/>
		<path class="st34" d="M36.1,82.4C36.1,82.4,36.2,82.4,36.1,82.4c0.1-0.1,0-0.2,0-0.2S36,82.3,36.1,82.4C36,82.4,36,82.4,36.1,82.4
			z"/>
		<path class="st34" d="M37.2,83.1C37.2,83.1,37.3,83,37.2,83.1c0.1-0.1,0-0.2,0-0.2S37.1,82.9,37.2,83.1
			C37.1,83,37.1,83.1,37.2,83.1z"/>
		<path class="st34" d="M36.6,80.8C36.6,80.8,36.7,80.7,36.6,80.8c0.1-0.1,0-0.2,0-0.2S36.5,80.6,36.6,80.8
			C36.5,80.7,36.5,80.8,36.6,80.8z"/>
		<path class="st34" d="M37.4,81.6C37.4,81.6,37.5,81.6,37.4,81.6c0.1-0.1,0-0.2,0-0.2S37.3,81.5,37.4,81.6
			C37.3,81.6,37.3,81.6,37.4,81.6z"/>
		<path class="st34" d="M36.4,81.6C36.4,81.6,36.5,81.6,36.4,81.6c0.1-0.1,0-0.2,0-0.2S36.3,81.5,36.4,81.6
			C36.3,81.6,36.4,81.6,36.4,81.6z"/>
		<path class="st34" d="M37.7,87.4C37.7,87.4,37.8,87.3,37.7,87.4c0.1-0.1,0-0.2,0-0.2S37.6,87.3,37.7,87.4
			C37.6,87.3,37.6,87.4,37.7,87.4z"/>
		<path class="st34" d="M37,86.7C37,86.7,37.1,86.7,37,86.7c0.1-0.1,0-0.2,0-0.2S36.9,86.6,37,86.7C36.9,86.7,37,86.7,37,86.7z"/>
		<path class="st34" d="M38.2,85.8C38.2,85.8,38.3,85.8,38.2,85.8c0.1-0.1,0-0.2,0-0.2S38.2,85.7,38.2,85.8L38.2,85.8z"/>
		<path class="st34" d="M37.6,86.5C37.6,86.5,37.7,86.4,37.6,86.5c0.1-0.1,0-0.2,0-0.2S37.5,86.3,37.6,86.5
			C37.5,86.4,37.5,86.5,37.6,86.5z"/>
		<path class="st34" d="M39,86.7C39,86.7,39.1,86.7,39,86.7c0.1-0.1,0-0.2,0-0.2S38.9,86.6,39,86.7C38.9,86.7,39,86.7,39,86.7z"/>
		<path class="st34" d="M38.8,87.3C38.8,87.3,38.9,87.3,38.8,87.3c0.1-0.1,0-0.2,0-0.2S38.7,87.2,38.8,87.3
			C38.7,87.3,38.8,87.3,38.8,87.3z"/>
		<path class="st34" d="M39.7,86.3C39.7,86.3,39.8,86.3,39.7,86.3c0.1-0.1,0-0.2,0-0.2S39.6,86.2,39.7,86.3
			C39.6,86.3,39.7,86.3,39.7,86.3z"/>
		<path class="st34" d="M38.7,86.4C38.7,86.4,38.8,86.3,38.7,86.4c0.1-0.1,0-0.2,0-0.2S38.6,86.3,38.7,86.4
			C38.6,86.3,38.7,86.4,38.7,86.4z"/>
		<path class="st34" d="M36.6,86.5C36.6,86.5,36.7,86.4,36.6,86.5c0.1-0.1,0-0.2,0-0.2S36.5,86.3,36.6,86.5
			C36.5,86.4,36.5,86.5,36.6,86.5z"/>
		<path class="st34" d="M41.2,86.7C41.2,86.7,41.3,86.6,41.2,86.7c0.1-0.1,0-0.2,0-0.2S41.1,86.5,41.2,86.7
			C41.1,86.6,41.1,86.7,41.2,86.7z"/>
		<path class="st34" d="M40,85.1C40,85.1,40.1,85,40,85.1c0.1-0.1,0-0.2,0-0.2S39.9,84.9,40,85.1C39.9,85,40,85.1,40,85.1z"/>
		<path class="st34" d="M39.7,87.3C39.7,87.3,39.8,87.3,39.7,87.3c0.1-0.1,0-0.2,0-0.2S39.6,87.2,39.7,87.3
			C39.6,87.3,39.7,87.3,39.7,87.3z"/>
		<path class="st34" d="M41.1,85.8C41.1,85.8,41.2,85.7,41.1,85.8c0.1-0.1,0-0.2,0-0.2S41,85.6,41.1,85.8C41,85.7,41,85.8,41.1,85.8
			z"/>
		<path class="st34" d="M39.1,84.8C39.1,84.8,39.2,84.7,39.1,84.8c0.1-0.1,0-0.2,0-0.2S39,84.6,39.1,84.8
			C39,84.7,39.1,84.8,39.1,84.8z"/>
		<path class="st34" d="M43.3,82.9L43.3,82.9c0.1-0.1,0-0.2,0-0.2S43.2,82.8,43.3,82.9C43.2,82.9,43.2,82.9,43.3,82.9z"/>
		<path class="st34" d="M36.3,87.3C36.3,87.3,36.4,87.3,36.3,87.3c0.1-0.1,0-0.2,0-0.2S36.2,87.2,36.3,87.3
			C36.2,87.3,36.3,87.3,36.3,87.3z"/>
		<path class="st34" d="M43.9,84.1C43.9,84.1,44,84.1,43.9,84.1c0.1-0.1,0-0.2,0-0.2S43.8,84,43.9,84.1
			C43.8,84.1,43.9,84.1,43.9,84.1z"/>
		<path class="st34" d="M41.6,84.1C41.6,84.1,41.7,84.1,41.6,84.1c0.1-0.1,0-0.2,0-0.2S41.5,84,41.6,84.1
			C41.5,84.1,41.6,84.1,41.6,84.1z"/>
		<path class="st34" d="M41.7,85.3C41.7,85.3,41.8,85.3,41.7,85.3c0.1-0.1,0-0.2,0-0.2S41.6,85.2,41.7,85.3
			C41.6,85.3,41.6,85.3,41.7,85.3z"/>
		<path class="st34" d="M38.8,80.7C38.8,80.7,38.8,80.6,38.8,80.7c0.1-0.1,0-0.2,0-0.2S38.7,80.5,38.8,80.7
			C38.7,80.6,38.7,80.7,38.8,80.7z"/>
		<path class="st34" d="M36,86.1C36,86.1,36.1,86.1,36,86.1c0.1-0.1,0-0.2,0-0.2S35.9,86,36,86.1C35.9,86.1,36,86.1,36,86.1z"/>
		<path class="st34" d="M36.9,79.1C36.9,79.1,37,79.1,36.9,79.1c0.1-0.1,0-0.2,0-0.2S36.8,79,36.9,79.1
			C36.8,79.1,36.8,79.1,36.9,79.1z"/>
		<path class="st34" d="M36.8,82C36.8,82,36.9,81.9,36.8,82c0.1-0.1,0-0.2,0-0.2S36.7,81.8,36.8,82C36.7,81.9,36.7,82,36.8,82z"/>
		<path class="st34" d="M120.6,75.2C120.7,75.2,120.7,75.2,120.6,75.2c0.1-0.1,0-0.2,0-0.2S120.5,75.1,120.6,75.2
			C120.5,75.2,120.6,75.2,120.6,75.2z"/>
		<path class="st34" d="M121.2,74.6C121.2,74.6,121.3,74.5,121.2,74.6c0.1-0.1,0-0.2,0-0.2S121.1,74.5,121.2,74.6
			C121.1,74.5,121.1,74.6,121.2,74.6z"/>
		<path class="st34" d="M121.7,73.1C121.7,73.1,121.8,73.1,121.7,73.1c0.1-0.1,0-0.2,0-0.2S121.6,73,121.7,73.1
			C121.6,73.1,121.7,73.1,121.7,73.1z"/>
		<path class="st34" d="M123.5,72C123.5,72,123.6,71.9,123.5,72c0.1-0.1,0-0.2,0-0.2S123.4,71.8,123.5,72
			C123.4,71.9,123.5,72,123.5,72z"/>
		<path class="st34" d="M127.2,74C127.2,74,127.3,74,127.2,74c0.1-0.1,0-0.2,0-0.2S127.1,73.9,127.2,74C127.1,74,127.2,74,127.2,74z
			"/>
		<path class="st34" d="M121,72.1C121.1,72.1,121.1,72.1,121,72.1c0.1-0.1,0-0.2,0-0.2S120.9,72,121,72.1
			C120.9,72.1,121,72.1,121,72.1z"/>
		<path class="st34" d="M121.5,75.1C121.5,75.1,121.6,75.1,121.5,75.1c0.1-0.1,0-0.2,0-0.2S121.5,75,121.5,75.1L121.5,75.1z"/>
		<path class="st34" d="M123.7,73C123.8,73,123.8,73,123.7,73c0.1-0.1,0-0.2,0-0.2S123.6,72.9,123.7,73C123.6,73,123.7,73,123.7,73z
			"/>
		<path class="st34" d="M122.4,72.4C122.4,72.4,122.5,72.4,122.4,72.4c0.1-0.1,0-0.2,0-0.2S122.3,72.3,122.4,72.4
			C122.3,72.4,122.4,72.4,122.4,72.4z"/>
		<path class="st34" d="M127.6,74.9C127.6,74.9,127.7,74.8,127.6,74.9c0.1-0.1,0-0.2,0-0.2S127.5,74.8,127.6,74.9
			C127.5,74.8,127.6,74.9,127.6,74.9z"/>
		<path class="st34" d="M124.6,75.2C124.6,75.2,124.7,75.2,124.6,75.2c0.1-0.1,0-0.2,0-0.2S124.5,75.1,124.6,75.2
			C124.5,75.2,124.6,75.2,124.6,75.2z"/>
		<path class="st34" d="M126.5,75C126.5,75,126.6,75,126.5,75c0.1-0.1,0-0.2,0-0.2S126.4,74.9,126.5,75C126.4,75,126.5,75,126.5,75z
			"/>
		<path class="st34" d="M126.1,73.1C126.1,73.1,126.2,73.1,126.1,73.1c0.1-0.1,0-0.2,0-0.2S126,73,126.1,73.1
			C126,73.1,126,73.1,126.1,73.1z"/>
		<path class="st34" d="M127.4,74.2C127.5,74.2,127.5,74.2,127.4,74.2c0.1-0.1,0-0.2,0-0.2S127.3,74.1,127.4,74.2
			C127.3,74.2,127.4,74.2,127.4,74.2z"/>
		<path class="st34" d="M124.5,72.8C124.6,72.8,124.6,72.8,124.5,72.8c0.1-0.1,0-0.2,0-0.2S124.4,72.7,124.5,72.8
			C124.4,72.8,124.5,72.8,124.5,72.8z"/>
		<path class="st34" d="M126.3,74.3C126.3,74.3,126.4,74.3,126.3,74.3c0.1-0.1,0-0.2,0-0.2S126.2,74.2,126.3,74.3
			C126.2,74.3,126.3,74.3,126.3,74.3z"/>
		<path class="st34" d="M127.1,75L127.1,75c0.1-0.1,0-0.2,0-0.2S127,74.9,127.1,75C127,75,127,75,127.1,75z"/>
		<path class="st34" d="M123.1,74.5C123.1,74.5,123.2,74.5,123.1,74.5c0.1-0.1,0-0.2,0-0.2S123,74.4,123.1,74.5
			C123,74.5,123,74.5,123.1,74.5z"/>
		<path class="st34" d="M125.5,72.9C125.6,72.9,125.6,72.8,125.5,72.9c0.1-0.1,0-0.2,0-0.2S125.4,72.8,125.5,72.9
			C125.4,72.8,125.5,72.9,125.5,72.9z"/>
		<path class="st34" d="M125.2,73.9L125.2,73.9c0.1-0.1,0-0.2,0-0.2S125.1,73.8,125.2,73.9C125.1,73.9,125.1,73.9,125.2,73.9z"/>
		<path class="st34" d="M125.7,74.9C125.7,74.9,125.8,74.8,125.7,74.9c0.1-0.1,0-0.2,0-0.2S125.6,74.8,125.7,74.9
			C125.6,74.8,125.6,74.9,125.7,74.9z"/>
		<path class="st34" d="M126.3,73.9C126.3,73.9,126.4,73.9,126.3,73.9c0.1-0.1,0-0.2,0-0.2S126.2,73.8,126.3,73.9
			C126.2,73.9,126.3,73.9,126.3,73.9z"/>
		<path class="st34" d="M125.1,73C125.1,73,125.2,73,125.1,73c0.1-0.1,0-0.2,0-0.2S125,72.9,125.1,73C125,73,125.1,73,125.1,73z"/>
		<path class="st34" d="M124.4,73.7C124.4,73.7,124.5,73.7,124.4,73.7c0.1-0.1,0-0.2,0-0.2S124.3,73.6,124.4,73.7
			C124.3,73.7,124.3,73.7,124.4,73.7z"/>
		<path class="st34" d="M127.1,73.3C127.1,73.3,127.2,73.3,127.1,73.3c0.1-0.1,0-0.2,0-0.2S127.1,73.2,127.1,73.3L127.1,73.3z"/>
		<path class="st34" d="M125.8,72.4C125.8,72.4,125.8,72.3,125.8,72.4c0.1-0.1,0-0.2,0-0.2S125.7,72.2,125.8,72.4
			C125.7,72.3,125.7,72.4,125.8,72.4z"/>
		<path class="st34" d="M124.2,72.1C124.2,72.1,124.3,72,124.2,72.1c0.1-0.1,0-0.2,0-0.2S124.1,71.9,124.2,72.1
			C124.1,72,124.2,72.1,124.2,72.1z"/>
		<path class="st34" d="M125.2,72.1C125.3,72.1,125.3,72.1,125.2,72.1c0.1-0.1,0-0.2,0-0.2S125.1,72,125.2,72.1
			C125.1,72.1,125.2,72.1,125.2,72.1z"/>
		<path class="st34" d="M126.2,72.1C126.2,72.1,126.3,72.1,126.2,72.1c0.1-0.1,0-0.2,0-0.2S126.1,72,126.2,72.1
			C126.1,72.1,126.2,72.1,126.2,72.1z"/>
		<path class="st34" d="M127.8,73.3L127.8,73.3c0.1-0.1,0-0.2,0-0.2S127.7,73.2,127.8,73.3C127.7,73.3,127.7,73.3,127.8,73.3z"/>
		<path class="st34" d="M127.4,72.6C127.5,72.6,127.5,72.6,127.4,72.6c0.1-0.1,0-0.2,0-0.2S127.3,72.5,127.4,72.6
			C127.3,72.6,127.4,72.6,127.4,72.6z"/>
		<path class="st34" d="M127.6,72.1C127.6,72.1,127.7,72,127.6,72.1c0.1-0.1,0-0.2,0-0.2S127.5,71.9,127.6,72.1
			C127.5,72,127.6,72.1,127.6,72.1z"/>
		<path class="st34" d="M126.7,72.9C126.7,72.9,126.8,72.8,126.7,72.9c0.1-0.1,0-0.2,0-0.2S126.6,72.8,126.7,72.9
			C126.6,72.8,126.7,72.9,126.7,72.9z"/>
		<path class="st34" d="M125.7,75.6C125.7,75.6,125.8,75.6,125.7,75.6c0.1-0.1,0-0.2,0-0.2S125.6,75.5,125.7,75.6
			C125.6,75.6,125.6,75.6,125.7,75.6z"/>
		<path class="st34" d="M127.3,75.5C127.3,75.5,127.4,75.4,127.3,75.5c0.1-0.1,0-0.2,0-0.2S127.2,75.4,127.3,75.5
			C127.2,75.4,127.3,75.5,127.3,75.5z"/>
		<path class="st34" d="M123.8,73.7C123.9,73.7,123.9,73.7,123.8,73.7c0.1-0.1,0-0.2,0-0.2S123.7,73.6,123.8,73.7
			C123.7,73.7,123.8,73.7,123.8,73.7z"/>
		<path class="st34" d="M126.6,75.6L126.6,75.6c0.1-0.1,0-0.2,0-0.2S126.5,75.5,126.6,75.6C126.5,75.6,126.5,75.6,126.6,75.6z"/>
		<path class="st34" d="M127.3,75.8C127.3,75.8,127.4,75.8,127.3,75.8c0.1-0.1,0-0.2,0-0.2S127.2,75.7,127.3,75.8
			C127.2,75.8,127.3,75.8,127.3,75.8z"/>
		<path class="st34" d="M123.9,74.9C123.9,74.9,124,74.8,123.9,74.9c0.1-0.1,0-0.2,0-0.2S123.8,74.8,123.9,74.9
			C123.8,74.8,123.8,74.9,123.9,74.9z"/>
		<path class="st34" d="M123.2,75.2C123.2,75.2,123.3,75.2,123.2,75.2c0.1-0.1,0-0.2,0-0.2S123.2,75.1,123.2,75.2L123.2,75.2z"/>
		<path class="st34" d="M124.8,74.6C124.9,74.6,124.9,74.5,124.8,74.6c0.1-0.1,0-0.2,0-0.2S124.7,74.5,124.8,74.6
			C124.7,74.5,124.8,74.6,124.8,74.6z"/>
		<path class="st34" d="M120.7,72.7C120.7,72.7,120.8,72.7,120.7,72.7c0.1-0.1,0-0.2,0-0.2S120.6,72.6,120.7,72.7
			C120.6,72.7,120.6,72.7,120.7,72.7z"/>
		<path class="st34" d="M120.7,73.8C120.7,73.8,120.8,73.8,120.7,73.8c0.1-0.1,0-0.2,0-0.2S120.6,73.7,120.7,73.8
			C120.6,73.8,120.6,73.8,120.7,73.8z"/>
		<path class="st34" d="M122.3,73.9C122.3,73.9,122.4,73.9,122.3,73.9c0.1-0.1,0-0.2,0-0.2S122.2,73.8,122.3,73.9
			C122.2,73.9,122.3,73.9,122.3,73.9z"/>
		<path class="st34" d="M122.2,75.1C122.2,75.1,122.3,75.1,122.2,75.1c0.1-0.1,0-0.2,0-0.2S122.1,75,122.2,75.1
			C122.1,75.1,122.2,75.1,122.2,75.1z"/>
		<path class="st34" d="M127.6,76.1C127.6,76.1,127.7,76,127.6,76.1c0.1-0.1,0-0.2,0-0.2S127.5,76,127.6,76.1
			C127.5,76,127.6,76.1,127.6,76.1z"/>
		<path class="st34" d="M126.8,72.1C126.9,72.1,126.9,72,126.8,72.1c0.1-0.1,0-0.2,0-0.2S126.8,71.9,126.8,72.1
			C126.8,72,126.8,72.1,126.8,72.1z"/>
		<path class="st14" d="M50.1,58.4c1.7,0,3-1.3,3-3s-1.3-3-3-3s-3,1.3-3,3S48.4,58.4,50.1,58.4z"/>
		<path class="st14" d="M137.7,43.3c2.5,0,4.6-2.1,4.6-4.6s-2.1-4.6-4.6-4.6s-4.6,2.1-4.6,4.6S135.2,43.3,137.7,43.3z"/>
		<path class="st26" d="M61.7,95C61.7,94.9,61.8,94.9,61.7,95l4.5,0.9c0.1,0,0.1,0.1,0.1,0.1l-0.1,0.1L61.7,95
			C61.7,95.1,61.7,95,61.7,95z"/>
		<path class="st26" d="M61.5,96.5C61.5,96.4,61.6,96.4,61.5,96.5l3.8,0.8c0.1,0,0.1,0.1,0.1,0.1l-0.1,0.1L61.5,96.5
			C61.5,96.6,61.5,96.5,61.5,96.5z"/>
		<path class="st26" d="M62,98.1C62,98,62.1,98,62,98.1l2.5,0.5c0.1,0,0.1,0.1,0.1,0.1l-0.1,0.1L62,98.1C62,98.2,62,98.2,62,98.1z"
			/>
		<path class="st26" d="M98.6,101.7C98.6,101.8,98.6,101.8,98.6,101.7l-4.4,0.7c-0.1,0-0.1,0-0.1-0.1s0-0.1,0.1-0.1L98.6,101.7
			C98.5,101.7,98.6,101.7,98.6,101.7z"/>
		<path class="st26" d="M98.6,103C98.6,103.1,98.6,103.1,98.6,103l-3.8,0.7c0,0-0.1,0-0.1-0.1s0-0.1,0.1-0.1L98.6,103L98.6,103z"/>
		<path class="st26" d="M98.8,104.3C98.8,104.3,98.8,104.4,98.8,104.3l-2.7,0.6c0,0-0.1,0-0.1-0.1s0-0.1,0.1-0.1L98.8,104.3
			C98.7,104.2,98.8,104.2,98.8,104.3z"/>
		<path class="st32" d="M64,107.3C64,107.3,64,107.4,64,107.3l-11.1,3.5c0,0-0.1,0-0.1-0.1s0-0.1,0.1-0.1L64,107.3
			C63.8,107.2,63.9,107.2,64,107.3z"/>
		<path class="st32" d="M64.3,108.4C64.3,108.5,64.3,108.5,64.3,108.4l-11,3.5c0,0-0.1,0-0.1-0.1s0-0.1,0.1-0.1L64.3,108.4
			C64.1,108.3,64.2,108.3,64.3,108.4L64.3,108.4z"/>
		<path class="st32" d="M101,107.1L101,107.1c0.2-0.1,0.3,0.1,0.3,0.2s0,0.2,0,0.4l0,0c0,0.1,0,0.2,0,0.3c0,0.1,0.1,0.1,0.1,0.1
			s0.1,0,0.2-0.1s0.1-0.2,0.2-0.2l0,0c0.1-0.1,0.2-0.2,0.2-0.3c0.1-0.1,0.2-0.1,0.3-0.1c0.1,0,0.2,0.2,0.2,0.3c0,0.1,0,0.2,0,0.4
			l0,0c0,0.1,0,0.2,0,0.3s0.1,0.1,0.1,0.1s0.1,0,0.2-0.1s0.1-0.2,0.2-0.2l0,0c0.1-0.1,0.2-0.2,0.2-0.3c0.1-0.1,0.2-0.1,0.3-0.1
			c0.1,0,0.2,0.2,0.2,0.3c0,0.1,0,0.2,0,0.4l0,0c0,0.1,0,0.2,0,0.3s0.1,0.1,0.1,0.1s0.1,0,0.2-0.1s0.1-0.2,0.2-0.3l0,0
			c0.1-0.1,0.2-0.2,0.2-0.3s0.2-0.1,0.3-0.1c0.1,0,0.2,0.2,0.2,0.3c0,0.1,0,0.2,0,0.4l0,0c0,0.1,0,0.2,0,0.3s0.1,0.1,0.1,0.1
			s0.1,0,0.2-0.1s0.1-0.2,0.2-0.3l0,0c0.1-0.1,0.2-0.2,0.2-0.3c0.1-0.1,0.2-0.1,0.3-0.1c0.1,0,0.2,0.2,0.2,0.3s0,0.2,0,0.4l0,0
			c0,0.1,0,0.2,0,0.3s0.1,0.1,0.1,0.1s0.1,0,0.2-0.1s0.1-0.2,0.2-0.2l0,0c0.1-0.1,0.2-0.2,0.2-0.3c0.1-0.1,0.2-0.1,0.3-0.1
			s0.2,0.2,0.2,0.3c0,0.1,0,0.2,0,0.4l0,0c0,0.1,0,0.2,0,0.3s0.1,0.1,0.1,0.1s0.1,0,0.2-0.1s0.1-0.2,0.2-0.3l0,0
			c0.1-0.1,0.2-0.2,0.2-0.3s0.2-0.1,0.3-0.1c0.1,0,0.2,0.2,0.2,0.3s0,0.2,0,0.4l0,0c0,0.1,0,0.2,0,0.3s0.1,0.1,0.1,0.1
			s0.1,0,0.2-0.1s0.1-0.2,0.2-0.3l0,0c0.1-0.1,0.2-0.2,0.2-0.3c0.1-0.1,0.2-0.1,0.3-0.1c0.1,0,0.2,0.2,0.2,0.3s0,0.2,0,0.4l0,0
			c0,0.1,0,0.2,0,0.3s0.1,0.1,0.1,0.1s0.1,0,0.2-0.1s0.1-0.2,0.2-0.3l0,0c0.1-0.1,0.2-0.2,0.2-0.3s0.2-0.1,0.3-0.1
			c0.1,0,0.2,0.2,0.2,0.3c0,0.1,0,0.2,0,0.4l0,0c0,0.1,0,0.2,0,0.3s0.1,0.1,0.1,0.1s0.1,0,0.2-0.1s0.1-0.2,0.2-0.2l0,0
			c0.1-0.1,0.2-0.2,0.2-0.3c0.1-0.1,0.2-0.1,0.3-0.1c0.1,0,0.1,0.1,0.1,0.1c0,0.1-0.1,0.1-0.1,0.1s-0.1,0-0.2,0.1s-0.1,0.2-0.2,0.3
			l0,0c-0.1,0.1-0.2,0.2-0.2,0.3s-0.2,0.1-0.3,0.1s-0.2-0.2-0.2-0.3c0-0.1,0-0.2,0-0.4l0,0c0-0.1,0-0.2,0-0.3s-0.1-0.1-0.1-0.1
			s-0.1,0-0.2,0.1s-0.1,0.2-0.2,0.3l0,0c-0.1,0.1-0.2,0.2-0.2,0.3c-0.1,0.1-0.2,0.1-0.3,0.1c-0.1,0-0.2-0.2-0.2-0.3
			c0-0.1,0-0.2,0-0.4l0,0c0-0.1,0-0.2,0-0.3s-0.1-0.1-0.1-0.1s-0.1,0-0.2,0.1s-0.1,0.2-0.2,0.3l0,0c-0.1,0.1-0.2,0.2-0.2,0.3
			c-0.1,0.1-0.2,0.1-0.3,0.1c-0.1,0-0.2-0.2-0.2-0.3c0-0.1,0-0.2,0-0.4l0,0c0-0.1,0-0.2,0-0.3s-0.1-0.1-0.1-0.1s-0.1,0-0.2,0.1
			s-0.1,0.2-0.2,0.2l0,0c-0.1,0.1-0.2,0.2-0.2,0.3c-0.1,0.1-0.2,0.1-0.3,0.1s-0.2-0.2-0.2-0.3c0-0.1,0-0.2,0-0.4l0,0
			c0-0.1,0-0.2,0-0.3s-0.1-0.1-0.1-0.1s-0.1,0-0.2,0.1s-0.1,0.2-0.2,0.3l0,0c-0.1,0.1-0.2,0.2-0.2,0.3c-0.1,0.1-0.2,0.1-0.3,0.1
			c-0.1,0-0.2-0.2-0.2-0.3s0-0.2,0-0.4l0,0c0-0.1,0-0.2,0-0.3s-0.1-0.1-0.1-0.1v-0.1v0.1c0,0-0.1,0-0.2,0.1s-0.1,0.2-0.2,0.2l0,0
			c-0.1,0.1-0.2,0.2-0.2,0.3c-0.1,0.1-0.2,0.1-0.3,0.1c-0.1,0-0.2-0.2-0.2-0.3c0-0.1,0-0.2,0-0.4l0,0c0-0.1,0-0.2,0-0.3
			s-0.1-0.1-0.1-0.1v-0.1v0.1c0,0-0.1,0-0.2,0.1s-0.1,0.2-0.2,0.2l0,0c-0.1,0.1-0.2,0.2-0.2,0.3s-0.2,0.1-0.3,0.1s-0.2-0.2-0.2-0.3
			c0-0.1,0-0.2,0-0.4l0,0c0-0.1,0-0.2,0-0.3s-0.1-0.1-0.1-0.1L101,107.1L101,107.1z M101,107.1C101,107.1,101,107.2,101,107.1
			L101,107.1z M101,107.2C101,107.2,101.1,107.2,101,107.2L101,107.2z M101.1,107.4c0,0.1,0,0.2,0,0.3V107.4z M101.1,107.7
			L101.1,107.7L101.1,107.7z M101.1,107.7c0,0.1,0,0.2,0,0.4V107.7z M101.2,108.1c0,0.1,0.1,0.2,0.2,0.3L101.2,108.1z M101.4,108.3
			c0.1,0,0.2,0,0.3-0.1L101.4,108.3z M101.7,108.2c0.1-0.1,0.2-0.2,0.2-0.3L101.7,108.2z M102,108L102,108L102,108z M102,108
			c0.1-0.1,0.2-0.2,0.2-0.3L102,108z M102.2,107.7c0.1-0.1,0.1-0.1,0.2-0.1L102.2,107.7z"/>
		<path class="st35" d="M118.8,54.6c0.1,0,0.2,0.1,0.2,0.2s0,0.2-0.1,0.2c0,0-0.1,0-0.1,0.1c-0.1,0.1-0.1,0.2-0.1,0.3l0,0
			c-0.1,0.1-0.1,0.3-0.2,0.4c-0.1,0.1-0.2,0.2-0.4,0.2c-0.2,0-0.3-0.1-0.4-0.2c-0.1-0.1-0.1-0.2-0.2-0.4l0,0
			c-0.1-0.1-0.1-0.2-0.2-0.3s-0.1-0.1-0.1-0.1s0,0-0.1,0.1s-0.1,0.2-0.1,0.3l0,0c-0.1,0.1-0.1,0.3-0.2,0.4c-0.1,0.1-0.2,0.2-0.4,0.2
			c-0.2,0-0.3-0.1-0.4-0.2c-0.1-0.1-0.1-0.2-0.2-0.4l0,0c-0.1-0.1-0.1-0.2-0.2-0.3s-0.1-0.1-0.1-0.1s-0.1,0-0.1,0.1
			c-0.1,0.1-0.1,0.2-0.1,0.3l0,0c-0.1,0.1-0.1,0.3-0.2,0.4c-0.1,0.1-0.2,0.2-0.4,0.2c-0.2,0-0.3-0.1-0.4-0.2
			c-0.1-0.1-0.1-0.2-0.2-0.4l0,0c-0.1-0.1-0.1-0.2-0.2-0.3s-0.1-0.1-0.1-0.1s-0.1,0-0.1,0.1c-0.1,0.1-0.1,0.2-0.1,0.3l0,0
			c-0.1,0.1-0.1,0.3-0.2,0.4c-0.1,0.1-0.2,0.2-0.4,0.2c-0.2,0-0.3-0.1-0.4-0.2c-0.1-0.1-0.1-0.2-0.2-0.4l0,0
			c-0.1-0.1-0.1-0.2-0.2-0.3s-0.1-0.1-0.1-0.1s0,0-0.1,0.1s-0.1,0.2-0.1,0.3l0,0c-0.1,0.1-0.1,0.3-0.2,0.4c-0.1,0.1-0.2,0.2-0.4,0.2
			c-0.2,0-0.3-0.1-0.4-0.2c-0.1-0.1-0.1-0.2-0.2-0.4l0,0c-0.1-0.1-0.1-0.2-0.2-0.3s-0.1-0.1-0.1-0.1s-0.1,0-0.1,0.1
			c-0.1,0.1-0.1,0.2-0.1,0.3l0,0c-0.1,0.1-0.1,0.3-0.2,0.4c-0.1,0.1-0.2,0.2-0.4,0.2c-0.2,0-0.3-0.1-0.4-0.2
			c-0.1-0.1-0.1-0.2-0.2-0.4l0,0c-0.1-0.1-0.1-0.2-0.2-0.3s-0.1-0.1-0.1-0.1s0,0-0.1,0.1s-0.1,0.2-0.1,0.3l0,0
			c-0.1,0.1-0.1,0.3-0.2,0.4c-0.1,0.1-0.2,0.2-0.4,0.2c-0.2,0-0.3-0.1-0.4-0.2c-0.1-0.1-0.1-0.2-0.2-0.4l0,0
			c-0.1-0.1-0.1-0.2-0.2-0.3S107,55,107,55s0,0-0.1,0.1s-0.1,0.2-0.1,0.3l0,0c-0.1,0.1-0.1,0.3-0.2,0.4c-0.1,0.1-0.2,0.2-0.4,0.2
			c-0.2,0-0.3-0.1-0.4-0.2c-0.1-0.1-0.1-0.2-0.2-0.4l0,0c-0.1-0.1-0.1-0.2-0.2-0.3s-0.1-0.1-0.1-0.1s-0.1,0-0.1,0.1
			c-0.1,0.1-0.1,0.2-0.1,0.3l0,0c-0.1,0.1-0.1,0.3-0.2,0.4c-0.1,0.1-0.2,0.2-0.4,0.2c-0.2,0-0.3-0.1-0.4-0.2
			c-0.1-0.1-0.1-0.2-0.2-0.4l0,0c-0.1-0.1-0.1-0.2-0.2-0.3s-0.1-0.1-0.1-0.1c-0.1,0-0.2-0.1-0.2-0.2s0.1-0.2,0.2-0.2
			c0.2,0,0.3,0.1,0.4,0.2c0.1,0.1,0.1,0.2,0.2,0.4l0,0c0.1,0.1,0.1,0.2,0.2,0.3s0.1,0.1,0.1,0.1s0,0,0.1-0.1s0.1-0.2,0.1-0.3l0,0
			c0.1-0.1,0.1-0.3,0.2-0.4c0.1-0.1,0.2-0.2,0.4-0.2c0.2,0,0.3,0.1,0.4,0.2c0.1,0.1,0.1,0.2,0.2,0.4l0,0c0.1,0.1,0.1,0.2,0.2,0.3
			s0.1,0.1,0.1,0.1s0.1,0,0.1-0.1c0.1-0.1,0.1-0.2,0.1-0.3l0,0c0.1-0.1,0.1-0.3,0.2-0.4c0.1-0.1,0.2-0.2,0.4-0.2v0.2v-0.2
			c0.2,0,0.3,0.1,0.4,0.2c0.1,0.1,0.1,0.2,0.2,0.4l0,0c0.1,0.1,0.1,0.2,0.2,0.3s0.1,0.1,0.1,0.1s0,0,0.1-0.1s0.1-0.2,0.1-0.3l0,0
			c0.1-0.1,0.1-0.3,0.2-0.4c0.1-0.1,0.2-0.2,0.4-0.2v0.2v-0.2c0.2,0,0.3,0.1,0.4,0.2c0.1,0.1,0.1,0.2,0.2,0.4l0,0
			c0.1,0.1,0.1,0.2,0.2,0.3s0.1,0.1,0.1,0.1s0,0,0.1-0.1s0.1-0.2,0.1-0.3l0,0c0.1-0.1,0.1-0.3,0.2-0.4c0.1-0.1,0.2-0.2,0.4-0.2
			c0.2,0,0.3,0.1,0.4,0.2c0.1,0.1,0.1,0.2,0.2,0.4l0,0c0.1,0.1,0.1,0.2,0.2,0.3s0.1,0.1,0.1,0.1s0.1,0,0.1-0.1
			c0.1-0.1,0.1-0.2,0.1-0.3l0,0c0.1-0.1,0.1-0.3,0.2-0.4c0.1-0.1,0.2-0.2,0.4-0.2c0.2,0,0.3,0.1,0.4,0.2c0.1,0.1,0.1,0.2,0.2,0.4
			l0,0c0.1,0.1,0.1,0.2,0.2,0.3s0.1,0.1,0.1,0.1s0.1,0,0.1-0.1c0.1-0.1,0.1-0.2,0.1-0.3l0,0c0.1-0.1,0.1-0.3,0.2-0.4
			c0.1-0.1,0.2-0.2,0.4-0.2c0.2,0,0.3,0.1,0.4,0.2c0.1,0.1,0.1,0.2,0.2,0.4l0,0c0.1,0.1,0.1,0.2,0.2,0.3s0.1,0.1,0.1,0.1
			s0,0,0.1-0.1s0.1-0.2,0.1-0.3l0,0c0.1-0.1,0.1-0.3,0.2-0.4c0.1-0.1,0.2-0.2,0.4-0.2c0.2,0,0.3,0.1,0.4,0.2
			c0.1,0.1,0.1,0.2,0.2,0.4l0,0c0.1,0.1,0.1,0.2,0.2,0.3s0.1,0.1,0.1,0.1s0.1,0,0.1-0.1c0.1-0.1,0.1-0.2,0.1-0.3l0,0
			c0.1-0.1,0.1-0.3,0.2-0.4c0.1-0.1,0.2-0.2,0.4-0.2v0.2v-0.2c0.2,0,0.3,0.1,0.4,0.2c0.1,0.1,0.1,0.2,0.2,0.4l0,0
			c0.1,0.1,0.1,0.2,0.2,0.3s0.1,0.1,0.1,0.1s0.1,0,0.1-0.1c0.1-0.1,0.1-0.2,0.1-0.3l0,0c0.1-0.1,0.1-0.3,0.2-0.4
			C118.5,54.8,118.6,54.7,118.8,54.6L118.8,54.6z"/>
		<path class="st4" d="M92.9,37.8c0.1-0.1,0.2-0.1,0.3,0l2.2,1.7c0.1,0.1,0.1,0.2,0,0.3s-0.2,0.1-0.3,0L92.9,38
			C92.8,37.9,92.8,37.8,92.9,37.8z"/>
		<path class="st4" d="M95.1,37.4c0.1,0.1,0.1,0.2,0,0.3l-1.7,2.2c-0.1,0.1-0.2,0.1-0.3,0c-0.1-0.1-0.1-0.2,0-0.3l1.7-2.2
			C94.9,37.4,95,37.4,95.1,37.4z"/>
		<path class="st4" d="M25,55.6h0.1l2.2,1.7v0.1h-0.1L25,55.7C25,55.7,24.9,55.6,25,55.6z"/>
		<path class="st4" d="M27.1,55.3L27.1,55.3l-1.7,2.3h-0.1v-0.1l1.7-2.2C26.9,55.3,27,55.3,27.1,55.3z"/>
		<path d="M134.9,136.9h-105c-1.4,0-2.5,1.1-2.5,2.5s1.1,2.5,2.5,2.5h105c1.4,0,2.5-1.1,2.5-2.5S136.3,136.9,134.9,136.9z"/>
		<path d="M110.9,153.9h-57c-1.4,0-2.5,1.1-2.5,2.5s1.1,2.5,2.5,2.5h57c1.4,0,2.5-1.1,2.5-2.5S112.3,153.9,110.9,153.9z"/>
		<path d="M132.4,170.9h-100c-0.8,0-1.5,0.7-1.5,1.5s0.7,1.5,1.5,1.5h100c0.8,0,1.5-0.7,1.5-1.5S133.3,170.9,132.4,170.9z"/>
		<path d="M79,196.9c0-6.1-4.9-10.9-10.9-10.9s-11,4.9-11,10.9s4.9,10.9,11,10.9S79,202.9,79,196.9z"/>
		<path d="M107.8,196.9c0-6.1-4.9-10.9-10.9-10.9S86,190.9,86,196.9s4.9,10.9,10.9,10.9S107.8,202.9,107.8,196.9z"/>
		<path d="M188.9,65.2c6.1,0,10.9-4.9,10.9-11s-4.9-11-10.9-11s-10.9,4.9-10.9,11S182.9,65.2,188.9,65.2z"/>
		<path d="M328.3,59h-113c-0.9,0-1.7,0.8-1.7,1.7s0.8,1.7,1.7,1.7h113c1,0,1.7-0.8,1.7-1.7S329.2,59,328.3,59z"/>
		<path d="M308.2,67.9H215c-0.8,0-1.4,0.6-1.4,1.4s0.6,1.4,1.4,1.4h93.2c0.8,0,1.4-0.6,1.4-1.4S308.9,67.9,308.2,67.9z"/>
		<path d="M278.2,76.2H215c-0.8,0-1.4,0.6-1.4,1.4s0.6,1.4,1.4,1.4h63.2c0.8,0,1.4-0.6,1.4-1.4S278.9,76.2,278.2,76.2z"/>
		<path d="M188.9,139.2c6.1,0,10.9-4.9,10.9-10.9s-4.9-10.9-10.9-10.9s-10.9,4.9-10.9,10.9S182.9,139.2,188.9,139.2z"/>
		<path d="M335.1,128.1H215.3c-0.9,0-1.7,0.8-1.7,1.7s0.8,1.7,1.7,1.7h119.8c0.9,0,1.7-0.8,1.7-1.7S336.1,128.1,335.1,128.1z"/>
		<path d="M287.1,137h-72c-0.8,0-1.5,0.7-1.5,1.5s0.7,1.5,1.5,1.5h72c0.8,0,1.5-0.7,1.5-1.5S287.9,137,287.1,137z"/>
		<path d="M317.1,145.5h-102c-0.8,0-1.5,0.7-1.5,1.5s0.7,1.5,1.5,1.5h102c0.8,0,1.5-0.7,1.5-1.5S317.9,145.5,317.1,145.5z"/>
		<path d="M188.9,209.2c6.1,0,10.9-4.9,10.9-10.9s-4.9-10.9-10.9-10.9s-10.9,4.9-10.9,10.9S182.9,209.2,188.9,209.2z"/>
		<path d="M335.1,197.6H215.3c-0.9,0-1.7,0.8-1.7,1.7s0.8,1.7,1.7,1.7h119.8c0.9,0,1.7-0.8,1.7-1.7S336.1,197.6,335.1,197.6z"/>
		<path class="st36" d="M215.3,198.3h118c0.5,0,1,0.4,1,1l0,0c0,0.6-0.5,1-1,1h-118c-0.6,0-1-0.4-1-1l0,0
			C214.3,198.8,214.8,198.3,215.3,198.3z"/>
		<path d="M308.2,206.6H215c-0.8,0-1.4,0.6-1.4,1.4s0.6,1.4,1.4,1.4h93.2c0.8,0,1.4-0.6,1.4-1.4S308.9,206.6,308.2,206.6z"/>
		<path d="M258.2,214.8H215c-0.8,0-1.4,0.6-1.4,1.4s0.6,1.4,1.4,1.4h43.2c0.8,0,1.4-0.6,1.4-1.4S258.9,214.8,258.2,214.8z"/>
	</g>
	<path class="st17" d="M236.2,52.8v-7.3h2.4c0.6,0,1.2,0.2,1.7,0.4c0.5,0.3,0.9,0.7,1.2,1.2s0.4,1.1,0.4,1.8v0.3
		c0,0.7-0.1,1.3-0.4,1.8c-0.3,0.5-0.7,0.9-1.2,1.2s-1.1,0.5-1.7,0.5L236.2,52.8L236.2,52.8z M238,46.8v4.6h0.6
		c0.5,0,0.9-0.2,1.2-0.5s0.4-0.9,0.4-1.6V49c0-0.7-0.1-1.2-0.4-1.6c-0.3-0.4-0.7-0.5-1.2-0.5H238V46.8z M245.6,52.6
		c-0.8,0-1.5-0.2-2-0.7s-0.8-1.1-0.8-1.9v-0.1c0-0.5,0.1-1,0.3-1.5c0.2-0.4,0.5-0.8,0.9-1s0.9-0.3,1.4-0.3c0.8,0,1.4,0.2,1.8,0.7
		c0.4,0.5,0.7,1.1,0.7,2v0.7h-3.4c0.1,0.3,0.2,0.5,0.4,0.7s0.5,0.3,0.8,0.3c0.5,0,0.9-0.2,1.2-0.6l0.8,0.9c-0.2,0.3-0.5,0.5-0.9,0.7
		C246.4,52.5,246,52.6,245.6,52.6L245.6,52.6z M245.4,48.2c-0.5,0-0.8,0.3-0.9,0.9h1.7V49c0-0.2-0.1-0.4-0.2-0.6
		C245.8,48.2,245.6,48.2,245.4,48.2L245.4,48.2z M250.5,50.5l0.9-3.4h1.8l-1.8,5.4h-1.7l-1.8-5.4h1.8L250.5,50.5L250.5,50.5z
		 M256.3,52.6c-0.8,0-1.5-0.2-2-0.7s-0.8-1.1-0.8-1.9v-0.1c0-0.5,0.1-1,0.3-1.5c0.2-0.4,0.5-0.8,0.9-1s0.9-0.3,1.4-0.3
		c0.8,0,1.4,0.2,1.8,0.7s0.7,1.1,0.7,2v0.7h-3.4c0.1,0.3,0.2,0.5,0.4,0.7s0.5,0.3,0.8,0.3c0.5,0,1-0.2,1.2-0.6l0.8,0.9
		c-0.2,0.3-0.5,0.5-0.9,0.7C257.2,52.5,256.8,52.6,256.3,52.6L256.3,52.6z M261.1,52.5h-1.7v-7.7h1.7V52.5z M261.7,49.7
		c0-0.5,0.1-1,0.3-1.4c0.2-0.4,0.5-0.8,0.9-1s0.9-0.3,1.4-0.3c0.8,0,1.5,0.2,1.9,0.8c0.5,0.5,0.7,1.2,0.7,2v0.1c0,0.8-0.2,1.5-0.7,2
		s-1.1,0.7-1.9,0.7s-1.4-0.2-1.9-0.7s-0.7-1.1-0.8-1.9L261.7,49.7L261.7,49.7z M263.4,49.9c0,0.5,0.1,0.9,0.2,1.1s0.4,0.3,0.7,0.3
		c0.6,0,0.9-0.5,0.9-1.4v-0.2c0-1-0.3-1.5-0.9-1.5s-0.9,0.4-0.9,1.3L263.4,49.9L263.4,49.9z M272.9,49.8c0,0.8-0.2,1.5-0.6,2
		s-0.9,0.8-1.5,0.8c-0.5,0-0.9-0.2-1.2-0.5v2.5h-1.7v-7.5h1.6v0.5c0.3-0.4,0.8-0.6,1.3-0.6c0.7,0,1.2,0.2,1.6,0.7
		S272.9,48.9,272.9,49.8L272.9,49.8L272.9,49.8z M271.8,49.6c0-1-0.3-1.4-0.8-1.4c-0.4,0-0.7,0.1-0.8,0.4v2.1
		c0.1,0.3,0.4,0.5,0.8,0.5c0.5,0,0.8-0.5,0.8-1.4V49.6L271.8,49.6z M275.3,47.1v0.6c0.4-0.5,0.9-0.7,1.5-0.7c0.7,0,1.1,0.3,1.4,0.8
		c0.4-0.5,0.9-0.8,1.6-0.8c1.1,0,1.7,0.7,1.7,2v3.5h-1.7v-3.4c0-0.3,0-0.5-0.1-0.6s-0.3-0.2-0.5-0.2c-0.3,0-0.6,0.2-0.8,0.5v0.1v3.7
		h-1.7v-3.4c0-0.3,0-0.5-0.1-0.6s-0.3-0.2-0.5-0.2c-0.3,0-0.6,0.2-0.7,0.5v3.8h-1.7v-5.4L275.3,47.1L275.3,47.1z M285.1,52.6
		c-0.8,0-1.5-0.2-2-0.7s-0.8-1.1-0.8-1.9v-0.1c0-0.5,0.1-1,0.3-1.5c0.2-0.4,0.5-0.8,0.9-1s0.9-0.3,1.4-0.3c0.8,0,1.4,0.2,1.8,0.7
		s0.7,1.1,0.7,2v0.7H284c0.1,0.3,0.2,0.5,0.4,0.7c0.2,0.2,0.5,0.3,0.8,0.3c0.5,0,1-0.2,1.2-0.6l0.8,0.9c-0.2,0.3-0.5,0.5-0.9,0.7
		C286,52.5,285.6,52.6,285.1,52.6L285.1,52.6z M285.1,48.2c-0.5,0-0.8,0.3-0.9,1h1.7V49c0-0.3-0.1-0.5-0.2-0.6
		C285.5,48.2,285.3,48.2,285.1,48.2L285.1,48.2z M289.7,47.1l0.1,0.6c0.4-0.5,0.9-0.7,1.5-0.7s1,0.2,1.3,0.5s0.4,0.8,0.4,1.5v3.5
		h-1.7v-3.4c0-0.3,0-0.5-0.2-0.6c-0.1-0.1-0.3-0.2-0.6-0.2c-0.3,0-0.6,0.1-0.7,0.4v3.8h-1.7v-5.4L289.7,47.1L289.7,47.1z
		 M295.9,45.7V47h0.9v1.2h-0.9v2.5c0,0.2,0,0.3,0.1,0.4c0.1,0.1,0.2,0.1,0.4,0.1c0.2,0,0.3,0,0.4,0v1.2c-0.3,0.1-0.6,0.2-1,0.2
		c-0.6,0-1-0.1-1.3-0.4s-0.4-0.7-0.4-1.2v-2.7h-0.7v-1.2h0.7v-1.3L295.9,45.7L295.9,45.7z M256.1,48.2c-0.5,0-0.8,0.3-0.9,1h1.7V49
		c0-0.3-0.1-0.5-0.2-0.6C256.6,48.2,256.4,48.2,256.1,48.2L256.1,48.2z M233.6,50.2c0,0.9-0.2,1.6-0.6,2.1c-0.4,0.5-0.9,0.7-1.6,0.7
		c-0.6,0-1-0.2-1.3-0.7l-0.1,0.6h-1.5v-7.7h1.7v2.7c0.3-0.4,0.7-0.5,1.2-0.5c0.7,0,1.2,0.2,1.6,0.7
		C233.4,48.5,233.6,49.2,233.6,50.2L233.6,50.2z M231.9,50.1c0-0.5-0.1-0.9-0.2-1.1c-0.1-0.2-0.3-0.3-0.6-0.3
		c-0.4,0-0.6,0.1-0.8,0.4v2.2c0.1,0.3,0.4,0.4,0.8,0.4c0.4,0,0.7-0.2,0.8-0.6C231.9,50.9,231.9,50.6,231.9,50.1z M225.1,52.9
		c-0.8,0-1.5-0.2-2-0.7s-0.8-1.1-0.8-1.9v-0.1c0-0.5,0.1-1,0.3-1.5c0.2-0.4,0.5-0.8,0.9-1s0.9-0.3,1.4-0.3c0.8,0,1.4,0.2,1.8,0.7
		c0.4,0.5,0.7,1.1,0.7,2v0.7H224c0.1,0.3,0.2,0.5,0.4,0.7s0.5,0.3,0.8,0.3c0.5,0,0.9-0.2,1.2-0.6l0.8,0.9c-0.2,0.3-0.5,0.5-0.9,0.7
		C225.9,52.9,225.5,53,225.1,52.9L225.1,52.9z M224.8,48.5c-0.5,0-0.8,0.3-0.9,0.9h1.7v-0.1c0-0.2-0.1-0.4-0.2-0.6
		C225.3,48.6,225.1,48.5,224.8,48.5L224.8,48.5z"/>
	<path class="st17" d="M218,121.3c-0.1-0.1-0.1-0.3-0.1-0.5c-0.4,0.4-0.8,0.6-1.4,0.6c-0.5,0-1-0.2-1.3-0.5s-0.5-0.7-0.5-1.2
		c0-0.6,0.2-1,0.6-1.3c0.4-0.3,1-0.5,1.9-0.5h0.7v-0.3c0-0.2-0.1-0.4-0.2-0.6c-0.1-0.2-0.3-0.2-0.6-0.2c-0.2,0-0.4,0.1-0.6,0.2
		s-0.2,0.3-0.2,0.5h-1.4c0-0.3,0.1-0.6,0.3-0.9s0.5-0.5,0.8-0.6c0.4-0.2,0.8-0.2,1.2-0.2c0.7,0,1.2,0.2,1.6,0.5
		c0.4,0.3,0.6,0.8,0.6,1.4v2.3c0,0.5,0.1,0.9,0.2,1.2v0.1H218L218,121.3z M216.8,120.3c0.2,0,0.4-0.1,0.6-0.1
		c0.2-0.1,0.3-0.2,0.4-0.4v-0.9h-0.5c-0.7,0-1.1,0.2-1.2,0.8v0.1c0,0.2,0.1,0.3,0.2,0.4S216.6,120.3,216.8,120.3z M221.7,115.9v0.6
		c0.4-0.5,0.9-0.7,1.6-0.7c0.6,0,1,0.2,1.3,0.5s0.4,0.8,0.4,1.5v3.5h-1.4v-3.5c0-0.3-0.1-0.5-0.2-0.7c-0.1-0.1-0.4-0.2-0.7-0.2
		c-0.4,0-0.7,0.2-0.9,0.5v3.8h-1.4v-5.4L221.7,115.9L221.7,115.9z M225.9,118.5c0-0.8,0.2-1.5,0.6-2s0.9-0.8,1.6-0.8
		c0.5,0,1,0.2,1.3,0.6v-2.8h1.4v7.7h-1.3l-0.1-0.6c-0.4,0.4-0.8,0.7-1.4,0.7c-0.6,0-1.1-0.2-1.5-0.8
		C226.1,120.1,225.9,119.4,225.9,118.5z M227.3,118.7c0,0.5,0.1,0.9,0.3,1.2c0.2,0.3,0.4,0.4,0.8,0.4c0.4,0,0.8-0.2,0.9-0.6v-2.1
		c-0.2-0.4-0.5-0.6-0.9-0.6C227.7,117,227.3,117.5,227.3,118.7z M235,117.2c-0.2,0-0.4,0-0.5,0c-0.6,0-0.9,0.2-1.1,0.6v3.6H232V116
		h1.4v0.7c0.3-0.5,0.7-0.8,1.2-0.8c0.2,0,0.3,0,0.4,0.1L235,117.2L235,117.2z M235.2,118.5c0-0.5,0.1-1,0.3-1.4s0.5-0.8,0.9-1
		s0.8-0.3,1.4-0.3c0.7,0,1.3,0.2,1.8,0.7c0.5,0.4,0.7,1.1,0.8,1.8v0.4c0,0.8-0.2,1.5-0.7,2s-1.1,0.8-1.9,0.8s-1.4-0.2-1.9-0.8
		C235.5,120.1,235.2,119.5,235.2,118.5L235.2,118.5L235.2,118.5z M236.7,118.6c0,0.5,0.1,0.9,0.3,1.2c0.2,0.3,0.5,0.4,0.8,0.4
		s0.6-0.1,0.8-0.4s0.3-0.7,0.3-1.3c0-0.5-0.1-0.9-0.3-1.2c-0.2-0.3-0.5-0.4-0.8-0.4s-0.6,0.1-0.8,0.4S236.7,118.1,236.7,118.6
		L236.7,118.6z M242.8,121.3h-1.4v-5.4h1.4V121.3z M241.3,114.5c0-0.2,0.1-0.4,0.2-0.5c0.1-0.1,0.4-0.2,0.6-0.2s0.4,0.1,0.6,0.2
		s0.2,0.3,0.2,0.5s-0.1,0.4-0.2,0.5s-0.3,0.2-0.6,0.2s-0.4-0.1-0.6-0.2S241.3,114.7,241.3,114.5L241.3,114.5z M243.8,118.6
		c0-0.8,0.2-1.5,0.6-2s0.9-0.8,1.6-0.8c0.5,0,1,0.2,1.3,0.6v-2.8h1.4v7.7h-1.3l-0.1-0.6c-0.4,0.4-0.8,0.7-1.4,0.7
		c-0.6,0-1.1-0.2-1.5-0.8C244,120.1,243.8,119.4,243.8,118.6z M245.2,118.7c0,0.5,0.1,0.9,0.3,1.2c0.2,0.3,0.4,0.4,0.8,0.4
		c0.4,0,0.8-0.2,0.9-0.6v-2.1c-0.2-0.4-0.5-0.6-0.9-0.6C245.6,117,245.2,117.5,245.2,118.7z M252.4,121.3V114h2.2
		c0.6,0,1.2,0.2,1.7,0.4c0.5,0.3,0.9,0.7,1.2,1.2c0.3,0.5,0.4,1.1,0.4,1.8v0.3c0,0.7-0.1,1.3-0.4,1.8s-0.7,0.9-1.2,1.2
		c-0.5,0.3-1.1,0.4-1.7,0.4L252.4,121.3L252.4,121.3z M253.9,115.2v4.9h0.7c0.6,0,1-0.2,1.3-0.6c0.3-0.4,0.5-0.9,0.5-1.7v-0.4
		c0-0.7-0.1-1.3-0.5-1.7s-0.8-0.6-1.4-0.6L253.9,115.2L253.9,115.2z M261.5,121.4c-0.8,0-1.4-0.2-2-0.7c-0.5-0.5-0.8-1.1-0.8-1.9
		v-0.1c0-0.5,0.1-1,0.3-1.5c0.2-0.4,0.5-0.8,0.9-1s0.8-0.3,1.3-0.3c0.7,0,1.3,0.2,1.8,0.7c0.4,0.5,0.6,1.1,0.6,2v0.6h-3.5
		c0,0.3,0.2,0.6,0.4,0.8c0.2,0.2,0.5,0.3,0.9,0.3c0.6,0,1-0.2,1.3-0.6l0.7,0.8c-0.2,0.3-0.5,0.6-0.9,0.7S262,121.4,261.5,121.4z
		 M261.4,117c-0.3,0-0.5,0.1-0.7,0.3c-0.2,0.2-0.3,0.5-0.3,0.8h2V118c0-0.3-0.1-0.6-0.3-0.7C261.9,117.1,261.7,117,261.4,117
		L261.4,117z M266.5,119.5l1-3.7h1.5l-1.8,5.4h-1.4l-1.8-5.4h1.5L266.5,119.5L266.5,119.5z M272.1,121.4c-0.8,0-1.4-0.2-1.9-0.7
		s-0.8-1.1-0.8-1.9v-0.1c0-0.5,0.1-1,0.3-1.5c0.2-0.4,0.5-0.8,0.9-1s0.8-0.3,1.3-0.3c0.7,0,1.3,0.2,1.8,0.7c0.4,0.5,0.6,1.1,0.6,2
		v0.6h-3.5c0,0.3,0.2,0.6,0.4,0.8c0.2,0.2,0.5,0.3,0.9,0.3c0.6,0,1-0.2,1.3-0.6l0.7,0.8c-0.2,0.3-0.5,0.6-0.9,0.7
		S272.6,121.4,272.1,121.4L272.1,121.4z M272,117c-0.3,0-0.5,0.1-0.7,0.3c-0.2,0.2-0.3,0.5-0.3,0.8h2V118c0-0.3-0.1-0.6-0.3-0.7
		C272.5,117.1,272.3,117,272,117L272,117z M276.7,121.3h-1.5v-7.7h1.5V121.3z M277.7,118.6c0-0.5,0.1-1,0.3-1.4
		c0.2-0.4,0.5-0.8,0.9-1s0.8-0.3,1.4-0.3c0.7,0,1.3,0.2,1.8,0.7c0.5,0.4,0.7,1.1,0.8,1.8v0.4c0,0.8-0.2,1.5-0.7,2s-1.1,0.8-1.9,0.8
		s-1.4-0.2-1.9-0.8C277.9,120.2,277.7,119.5,277.7,118.6L277.7,118.6L277.7,118.6z M279.1,118.7c0,0.5,0.1,0.9,0.3,1.2
		s0.5,0.4,0.8,0.4s0.6-0.1,0.8-0.4c0.2-0.3,0.3-0.7,0.3-1.3c0-0.5-0.1-0.9-0.3-1.2c-0.2-0.3-0.5-0.4-0.8-0.4s-0.6,0.1-0.8,0.4
		S279.1,118.1,279.1,118.7L279.1,118.7z M288.6,118.7c0,0.8-0.2,1.5-0.6,2s-0.9,0.8-1.5,0.8c-0.5,0-1-0.2-1.3-0.6v2.6h-1.5V116h1.3
		v0.5c0.4-0.4,0.8-0.6,1.4-0.6c0.7,0,1.2,0.2,1.6,0.7S288.6,117.7,288.6,118.7L288.6,118.7L288.6,118.7z M287.2,118.5
		c0-0.5-0.1-0.9-0.3-1.2c-0.2-0.3-0.4-0.4-0.8-0.4c-0.5,0-0.8,0.2-0.9,0.5v2.2c0.2,0.4,0.5,0.5,1,0.5
		C286.8,120.2,287.2,119.7,287.2,118.5L287.2,118.5z M290.9,115.9v0.6c0.4-0.5,0.9-0.7,1.6-0.7s1.2,0.3,1.4,0.8
		c0.4-0.6,0.9-0.8,1.6-0.8c0.6,0,1,0.2,1.3,0.5s0.4,0.9,0.4,1.5v3.5h-1.5v-3.5c0-0.3-0.1-0.5-0.2-0.7s-0.3-0.2-0.6-0.2
		c-0.4,0-0.7,0.2-0.9,0.6v3.7h-1.4v-3.5c0-0.3-0.1-0.5-0.2-0.7c-0.1-0.1-0.3-0.2-0.6-0.2c-0.4,0-0.7,0.2-0.9,0.5v3.8h-1.5v-5.4
		L290.9,115.9L290.9,115.9z M300.9,121.4c-0.8,0-1.4-0.2-2-0.7c-0.5-0.5-0.8-1.1-0.8-1.9v-0.1c0-0.5,0.1-1,0.3-1.5
		c0.2-0.4,0.5-0.8,0.9-1s0.8-0.3,1.3-0.3c0.7,0,1.3,0.2,1.8,0.7c0.4,0.5,0.6,1.1,0.6,2v0.6h-3.5c0,0.3,0.2,0.6,0.4,0.8
		c0.2,0.2,0.5,0.3,0.9,0.3c0.6,0,1-0.2,1.3-0.6l0.7,0.8c-0.2,0.3-0.5,0.6-0.9,0.7S301.3,121.4,300.9,121.4L300.9,121.4z M300.7,117
		c-0.3,0-0.5,0.1-0.7,0.3c-0.2,0.2-0.3,0.5-0.3,0.8h2V118c0-0.3-0.1-0.6-0.3-0.7C301.3,117.1,301,117,300.7,117L300.7,117z
		 M305.3,115.9v0.6c0.4-0.5,0.9-0.7,1.6-0.7c0.6,0,1,0.2,1.3,0.5s0.4,0.8,0.4,1.5v3.5h-1.5v-3.5c0-0.3-0.1-0.5-0.2-0.7
		s-0.4-0.2-0.7-0.2c-0.4,0-0.7,0.2-0.9,0.5v3.8h-1.5v-5.4L305.3,115.9L305.3,115.9z M311.4,114.6v1.3h0.9v1.1h-0.9v2.7
		c0,0.2,0,0.3,0.1,0.4s0.2,0.1,0.4,0.1c0.2,0,0.3,0,0.4,0v1.1c-0.3,0.1-0.6,0.1-0.9,0.1c-1,0-1.5-0.5-1.5-1.5V117h-0.8v-1.1h0.8
		v-1.3C310,114.6,311.4,114.6,311.4,114.6z"/>
	<path class="st17" d="M217.8,179.4c0-0.3-0.1-0.5-0.3-0.6s-0.6-0.3-1.1-0.5s-0.9-0.3-1.2-0.5c-0.8-0.4-1.2-1.1-1.2-1.8
		c0-0.4,0.1-0.8,0.3-1.1s0.5-0.6,1-0.7c0.4-0.2,0.9-0.3,1.4-0.3s1,0.1,1.4,0.3s0.7,0.4,0.9,0.8c0.2,0.3,0.3,0.7,0.3,1.2h-1.5
		c0-0.3-0.1-0.6-0.3-0.8s-0.5-0.3-0.9-0.3s-0.6,0.1-0.9,0.2c-0.2,0.1-0.3,0.4-0.3,0.6c0,0.2,0.1,0.4,0.4,0.6s0.6,0.3,1.1,0.4
		c0.9,0.3,1.5,0.6,1.9,1s0.6,0.9,0.6,1.4c0,0.6-0.2,1.1-0.7,1.5s-1.1,0.5-1.9,0.5c-0.6,0-1.1-0.1-1.5-0.3c-0.5-0.2-0.8-0.5-1.1-0.9
		c-0.2-0.4-0.4-0.8-0.4-1.2h1.5c0,0.8,0.5,1.2,1.4,1.2c0.4,0,0.6-0.1,0.8-0.2S217.7,179.7,217.8,179.4L217.8,179.4z M221.9,174.6
		v1.3h0.9v1.1h-0.9v2.7c0,0.2,0,0.4,0.1,0.4c0.1,0.1,0.2,0.1,0.4,0.1s0.3,0,0.4,0v1.1c-0.3,0.1-0.6,0.1-0.9,0.1
		c-1,0-1.5-0.5-1.6-1.5V177h-0.8v-1.1h0.8v-1.3L221.9,174.6L221.9,174.6z M226.8,181.3c-0.1-0.1-0.1-0.3-0.1-0.5
		c-0.4,0.4-0.8,0.6-1.4,0.6c-0.5,0-1-0.1-1.3-0.5c-0.4-0.3-0.5-0.7-0.5-1.2c0-0.6,0.2-1,0.6-1.3c0.4-0.3,1-0.5,1.9-0.5h0.7v-0.3
		c0-0.2-0.1-0.4-0.2-0.6c-0.1-0.1-0.3-0.2-0.6-0.2c-0.2,0-0.4,0.1-0.6,0.2s-0.2,0.3-0.2,0.5h-1.4c0-0.3,0.1-0.6,0.3-0.9
		c0.2-0.3,0.5-0.5,0.8-0.6c0.4-0.1,0.8-0.2,1.2-0.2c0.7,0,1.2,0.2,1.6,0.5c0.4,0.3,0.6,0.8,0.6,1.4v2.4c0,0.5,0.1,0.9,0.2,1.2v0.1
		L226.8,181.3L226.8,181.3z M225.6,180.3c0.2,0,0.4-0.1,0.6-0.1c0.2-0.1,0.3-0.2,0.4-0.4v-0.9h-0.5c-0.7,0-1.1,0.2-1.2,0.8v0.1
		c0,0.2,0.1,0.3,0.2,0.4S225.4,180.3,225.6,180.3z M230.5,175.9v0.6c0.4-0.5,0.9-0.7,1.6-0.7c0.6,0,1,0.2,1.3,0.5s0.4,0.8,0.4,1.5
		v3.5h-1.4v-3.5c0-0.3-0.1-0.5-0.2-0.7c-0.1-0.1-0.4-0.2-0.7-0.2c-0.4,0-0.7,0.2-0.9,0.5v3.8h-1.4v-5.4L230.5,175.9L230.5,175.9z
		 M234.7,178.6c0-0.9,0.2-1.5,0.6-2s0.9-0.8,1.6-0.8c0.5,0,1,0.2,1.3,0.6v-2.8h1.5v7.7h-1.3l-0.1-0.6c-0.4,0.4-0.8,0.7-1.4,0.7
		c-0.6,0-1.1-0.2-1.5-0.8C234.9,180.1,234.7,179.4,234.7,178.6L234.7,178.6z M236.1,178.7c0,0.5,0.1,0.9,0.3,1.2s0.4,0.4,0.8,0.4
		c0.4,0,0.8-0.2,0.9-0.6v-2.1c-0.2-0.4-0.5-0.6-0.9-0.6C236.5,177,236.1,177.5,236.1,178.7L236.1,178.7z M243.9,181.3
		c-0.1-0.1-0.1-0.3-0.1-0.5c-0.4,0.4-0.8,0.6-1.4,0.6c-0.5,0-1-0.1-1.3-0.5c-0.4-0.3-0.5-0.7-0.5-1.2c0-0.6,0.2-1,0.6-1.3
		c0.4-0.3,1-0.5,1.9-0.5h0.7v-0.3c0-0.2-0.1-0.4-0.2-0.6c-0.1-0.1-0.3-0.2-0.6-0.2c-0.2,0-0.4,0.1-0.6,0.2s-0.2,0.3-0.2,0.5h-1.4
		c0-0.3,0.1-0.6,0.3-0.9c0.2-0.3,0.5-0.5,0.8-0.6c0.4-0.1,0.8-0.2,1.2-0.2c0.7,0,1.2,0.2,1.6,0.5c0.4,0.3,0.6,0.8,0.6,1.4v2.4
		c0,0.5,0.1,0.9,0.2,1.2v0.1L243.9,181.3L243.9,181.3z M242.7,180.3c0.2,0,0.4-0.1,0.6-0.1c0.2-0.1,0.3-0.2,0.4-0.4v-0.9h-0.5
		c-0.7,0-1.1,0.2-1.2,0.8v0.1c0,0.2,0.1,0.3,0.2,0.4S242.4,180.3,242.7,180.3z M247.7,181.3h-1.4v-7.7h1.4V181.3z M248.7,178.6
		c0-0.5,0.1-1,0.3-1.4s0.5-0.8,0.9-1s0.8-0.4,1.4-0.4c0.7,0,1.3,0.2,1.8,0.7c0.5,0.4,0.7,1.1,0.8,1.8v0.4c0,0.8-0.2,1.5-0.7,2
		s-1.1,0.8-1.9,0.8s-1.4-0.2-1.9-0.8C248.9,180.1,248.7,179.5,248.7,178.6L248.7,178.6L248.7,178.6z M250.2,178.7
		c0,0.5,0.1,0.9,0.3,1.2s0.5,0.4,0.8,0.4s0.6-0.1,0.8-0.4c0.2-0.3,0.3-0.7,0.3-1.3c0-0.5-0.1-0.9-0.3-1.2s-0.5-0.4-0.8-0.4
		s-0.6,0.1-0.8,0.4C250.3,177.7,250.2,178.1,250.2,178.7L250.2,178.7z M256.1,175.9v0.6c0.4-0.5,0.9-0.7,1.6-0.7
		c0.6,0,1,0.2,1.3,0.5s0.4,0.8,0.4,1.5v3.5h-1.5v-3.5c0-0.3-0.1-0.5-0.2-0.7s-0.4-0.2-0.7-0.2c-0.4,0-0.7,0.2-0.9,0.5v3.8h-1.4v-5.4
		L256.1,175.9L256.1,175.9z M263,181.4c-0.8,0-1.4-0.2-2-0.7c-0.5-0.5-0.8-1.1-0.8-1.9v-0.1c0-0.5,0.1-1,0.3-1.5
		c0.2-0.4,0.5-0.8,0.9-1s0.8-0.4,1.3-0.4c0.7,0,1.3,0.2,1.8,0.7c0.4,0.5,0.6,1.1,0.6,2v0.6h-3.5c0,0.4,0.2,0.6,0.4,0.9
		c0.2,0.2,0.5,0.3,0.9,0.3c0.6,0,1-0.2,1.3-0.6l0.7,0.8c-0.2,0.3-0.5,0.6-0.9,0.7S263.5,181.4,263,181.4z M262.8,177
		c-0.3,0-0.5,0.1-0.7,0.3s-0.3,0.5-0.3,0.8h2V178c0-0.3-0.1-0.6-0.3-0.7C263.4,177.1,263.1,177,262.8,177L262.8,177z M272.8,179.8
		h-2.6l-0.5,1.5h-1.6l2.7-7.3h1.4l2.7,7.3h-1.6L272.8,179.8L272.8,179.8z M270.6,178.6h1.8l-0.9-2.7L270.6,178.6L270.6,178.6z
		 M280.2,178.7c0,0.8-0.2,1.5-0.6,2s-0.9,0.8-1.5,0.8c-0.5,0-1-0.2-1.3-0.6v2.6h-1.5V176h1.3v0.5c0.4-0.4,0.8-0.6,1.4-0.6
		c0.7,0,1.2,0.2,1.6,0.7S280.2,177.7,280.2,178.7L280.2,178.7L280.2,178.7z M278.7,178.5c0-0.5-0.1-0.9-0.3-1.2
		c-0.2-0.3-0.4-0.4-0.8-0.4c-0.5,0-0.8,0.2-0.9,0.5v2.2c0.2,0.4,0.5,0.5,1,0.5C278.4,180.2,278.7,179.7,278.7,178.5L278.7,178.5z
		 M286,178.7c0,0.8-0.2,1.5-0.6,2s-0.9,0.8-1.5,0.8c-0.5,0-1-0.2-1.3-0.6v2.6h-1.5V176h1.3v0.5c0.4-0.4,0.8-0.6,1.4-0.6
		c0.7,0,1.2,0.2,1.6,0.7S285.9,177.7,286,178.7L286,178.7L286,178.7z M284.5,178.5c0-0.5-0.1-0.9-0.3-1.2c-0.2-0.3-0.4-0.4-0.8-0.4
		c-0.5,0-0.8,0.2-0.9,0.5v2.2c0.2,0.4,0.5,0.5,1,0.5C284.2,180.2,284.5,179.7,284.5,178.5L284.5,178.5z M289.8,179.8
		c0-0.2-0.1-0.3-0.3-0.4c-0.2-0.1-0.5-0.2-0.8-0.3c-1.3-0.3-1.9-0.8-1.9-1.6c0-0.5,0.2-0.9,0.6-1.2s0.9-0.5,1.6-0.5s1.2,0.2,1.6,0.5
		s0.6,0.7,0.6,1.3h-1.5c0-0.2-0.1-0.4-0.2-0.5s-0.3-0.2-0.6-0.2c-0.2,0-0.4,0.1-0.6,0.2c-0.1,0.1-0.2,0.2-0.2,0.4s0.1,0.3,0.2,0.4
		c0.1,0.1,0.4,0.2,0.8,0.3s0.7,0.1,0.9,0.2c0.8,0.3,1.1,0.8,1.1,1.5c0,0.5-0.2,0.9-0.6,1.2s-1,0.5-1.6,0.5c-0.5,0-0.9-0.1-1.2-0.2
		s-0.6-0.4-0.8-0.7c-0.2-0.3-0.3-0.6-0.3-0.9h1.4c0,0.3,0.1,0.5,0.3,0.6c0.2,0.1,0.4,0.2,0.7,0.2c0.3,0,0.5-0.1,0.6-0.1
		C289.7,180.1,289.8,180,289.8,179.8L289.8,179.8z M299.4,179.3l0.7-3.4h1.4l-1.4,5.4h-1.2l-1-3.4l-1,3.4h-1.2l-1.4-5.4h1.4l0.7,3.4
		l1-3.4h1L299.4,179.3L299.4,179.3z M303.8,181.3h-1.5v-5.4h1.5V181.3z M302.2,174.5c0-0.2,0.1-0.4,0.2-0.5s0.4-0.2,0.6-0.2
		s0.4,0.1,0.6,0.2s0.2,0.3,0.2,0.5s-0.1,0.4-0.2,0.5s-0.3,0.2-0.6,0.2s-0.4-0.1-0.6-0.2S302.2,174.7,302.2,174.5z M306.7,174.6v1.3
		h0.9v1.1h-0.9v2.7c0,0.2,0,0.4,0.1,0.4c0.1,0.1,0.2,0.1,0.4,0.1c0.2,0,0.3,0,0.4,0v1.1c-0.3,0.1-0.6,0.1-0.9,0.1
		c-1,0-1.5-0.5-1.5-1.5V177h-0.8v-1.1h0.8v-1.3L306.7,174.6L306.7,174.6z M309.8,176.5c0.4-0.5,0.9-0.7,1.5-0.7
		c1.2,0,1.8,0.7,1.8,2.1v3.5h-1.5V178c0-0.3-0.1-0.5-0.2-0.7c-0.1-0.1-0.4-0.2-0.7-0.2c-0.4,0-0.7,0.2-0.9,0.5v3.9h-1.5v-7.7h1.5
		L309.8,176.5L309.8,176.5z M237.2,191.3c0.2,0,0.4-0.1,0.6-0.2c0.1-0.1,0.2-0.3,0.2-0.5h1.6c0,0.6-0.2,1.1-0.6,1.5
		c-0.4,0.4-1,0.6-1.6,0.6c-0.8,0-1.4-0.2-1.9-0.7s-0.7-1.2-0.7-2.1v-0.1c0-0.5,0.1-1,0.3-1.4s0.5-0.7,0.9-1c0.4-0.2,0.8-0.3,1.4-0.3
		c0.7,0,1.3,0.2,1.7,0.6c0.4,0.4,0.6,0.9,0.6,1.6h-1.6c0-0.3-0.1-0.5-0.2-0.6c-0.1-0.2-0.3-0.2-0.6-0.2c-0.4,0-0.7,0.3-0.8,0.8
		c0,0.2,0,0.4,0,0.7c0,0.5,0.1,0.9,0.2,1.1C236.7,191.2,236.9,191.3,237.2,191.3z M214.3,192.8v-7.3h2.2c0.6,0,1.2,0.1,1.7,0.4
		c0.5,0.3,0.9,0.7,1.2,1.2s0.4,1.1,0.4,1.8v0.3c0,0.7-0.1,1.3-0.4,1.8s-0.7,0.9-1.2,1.2s-1.1,0.4-1.7,0.4L214.3,192.8L214.3,192.8z
		 M215.8,186.7v4.9h0.7c0.6,0,1-0.2,1.3-0.6c0.3-0.4,0.5-0.9,0.5-1.6V189c0-0.7-0.1-1.3-0.5-1.7c-0.3-0.4-0.8-0.6-1.4-0.6H215.8
		L215.8,186.7z M223.1,192.8c-0.8,0-1.4-0.2-2-0.7c-0.5-0.5-0.8-1.1-0.8-1.9V190c0-0.5,0.1-1,0.3-1.5c0.2-0.4,0.5-0.8,0.9-1
		s0.8-0.3,1.3-0.3c0.7,0,1.3,0.2,1.8,0.7c0.4,0.5,0.6,1.1,0.6,2v0.6h-3.5c0,0.4,0.2,0.6,0.4,0.9c0.2,0.2,0.5,0.3,0.9,0.3
		c0.6,0,1-0.2,1.3-0.6l0.7,0.8c-0.2,0.3-0.5,0.6-0.9,0.7S223.6,192.8,223.1,192.8z M223,188.4c-0.3,0-0.5,0.1-0.7,0.3
		s-0.3,0.5-0.3,0.8h2v-0.1c0-0.3-0.1-0.6-0.3-0.7C223.5,188.5,223.3,188.4,223,188.4L223,188.4z M226.1,190c0-0.9,0.2-1.5,0.6-2
		s0.9-0.8,1.6-0.8c0.5,0,1,0.2,1.3,0.6V185h1.5v7.7h-1.3l-0.1-0.6c-0.4,0.4-0.8,0.7-1.4,0.7c-0.6,0-1.1-0.2-1.5-0.8
		C226.4,191.6,226.2,190.9,226.1,190L226.1,190z M227.6,190.1c0,0.5,0.1,0.9,0.3,1.2s0.4,0.4,0.8,0.4c0.4,0,0.8-0.2,0.9-0.6V189
		c-0.2-0.4-0.5-0.6-0.9-0.6C227.9,188.4,227.6,189,227.6,190.1L227.6,190.1z M233.7,192.7h-1.4v-5.4h1.4V192.7z M232.2,185.9
		c0-0.2,0.1-0.4,0.2-0.5c0.1-0.1,0.4-0.2,0.6-0.2s0.4,0.1,0.6,0.2s0.2,0.3,0.2,0.5s-0.1,0.4-0.2,0.5s-0.3,0.2-0.6,0.2
		s-0.4-0.1-0.6-0.2S232.2,186.1,232.2,185.9L232.2,185.9z M244,192.6c-0.1-0.1-0.1-0.3-0.1-0.5c-0.4,0.4-0.8,0.6-1.4,0.6
		c-0.5,0-1-0.1-1.3-0.5c-0.4-0.3-0.5-0.7-0.5-1.2c0-0.6,0.2-1,0.6-1.3c0.4-0.3,1-0.5,1.9-0.5h0.7V189c0-0.2-0.1-0.4-0.2-0.6
		c-0.1-0.1-0.3-0.2-0.6-0.2c-0.2,0-0.4,0.1-0.6,0.2c-0.1,0.1-0.2,0.3-0.2,0.5h-1.5c0-0.3,0.1-0.6,0.3-0.9c0.2-0.3,0.5-0.5,0.8-0.6
		c0.4-0.1,0.8-0.2,1.2-0.2c0.7,0,1.2,0.2,1.6,0.5c0.4,0.3,0.6,0.8,0.6,1.4v2.4c0,0.5,0.1,0.9,0.2,1.2v0.1L244,192.6L244,192.6z
		 M242.8,191.6c0.2,0,0.4-0.1,0.6-0.1c0.2-0.1,0.3-0.2,0.4-0.4v-0.9h-0.5c-0.7,0-1.1,0.2-1.2,0.8v0.1c0,0.2,0.1,0.3,0.2,0.4
		S242.5,191.6,242.8,191.6z M248,185.9v1.3h0.9v1.1H248v2.7c0,0.2,0,0.4,0.1,0.4c0.1,0.1,0.2,0.1,0.4,0.1s0.3,0,0.4,0v1.1
		c-0.3,0.1-0.6,0.1-0.9,0.1c-1,0-1.5-0.5-1.6-1.5v-2.9h-0.8v-1.1h0.8v-1.3L248,185.9L248,185.9z M252,192.7h-1.4v-5.4h1.4V192.7z
		 M250.5,185.9c0-0.2,0.1-0.4,0.2-0.5c0.1-0.1,0.4-0.2,0.6-0.2s0.4,0.1,0.6,0.2s0.2,0.3,0.2,0.5s-0.1,0.4-0.2,0.5s-0.3,0.2-0.6,0.2
		s-0.4-0.1-0.6-0.2S250.5,186.1,250.5,185.9L250.5,185.9z M253,190c0-0.5,0.1-1,0.3-1.4s0.5-0.8,0.9-1s0.8-0.4,1.4-0.4
		c0.7,0,1.3,0.2,1.8,0.7s0.7,1.1,0.8,1.8v0.4c0,0.8-0.2,1.5-0.7,2s-1.1,0.8-1.9,0.8c-0.8,0-1.4-0.2-1.9-0.8
		C253.3,191.6,253,190.9,253,190L253,190L253,190z M254.5,190.1c0,0.5,0.1,0.9,0.3,1.2s0.5,0.4,0.8,0.4s0.6-0.1,0.8-0.4
		c0.2-0.3,0.3-0.7,0.3-1.3c0-0.5-0.1-0.9-0.3-1.2c-0.2-0.3-0.5-0.4-0.8-0.4s-0.6,0.1-0.8,0.4C254.6,189.1,254.5,189.5,254.5,190.1
		L254.5,190.1z M260.6,187.3v0.6c0.4-0.5,0.9-0.7,1.6-0.7c0.6,0,1,0.2,1.3,0.5s0.4,0.8,0.4,1.5v3.5h-1.5v-3.5c0-0.3-0.1-0.5-0.2-0.7
		s-0.4-0.2-0.7-0.2c-0.4,0-0.7,0.2-0.9,0.5v3.8h-1.4v-5.4L260.6,187.3L260.6,187.3z"/>
	<path class="st37" d="M215.3,59.8h112c0.5,0,1,0.5,1,1l0,0c0,0.5-0.5,1-1,1h-112c-0.6,0-1-0.5-1-1l0,0
		C214.3,60.3,214.8,59.8,215.3,59.8z"/>
	<path class="st38" d="M215.3,128.8h118c0.5,0,1,0.4,1,1l0,0c0,0.6-0.5,1-1,1h-118c-0.6,0-1-0.4-1-1l0,0
		C214.3,129.3,214.8,128.8,215.3,128.8z"/>
	<polygon class="st17" points="219.7,50.2 220.5,45.6 222.3,45.6 220.7,52.9 218.9,52.9 217.9,48.8 217,52.9 215.2,52.9 213.6,45.6 
		215.3,45.6 216.2,50.2 217.2,45.6 218.7,45.6 	"/>
</g>
</svg>
