<?xml version="1.0" encoding="utf-8"?>
<!-- Generator: Adobe Illustrator 26.4.1, SVG Export Plug-In . SVG Version: 6.00 Build 0)  -->
<svg version="1.1" id="Capa_2_00000112594838298802874290000010266740275955821449_"
	 xmlns="http://www.w3.org/2000/svg" xmlns:xlink="http://www.w3.org/1999/xlink" x="0px" y="0px" viewBox="0 0 377.3 246.5"
	 style="enable-background:new 0 0 377.3 246.5;" xml:space="preserve">
<style type="text/css">
	.st0{opacity:0.5;fill:#171717;enable-background:new    ;}
	.st1{fill:#FF5A6D;}
	.st2{fill:#FFFFFF;}
	.st3{fill:#E61158;}
	.st4{opacity:0.43;fill:#171717;enable-background:new    ;}
	.st5{opacity:0.2;fill:#76F7FF;enable-background:new    ;}
	.st6{fill:#B3CAF8;}
	.st7{fill:#76F7FF;}
	.st8{opacity:0.43;fill:#76F7FF;enable-background:new    ;}
	.st9{fill:#B3825D;}
	.st10{fill:#18204D;}
	.st11{fill:#F05936;}
	.st12{fill:#303030;}
	.st13{fill-rule:evenodd;clip-rule:evenodd;fill:#B3CAF8;}
	.st14{opacity:0.2;fill:#303030;enable-background:new    ;}
	.st15{opacity:0.16;fill:#18204D;enable-background:new    ;}
</style>
<g id="Capa_1-2">
	<path class="st0" d="M217.4,0H9.4C4.2,0,0,3.1,0,6.8v232.8c0,3.8,4.2,6.9,9.4,6.9h207.9c5.2,0,9.4-3.1,9.4-6.9V6.8
		C226.8,3.1,222.6,0,217.4,0z"/>
	<g>
		<path class="st1" d="M18,56c6.8,0,12.3-5.5,12.3-12.3S24.8,31.3,18,31.3S5.7,36.8,5.7,43.6S11.2,56,18,56z"/>
		<path class="st1" d="M158.7,43.5h-113c-1,0-1.7,0.8-1.7,1.7s0.8,1.7,1.7,1.7h113c0.9,0,1.7-0.8,1.7-1.7S159.6,43.5,158.7,43.5z"/>
		<path d="M138.6,52.5H45.4c-0.8,0-1.4,0.6-1.4,1.4s0.6,1.4,1.4,1.4h93.2c0.8,0,1.4-0.6,1.4-1.4S139.4,52.5,138.6,52.5z"/>
		<path d="M161.5,60.7h-116c-0.8,0-1.5,0.7-1.5,1.5s0.7,1.5,1.5,1.5h116c0.8,0,1.5-0.7,1.5-1.5S162.4,60.7,161.5,60.7z"/>
		<path d="M18,119.9c6.8,0,12.3-5.5,12.3-12.3S24.8,95.3,18,95.3s-12.3,5.5-12.3,12.3S11.2,119.9,18,119.9z"/>
		<path d="M165.6,102.9H45.7c-1,0-1.7,0.8-1.7,1.7s0.8,1.7,1.7,1.7h119.8c0.9,0,1.7-0.8,1.7-1.7S166.5,102.9,165.6,102.9z"/>
		<path class="st2" d="M148.2,103.3H59.8c-8.2,0-14.8,0.4-14.8,1s6.6,1,14.8,1h88.5c8.1,0,14.8-0.4,14.8-1S156.4,103.3,148.2,103.3z
			"/>
		<path d="M147.5,111.8h-102c-0.8,0-1.5,0.7-1.5,1.5s0.7,1.5,1.5,1.5h102c0.8,0,1.5-0.7,1.5-1.5S148.4,111.8,147.5,111.8z"/>
		<path d="M108.5,120.2h-63c-0.8,0-1.5,0.7-1.5,1.5s0.7,1.5,1.5,1.5h63c0.8,0,1.5-0.7,1.5-1.5S109.4,120.2,108.5,120.2z"/>
		<path d="M108.5,128.7h-63c-0.8,0-1.5,0.7-1.5,1.5s0.7,1.5,1.5,1.5h63c0.8,0,1.5-0.7,1.5-1.5S109.4,128.7,108.5,128.7z"/>
		<path d="M18,187.9c6.8,0,12.3-5.5,12.3-12.3s-5.5-12.3-12.3-12.3s-12.3,5.5-12.3,12.3S11.2,188,18,187.9L18,187.9z"/>
		<path d="M153.5,188.1h-108c-0.8,0-1.5,0.7-1.5,1.5s0.7,1.5,1.5,1.5h108c0.8,0,1.5-0.7,1.5-1.5S154.4,188.1,153.5,188.1z"/>
		<path d="M103.5,196.5h-58c-0.8,0-1.5,0.7-1.5,1.5s0.7,1.5,1.5,1.5h58c0.8,0,1.5-0.7,1.5-1.5S104.4,196.5,103.5,196.5z"/>
		<path class="st2" d="M370.4,0H219.8c-3.8,0-6.9,3.1-6.9,6.8v232.8c0,3.8,3.1,6.9,6.9,6.9h150.6c3.8,0,6.9-3.1,6.9-6.9V6.8
			C377.3,3.1,374.2,0,370.4,0z"/>
		<path class="st3" d="M370.4,0H219.8c-3.8,0-6.9,3.1-6.9,6.8v232.8c0,3.8,3.1,6.9,6.9,6.9h150.6c3.8,0,6.9-3.1,6.9-6.9V6.8
			C377.3,3.1,374.2,0,370.4,0z"/>
		<path class="st4" d="M243.4,74.1c-4.8,4.6-8.5,12.8-5.7,17.4c1.6,2.6,4.9,3.4,16,4c20.5,1.1,36.1,0,37.6-0.1
			c14.4-1.1,12.1-1.5,22.1-2c11.2-0.6,16.3-0.1,25-2.2c6.9-1.7,11-2.6,14.9-6.1c8.9-7.7,8.6-20,8.6-22c0-2.8-0.6-12.4-7.6-20.1
			c-10.6-11.7-30.6-13.1-41.1-5.3c-12.4,9.2-4.9,25.9-16,31.8c-9.9,5.2-19.5-5.7-41.4-1.2C252.3,68.9,247.5,70.2,243.4,74.1
			L243.4,74.1z"/>
		<path class="st5" d="M236.7,107.2c-1.5,0-2.7-0.4-3.5-1.3c-2.3-2.6-0.8-9.2,3-12.8c4.1-3.8,9.8-3,19.3-1.7c3.3,0.5,7,1,11.3,1.4
			c9.3,0.9,18.9,1.1,28.6,0.5c0,0,0.1,0,0.1,0.1c0,0.1,0,0.1-0.1,0.1c-9.7,0.6-19.4,0.5-28.6-0.5c-4.3-0.4-8-1-11.3-1.4
			c-9.4-1.3-15.1-2.2-19.1,1.6c-3.7,3.5-5.2,9.9-3,12.5c2,2.3,6.6,0.9,12-0.6c1.5-0.4,3-0.9,4.5-1.2c11.5-2.9,18.2-1.2,24.7,0.3
			c5.8,1.4,11.8,2.9,21.3,1.3c9.7-1.7,15.9-5.3,21.3-8.5c6.3-3.7,11.3-6.7,19.1-4.7c4.1,1.1,7.2,3,9.6,4.6c3,1.9,5.4,3.5,8.3,2.4
			c2.8-1.1,5-4.2,6.1-8.8c1.1-4.2,1.2-9.2,0.4-13.6c-2.5-12.9-15-21.2-25.6-22.6c-6.3-0.8-10,1.1-14.2,3.2c-4,2-8.5,4.4-16.1,4.7
			c-8,0.4-12.7-1.6-17.8-3.7c-4.5-1.9-9-3.8-16.1-4.1c0,0-0.1,0-0.1-0.1s0-0.1,0.1-0.1l0,0c7.1,0.3,11.7,2.2,16.1,4.1
			c5,2.1,9.8,4.1,17.7,3.7c7.6-0.4,12.1-2.7,16-4.7c4.3-2.2,7.9-4.1,14.3-3.3c10.7,1.4,23.3,9.8,25.8,22.8c0.8,4.4,0.7,9.5-0.4,13.7
			c-1.2,4.7-3.4,7.8-6.2,8.9c-3,1.1-5.4-0.4-8.5-2.4c-2.6-1.7-5.5-3.5-9.5-4.6c-7.8-2-12.8,0.9-19,4.6c-5.4,3.2-11.6,6.9-21.4,8.6
			c-9.6,1.7-15.6,0.2-21.4-1.3c-6.8-1.7-13.1-3.2-24.6-0.3c-1.5,0.4-3,0.8-4.5,1.2C242.1,106.3,239.1,107.2,236.7,107.2L236.7,107.2
			z"/>
		<path class="st6" d="M323,85.2c8.8,0,15.9-7.1,15.9-15.8s-7.1-15.8-15.9-15.8s-15.9,7.1-15.9,15.8S314.2,85.2,323,85.2z"/>
		<path class="st7" d="M332.8,84.1h-23.9v16.7h23.9V84.1z"/>
		<path class="st8" d="M285.3,58.1c5.1,0,9.2-4.1,9.2-9.2s-4.1-9.2-9.2-9.2s-9.2,4.1-9.2,9.2S280.2,58.1,285.3,58.1z"/>
		<path class="st9" d="M292.1,101.7c-1.6,0-2.9-1.3-2.9-2.9c0-1.6,1.3-2.9,2.9-2.9l10.7-0.1l0.7-12.8c0.1-1.6,1.5-2.8,3-2.7
			c1.6,0.1,2.8,1.5,2.7,3.1l-0.8,13.8c-0.1,2.5-2.2,4.4-4.6,4.4L292.1,101.7L292.1,101.7L292.1,101.7z"/>
		<path class="st9" d="M321.3,101.6c-1.5,0-2.8-1.2-2.9-2.8c-0.1-1.6,1.2-2.9,2.8-3l10.3-0.4V83.2c0-1.6,1.3-2.9,2.9-2.9
			s2.9,1.3,2.9,2.9v12.9c0,2.7-2.1,4.9-4.8,5l-11,0.4C321.4,101.6,321.4,101.6,321.3,101.6L321.3,101.6z"/>
		<path class="st10" d="M355.4,104.4H239.9c-0.9,0-1.5-0.7-1.5-1.5s0.7-1.5,1.5-1.5h115.5c0.9,0,1.5,0.7,1.5,1.5
			S356.2,104.4,355.4,104.4z"/>
		<path class="st7" d="M302.8,86.7c0-10.4,7.4-15,17-15s17.9,4.6,17.9,15"/>
		<path class="st11" d="M316,58.7c0.8,0,1.4-0.6,1.4-1.4S316.8,56,316,56s-1.4,0.6-1.4,1.4S315.3,58.7,316,58.7z"/>
		<path class="st11" d="M323.7,58.7c0.8,0,1.4-0.6,1.4-1.4s-0.6-1.4-1.4-1.4s-1.4,0.6-1.4,1.4S322.9,58.7,323.7,58.7z"/>
		<path class="st9" d="M323.7,62.5V74c0,2.1-1.7,3.8-3.8,3.8s-3.8-1.7-3.8-3.8V62.5c0-0.8,0.2-1.5,0.6-2.1c0.7-1,1.8-1.7,3.1-1.7
			c1,0,2,0.4,2.7,1.1C323.2,60.5,323.7,61.5,323.7,62.5L323.7,62.5z"/>
		<path class="st12" d="M323.7,60.8L323,65c0,2.1-0.8,4.8-2.8,5c-3.7,0.3-4.1-1.7-4.1-3.8v-7.5c0.7-1,2-1.7,3.4-1.7
			c1.1,0,2.2,0.4,2.9,1.1C323.2,58.8,323.7,59.8,323.7,60.8L323.7,60.8z"/>
		<path class="st9" d="M320.1,69.2h-0.4c-2,0-3.6-1.6-3.6-3.6v-9.8c0-2,1.6-3.6,3.6-3.6h0.4c2,0,3.6,1.6,3.6,3.6v9.8
			C323.7,67.6,322.1,69.2,320.1,69.2z"/>
		<path class="st7" d="M316.6,54.8l6.5,0c1.4,0,1.5-4.7-0.8-4.2l-0.4,0.3c-0.5-0.4-1.1-0.6-1.8-0.6l-3.5,0c-1,0-1.9,0.8-1.9,1.9
			S315.6,54.8,316.6,54.8z"/>
		<path class="st12" d="M317.6,58.1c0.2,0,0.4-0.2,0.4-0.4s-0.2-0.4-0.4-0.4s-0.4,0.2-0.4,0.4S317.4,58.1,317.6,58.1z"/>
		<path class="st12" d="M320.8,58.1c0.2,0,0.4-0.2,0.4-0.4s-0.2-0.4-0.4-0.4s-0.4,0.2-0.4,0.4S320.6,58.1,320.8,58.1z"/>
		<path class="st12" d="M319,62.9c-0.1,0-0.2,0-0.3-0.1c-0.2-0.1-0.3-0.3-0.3-0.6c0-0.3,0.1-0.6,0.2-0.9l0-0.1
			c0.3-0.8,0.5-1.7,0.6-2.5h0.2c0,0.9-0.2,1.8-0.6,2.6l0,0.1c-0.1,0.3-0.2,0.6-0.2,0.8c0,0.2,0.1,0.3,0.2,0.5c0.1,0,0.2,0.1,0.3,0.1
			l0,0.2C319.1,62.9,319,62.9,319,62.9L319,62.9z"/>
		<path class="st12" d="M319,65.1c-0.2,0-0.4,0-0.4,0l0-0.2c0,0,0.7,0.2,1.1-0.2c0.3-0.2,0.5-0.6,0.5-1.1h0.2c0,0.6-0.2,1-0.6,1.3
			C319.6,65,319.2,65,319,65.1L319,65.1z"/>
		<path class="st6" d="M320,78.7c-0.1,0-0.2,0-0.2,0c-0.1,0-0.2-0.1-0.2-0.2c0-0.1,0.1-0.2,0.2-0.2c0,0,2,0.1,3.4-1.2
			c0.9-0.8,1.3-2,1.3-3.6c0-0.1,0.1-0.2,0.2-0.2s0.2,0.1,0.2,0.2c0,1.7-0.5,3-1.4,3.9C322.2,78.6,320.5,78.7,320,78.7L320,78.7z"/>
		<path class="st6" d="M354.6,99.6l-11.3,0v1.7l11.3,0V99.6L354.6,99.6z"/>
		<path class="st10" d="M353.2,97.8l-11.3,0v1.7l11.3,0V97.8L353.2,97.8z"/>
		<path class="st7" d="M354.9,96.1h-11.3v1.7l11.3,0C354.9,97.8,354.9,96.1,354.9,96.1z"/>
		<path class="st7" d="M290.3,101.1h-6.9c0-1.1,0.9-2.1,2.1-2.1h2.8C289.4,99.1,290.3,100,290.3,101.1L290.3,101.1z"/>
		<path class="st6" d="M348.4,105.4h-96.4c-0.2,0-0.4-0.2-0.4-0.4s0.2-0.4,0.4-0.4h96.4c0.2,0,0.4,0.2,0.4,0.4
			S348.7,105.4,348.4,105.4z"/>
		<path class="st7" d="M339.1,56c2.6,0,4.7-2.1,4.7-4.7s-2.1-4.7-4.7-4.7s-4.7,2.1-4.7,4.7S336.5,56,339.1,56z"/>
		<path class="st12" d="M317.9,56.5L316,57l0,0.2l1.9-0.5L317.9,56.5z"/>
		<path class="st12" d="M320.3,56.5l0,0.2l1.9,0.5l0-0.2L320.3,56.5z"/>
		<path class="st7" d="M322.2,55.5C322.3,55.5,322.3,55.5,322.2,55.5c0.1-0.1,0-0.2,0-0.2S322.1,55.4,322.2,55.5
			C322.1,55.5,322.2,55.5,322.2,55.5z"/>
		<path class="st7" d="M322.1,55.1C322.2,55.1,322.2,55.1,322.1,55.1c0.1-0.1,0-0.2,0-0.2S322.1,55,322.1,55.1
			C322.1,55.1,322.1,55.1,322.1,55.1z"/>
		<path class="st7" d="M321.5,55.1C321.5,55.1,321.6,55.1,321.5,55.1c0.1-0.1,0-0.2,0-0.2S321.4,55,321.5,55.1
			C321.4,55.1,321.4,55.1,321.5,55.1z"/>
		<path class="st7" d="M321.8,55.1C321.8,55.1,321.9,55.1,321.8,55.1c0.1-0.1,0-0.2,0-0.2S321.7,55,321.8,55.1
			C321.7,55.1,321.8,55.1,321.8,55.1z"/>
		<path class="st7" d="M323.2,55.1C323.2,55.1,323.3,55.1,323.2,55.1c0.1-0.1,0-0.2,0-0.2S323.1,55,323.2,55.1
			C323.1,55.1,323.2,55.1,323.2,55.1z"/>
		<path class="st7" d="M322.5,55.1C322.5,55.1,322.6,55.1,322.5,55.1c0.1-0.1,0-0.2,0-0.2S322.5,55,322.5,55.1
			C322.5,55.1,322.5,55.1,322.5,55.1z"/>
		<path class="st7" d="M322.9,55.1C322.9,55.1,323,55.1,322.9,55.1c0.1-0.1,0-0.2,0-0.2S322.8,55,322.9,55.1
			C322.8,55.1,322.8,55.1,322.9,55.1z"/>
		<path class="st7" d="M323.3,55.4C323.4,55.4,323.4,55.4,323.3,55.4c0.1-0.1,0-0.2,0-0.2S323.2,55.3,323.3,55.4
			C323.2,55.4,323.3,55.4,323.3,55.4z"/>
		<path class="st7" d="M322.6,55.5C322.6,55.5,322.7,55.5,322.6,55.5c0.1-0.1,0-0.2,0-0.2S322.5,55.4,322.6,55.5
			C322.5,55.5,322.6,55.5,322.6,55.5z"/>
		<path class="st7" d="M323,55.5C323,55.5,323.1,55.5,323,55.5c0.1-0.1,0-0.2,0-0.2S322.9,55.4,323,55.5
			C322.9,55.5,322.9,55.5,323,55.5z"/>
		<path class="st7" d="M323.4,55.7C323.4,55.7,323.4,55.7,323.4,55.7c0.1-0.1,0-0.2,0-0.2S323.3,55.6,323.4,55.7
			C323.3,55.7,323.3,55.7,323.4,55.7z"/>
		<path class="st7" d="M322.6,55.8C322.7,55.8,322.7,55.8,322.6,55.8c0.1-0.1,0-0.2,0-0.2S322.5,55.7,322.6,55.8
			C322.5,55.8,322.6,55.8,322.6,55.8z"/>
		<path class="st7" d="M323,55.8C323.1,55.8,323.1,55.8,323,55.8c0.1-0.1,0-0.2,0-0.2S322.9,55.7,323,55.8
			C322.9,55.8,323,55.8,323,55.8z"/>
		<path class="st7" d="M323.4,56.1C323.4,56.1,323.5,56,323.4,56.1c0.1-0.1,0-0.2,0-0.2S323.3,55.9,323.4,56.1
			C323.3,56,323.3,56.1,323.4,56.1z"/>
		<path class="st7" d="M323.1,56.2C323.1,56.2,323.1,56.1,323.1,56.2c0.1-0.1,0-0.2,0-0.2S323,56,323.1,56.2
			C323,56.1,323,56.2,323.1,56.2z"/>
		<path class="st7" d="M323.4,56.4C323.4,56.4,323.5,56.4,323.4,56.4c0.1-0.1,0-0.2,0-0.2S323.3,56.3,323.4,56.4
			C323.3,56.4,323.4,56.4,323.4,56.4z"/>
		<path class="st7" d="M323.1,56.5C323.1,56.5,323.2,56.5,323.1,56.5c0.1-0.1,0-0.2,0-0.2S323,56.4,323.1,56.5
			C323,56.5,323,56.5,323.1,56.5z"/>
		<path class="st7" d="M323.4,56.8C323.4,56.8,323.5,56.7,323.4,56.8c0.1-0.1,0-0.2,0-0.2S323.3,56.6,323.4,56.8
			C323.3,56.7,323.4,56.8,323.4,56.8z"/>
		<path class="st7" d="M323.1,56.8C323.1,56.8,323.2,56.8,323.1,56.8c0.1-0.1,0-0.2,0-0.2S323,56.7,323.1,56.8
			C323,56.8,323,56.8,323.1,56.8z"/>
		<path class="st7" d="M323.4,57.1C323.4,57.1,323.5,57.1,323.4,57.1c0.1-0.1,0-0.2,0-0.2S323.3,57,323.4,57.1
			C323.3,57.1,323.4,57.1,323.4,57.1z"/>
		<path class="st7" d="M323.1,57.2C323.1,57.2,323.2,57.2,323.1,57.2c0.1-0.1,0-0.2,0-0.2S323,57.1,323.1,57.2
			C323,57.2,323,57.2,323.1,57.2z"/>
		<path class="st7" d="M323.4,57.5C323.4,57.5,323.5,57.4,323.4,57.5c0.1-0.1,0-0.2,0-0.2S323.3,57.3,323.4,57.5
			C323.3,57.4,323.4,57.5,323.4,57.5z"/>
		<path class="st7" d="M323.1,57.6C323.1,57.6,323.2,57.5,323.1,57.6c0.1-0.1,0-0.2,0-0.2S323,57.4,323.1,57.6
			C323,57.5,323,57.6,323.1,57.6z"/>
		<path class="st6" d="M237.9,57.6l39.3,1.4c0.5,0,1.1,0.5,1.4,1.1l1.6,2.7h0.1l-1.6-2.7c-0.4-0.7-1.2-1.3-1.7-1.3l-39.3-1.4
			c-0.5,0-0.6,0.5-0.2,1.2l1.6,2.7h0.1l-1.6-2.7C237.4,58,237.5,57.6,237.9,57.6z"/>
		<path class="st13" d="M277.2,58.8c-0.1,0-0.1,0-0.2,0l-39.3-1.4c-0.4,0-0.5,0.2-0.5,0.6c0,0.2,0.1,0.4,0.2,0.6l1.6,2.7h0.1
			l-1.6-2.7c0,0,0,0,0-0.1c-0.1-0.2-0.2-0.4-0.2-0.5c0-0.2,0.1-0.4,0.4-0.4l39.3,1.4c0,0,0,0,0,0c0.5,0,1.1,0.5,1.4,1.1l1.6,2.7h0.2
			l-1.6-2.7c0,0,0,0,0-0.1C278.4,59.4,277.7,58.9,277.2,58.8L277.2,58.8z M237.9,57.8l39.3,1.4c0.2,0,0.4,0.1,0.6,0.3
			s0.5,0.4,0.6,0.7l1.7,2.8l0.6,0l-1.8-3c-0.2-0.4-0.5-0.7-0.9-0.9c-0.3-0.2-0.7-0.4-1-0.4l-39.3-1.4c-0.2,0-0.3,0-0.4,0.1
			s-0.2,0.2-0.2,0.4c-0.1,0.3,0.1,0.6,0.3,1l1.7,2.8l0.6,0l-1.8-3c-0.2-0.3-0.2-0.5-0.2-0.6c0-0.1,0-0.1,0.1-0.1
			C237.8,57.8,237.9,57.8,237.9,57.8L237.9,57.8z"/>
		<path class="st6" d="M296.7,90.4l-1-1.8l-11-18.6l-2-3.4h-0.1l2,3.4l11,18.6l1,1.8c0.3,0.6,0.2,1-0.2,1L257.1,90
			c-0.5,0-1.1-0.5-1.4-1.1l-0.5-0.9l-3.3-5.6l-0.6-1.1l-3.3-5.6l-0.9-1.5l-3.3-5.6l-2-3.4h-0.1l2,3.4l3.3,5.6l0.9,1.5l3.3,5.6
			l0.6,1.1L255,88l0.5,0.9c0.4,0.7,1.2,1.3,1.7,1.3l39.3,1.4C297,91.6,297.1,91,296.7,90.4L296.7,90.4z"/>
		<path class="st13" d="M282.8,66.4l2.1,3.5l12,20.4c0.2,0.4,0.3,0.7,0.3,1c0,0.2-0.1,0.3-0.2,0.4c-0.1,0.1-0.3,0.1-0.4,0.1
			l-39.3-1.4c-0.3,0-0.7-0.2-1-0.4c-0.3-0.2-0.6-0.6-0.9-0.9l-3.9-6.5l-8.2-13.8l-2.2-3.7l0.6,0l5.4,9.1l4.2,7.1l4,6.7l0.5,0.9
			c0.2,0.3,0.4,0.5,0.6,0.7c0.2,0.2,0.5,0.3,0.6,0.3l39.3,1.4c0.1,0,0.1,0,0.1,0c0,0,0-0.1,0.1-0.1c0-0.1,0-0.3-0.2-0.6l-14.2-24.1
			L282.8,66.4L282.8,66.4z M296.5,90.4C296.5,90.4,296.5,90.4,296.5,90.4c0.1,0.3,0.2,0.4,0.2,0.6c0,0.3-0.1,0.4-0.4,0.4L257.1,90
			c0,0,0,0,0,0c-0.5,0-1.1-0.5-1.4-1.1l-14-23.8h-0.1l14,23.8c0,0,0,0.1,0,0.1c0.4,0.6,1,1.1,1.5,1.2c0.1,0,0.1,0,0.2,0l39.3,1.4
			c0.4,0,0.5-0.2,0.5-0.6c0-0.2-0.1-0.4-0.2-0.6l-14-23.8h-0.2L296.5,90.4L296.5,90.4z"/>
		<path class="st7" d="M323.4,57.8C323.4,57.8,323.5,57.8,323.4,57.8c0.1-0.1,0-0.2,0-0.2S323.3,57.7,323.4,57.8
			C323.3,57.8,323.4,57.8,323.4,57.8z"/>
		<path class="st7" d="M322.7,56.2C322.7,56.2,322.8,56.1,322.7,56.2c0.1-0.1,0-0.2,0-0.2S322.6,56,322.7,56.2
			C322.6,56.1,322.7,56.2,322.7,56.2z"/>
		<path class="st6" d="M282.3,101.4h-5.7l-4.3-7.8l5.7,0.2L282.3,101.4L282.3,101.4z"/>
		<path class="st14" d="M281.6,100.3l-5.5,0l-0.9-1.6l5.5,0L281.6,100.3z"/>
		<path class="st6" d="M291.5,101.4h-24.1v-0.1c0-0.5,0.4-0.9,0.9-0.9h22.4c0.5,0,0.9,0.4,0.9,0.9L291.5,101.4L291.5,101.4z"/>
		<path class="st7" d="M232.2,61.1l7,0.2h0.1l0.8,0l39.3,1.4l0.8,0h0.2l2.6,0.1c0.8,0,2,0.9,2.6,2c0.6,1.1,0.5,1.9-0.4,1.9l-2.6-0.1
			h-0.2l-0.8,0l-39.3-1.4l-0.8,0h-0.1l-7-0.2c-0.8,0-2-0.9-2.6-2S231.4,61,232.2,61.1z"/>
		<path class="st7" d="M283.7,70l-16.6-0.6l11,18.6l16.6,0.6l0.8,0l-11-18.6L283.7,70z"/>
		<path class="st7" d="M288.7,70.1l-4.3-0.2l11,18.6l4.3,0.2L288.7,70.1z"/>
		<path class="st7" d="M234.9,68.3l3.3,5.6l9.8,0.3l-3.3-5.6L234.9,68.3z"/>
		<path class="st7" d="M264.1,69.3l-19.6-0.7l-0.8,0l3.3,5.6l0.8,0l19.6,0.7L264.1,69.3L264.1,69.3z"/>
		<path class="st7" d="M325.6,101.6h-25.4v-0.5c0-0.6,0.5-1,1-1h23.4c0.5,0,1,0.4,1,1L325.6,101.6L325.6,101.6z"/>
		<path class="st6" d="M308.6,124.7h-65c-1.7,0-3.1-1.4-3.1-3.1v-11.4c0-1.7,1.4-3.1,3.1-3.1h65c1.7,0,3.1,1.4,3.1,3.1v11.4
			C311.8,123.3,310.4,124.7,308.6,124.7z"/>
		<path class="st6" d="M355,124.7h-37.9c-1.7,0-3.1-1.4-3.1-3.1v-11.4c0-1.7,1.4-3.1,3.1-3.1H355c1.7,0,3.1,1.4,3.1,3.1v11.4
			C358.2,123.3,356.8,124.7,355,124.7z"/>
		<path class="st12" d="M266.6,71.8C266.6,71.8,266.5,71.7,266.6,71.8l-0.3-0.5c0,0,0-0.1,0-0.1c0,0,0.1,0,0.1,0l0.2,0.4
			C266.7,71.6,266.7,71.7,266.6,71.8C266.6,71.7,266.6,71.7,266.6,71.8L266.6,71.8z"/>
		<path class="st12" d="M266,70.5C266,70.5,266,70.5,266,70.5l-0.4-0.9c0,0,0-0.1,0-0.1c0,0,0.1,0,0.1,0l0.4,0.8
			C266.1,70.4,266.1,70.5,266,70.5C266.1,70.5,266.1,70.5,266,70.5L266,70.5z M265.3,68.9C265.3,68.9,265.2,68.9,265.3,68.9
			l-0.4-0.9c0,0,0-0.1,0-0.1c0,0,0.1,0,0.1,0l0.4,0.8C265.4,68.8,265.4,68.9,265.3,68.9C265.3,68.9,265.3,68.9,265.3,68.9
			L265.3,68.9z M264.5,67.3C264.5,67.3,264.5,67.3,264.5,67.3l-0.4-0.9c0,0,0-0.1,0-0.1c0,0,0.1,0,0.1,0l0.4,0.8
			C264.6,67.2,264.6,67.3,264.5,67.3C264.6,67.3,264.6,67.3,264.5,67.3L264.5,67.3z M263.8,65.7C263.8,65.7,263.7,65.6,263.8,65.7
			l-0.4-0.9c0,0,0-0.1,0-0.1c0,0,0.1,0,0.1,0l0.4,0.8C263.9,65.5,263.9,65.6,263.8,65.7C263.8,65.7,263.8,65.7,263.8,65.7
			L263.8,65.7z M263,64C263,64,263,64,263,64l-0.4-0.9c0,0,0-0.1,0-0.1s0.1,0,0.1,0l0.4,0.8C263.1,63.9,263.1,64,263,64
			C263.1,64,263.1,64,263,64L263,64z M262.3,62.4C262.3,62.4,262.2,62.4,262.3,62.4l-0.4-0.9c0,0,0-0.1,0-0.1c0,0,0.1,0,0.1,0
			l0.4,0.8C262.4,62.3,262.4,62.4,262.3,62.4C262.3,62.4,262.3,62.4,262.3,62.4L262.3,62.4z M261.5,60.8
			C261.5,60.8,261.5,60.8,261.5,60.8l-0.4-0.9c0,0,0-0.1,0-0.1s0.1,0,0.1,0l0.4,0.8C261.6,60.7,261.6,60.8,261.5,60.8
			C261.6,60.8,261.6,60.8,261.5,60.8L261.5,60.8z M260.8,59.2C260.8,59.2,260.7,59.2,260.8,59.2l-0.4-0.9c0,0,0-0.1,0-0.1
			c0,0,0.1,0,0.1,0l0.4,0.8C260.9,59.1,260.9,59.2,260.8,59.2C260.8,59.2,260.8,59.2,260.8,59.2L260.8,59.2z M260,57.6
			C260,57.6,260,57.5,260,57.6l-0.4-0.9c0,0,0-0.1,0-0.1s0.1,0,0.1,0l0.4,0.8C260.1,57.4,260.1,57.5,260,57.6
			C260.1,57.6,260.1,57.6,260,57.6L260,57.6z M259.3,55.9C259.3,55.9,259.2,55.9,259.3,55.9l-0.4-0.9c0,0,0-0.1,0-0.1
			c0,0,0.1,0,0.1,0l0.4,0.8C259.4,55.8,259.4,55.9,259.3,55.9C259.3,55.9,259.3,55.9,259.3,55.9L259.3,55.9z M258.5,54.3
			C258.5,54.3,258.5,54.3,258.5,54.3l-0.4-0.9c0,0,0-0.1,0-0.1s0.1,0,0.1,0l0.4,0.8C258.6,54.2,258.6,54.3,258.5,54.3
			C258.6,54.3,258.6,54.3,258.5,54.3L258.5,54.3z M257.8,52.7C257.8,52.7,257.7,52.7,257.8,52.7l-0.4-0.9c0,0,0-0.1,0-0.1
			c0,0,0.1,0,0.1,0l0.4,0.8C257.9,52.6,257.9,52.7,257.8,52.7C257.8,52.7,257.8,52.7,257.8,52.7L257.8,52.7z M257,51.1
			C257,51.1,257,51.1,257,51.1l-0.4-0.9c0,0,0-0.1,0-0.1s0.1,0,0.1,0l0.4,0.8C257.1,51,257.1,51.1,257,51.1
			C257.1,51.1,257.1,51.1,257,51.1L257,51.1z M256.3,49.5C256.3,49.5,256.2,49.4,256.3,49.5l-0.2-0.4c-0.1-0.2-0.1-0.3-0.1-0.5
			c0,0,0-0.1,0.1-0.1c0,0,0.1,0,0.1,0.1c0,0.2,0,0.3,0.1,0.5l0.2,0.4C256.4,49.3,256.4,49.4,256.3,49.5
			C256.3,49.5,256.3,49.5,256.3,49.5z M256.3,47.8C256.3,47.8,256.3,47.8,256.3,47.8c-0.1,0-0.1-0.1-0.1-0.2
			c0.2-0.2,0.5-0.4,0.8-0.5c0,0,0.1,0,0.1,0.1c0,0,0,0.1-0.1,0.1C256.8,47.4,256.6,47.6,256.3,47.8
			C256.4,47.8,256.3,47.8,256.3,47.8z M283.9,47.4H283c0,0-0.1,0-0.1-0.1s0-0.1,0.1-0.1h0.9C283.9,47.2,284,47.2,283.9,47.4
			C284,47.3,283.9,47.4,283.9,47.4z M282.1,47.4h-0.9c0,0-0.1,0-0.1-0.1s0-0.1,0.1-0.1h0.9C282.1,47.2,282.2,47.2,282.1,47.4
			C282.2,47.3,282.1,47.4,282.1,47.4z M280.3,47.4h-0.9c0,0-0.1,0-0.1-0.1s0-0.1,0.1-0.1h0.9C280.3,47.2,280.4,47.2,280.3,47.4
			C280.4,47.3,280.3,47.4,280.3,47.4z M278.5,47.4h-0.9c0,0-0.1,0-0.1-0.1s0-0.1,0.1-0.1h0.9C278.5,47.2,278.6,47.2,278.5,47.4
			C278.6,47.3,278.6,47.4,278.5,47.4z M276.7,47.4h-0.9c0,0-0.1,0-0.1-0.1s0-0.1,0.1-0.1h0.9C276.8,47.2,276.8,47.2,276.7,47.4
			C276.8,47.3,276.8,47.4,276.7,47.4z M274.9,47.4H274c0,0-0.1,0-0.1-0.1s0-0.1,0.1-0.1h0.9C274.9,47.2,275,47.2,274.9,47.4
			C275,47.3,275,47.4,274.9,47.4z M273.1,47.4h-0.9c0,0-0.1,0-0.1-0.1s0-0.1,0.1-0.1h0.9C273.1,47.2,273.2,47.2,273.1,47.4
			C273.2,47.3,273.2,47.4,273.1,47.4z M271.3,47.4h-0.9c0,0-0.1,0-0.1-0.1s0-0.1,0.1-0.1h0.9C271.4,47.2,271.4,47.2,271.3,47.4
			C271.4,47.3,271.4,47.4,271.3,47.4z M269.6,47.4h-0.9c0,0-0.1,0-0.1-0.1s0-0.1,0.1-0.1h0.9C269.6,47.2,269.6,47.2,269.6,47.4
			C269.6,47.3,269.6,47.4,269.6,47.4z M267.8,47.4h-0.9c0,0-0.1,0-0.1-0.1s0-0.1,0.1-0.1h0.9C267.8,47.2,267.9,47.2,267.8,47.4
			C267.9,47.3,267.8,47.4,267.8,47.4z M266,47.4h-0.9c0,0-0.1,0-0.1-0.1s0-0.1,0.1-0.1h0.9C266,47.2,266.1,47.2,266,47.4
			C266.1,47.3,266,47.4,266,47.4z M264.2,47.4h-0.9c0,0-0.1,0-0.1-0.1s0-0.1,0.1-0.1h0.9C264.2,47.2,264.3,47.2,264.2,47.4
			C264.3,47.3,264.2,47.4,264.2,47.4z M262.4,47.4h-0.9c0,0-0.1,0-0.1-0.1s0-0.1,0.1-0.1h0.9C262.4,47.2,262.5,47.2,262.4,47.4
			C262.5,47.3,262.4,47.4,262.4,47.4z M260.6,47.4h-0.9c0,0-0.1,0-0.1-0.1s0-0.1,0.1-0.1h0.9C260.6,47.2,260.7,47.2,260.6,47.4
			C260.7,47.3,260.7,47.4,260.6,47.4z M258.8,47.4h-0.9c0,0-0.1,0-0.1-0.1s0-0.1,0.1-0.1h0.9C258.8,47.2,258.9,47.2,258.8,47.4
			C258.9,47.3,258.9,47.4,258.8,47.4z"/>
		<path class="st12" d="M285.3,47.3h-0.5c0,0-0.1,0-0.1-0.1s0-0.1,0.1-0.1h0.5C285.3,47.2,285.4,47.2,285.3,47.3
			C285.4,47.3,285.3,47.3,285.3,47.3z"/>
		<path class="st12" d="M268.7,73c0.2-0.6-0.3-1.3-1.1-1.6c-0.9-0.3-1.7-0.2-2,0.4c-0.2,0.6,0.3,1.3,1.1,1.6S268.5,73.5,268.7,73
			L268.7,73z"/>
		<path class="st12" d="M285.8,48.8c-0.9,0-1.6-0.7-1.7-1.5c0-0.4,0.1-0.8,0.4-1.1c0.3-0.3,0.7-0.5,1.2-0.5c0.9,0,1.6,0.7,1.7,1.5
			c0,0.4-0.1,0.8-0.4,1.1C286.7,48.6,286.2,48.8,285.8,48.8z M285.7,45.9c-0.4,0-0.8,0.2-1,0.4c-0.2,0.2-0.4,0.6-0.4,0.9
			c0,0.8,0.7,1.4,1.5,1.4c0.4,0,0.8-0.2,1-0.4c0.2-0.2,0.4-0.6,0.4-0.9C287.2,46.5,286.5,45.9,285.7,45.9z"/>
		<path class="st7" d="M285.8,48c0.4,0,0.7-0.3,0.7-0.7s-0.3-0.7-0.7-0.7s-0.7,0.3-0.7,0.7S285.4,48,285.8,48z"/>
		<path class="st7" d="M287.2,50.6h-8.7c-0.1,0-0.1-0.1-0.1-0.2s0.1-0.2,0.1-0.2h8.7c0.1,0,0.1,0.1,0.1,0.2S287.3,50.6,287.2,50.6z"
			/>
		<path class="st7" d="M287.2,51.5h-8.7c-0.1,0-0.1-0.1-0.1-0.2s0.1-0.2,0.1-0.2h8.7c0.1,0,0.1,0.1,0.1,0.2S287.3,51.5,287.2,51.5z"
			/>
		<path class="st10" d="M251.9,81.3l-3.3-5.6l-1.9,0l3.3,5.6L251.9,81.3z"/>
		<path class="st10" d="M251.9,81.3l4.7,0.2l-3.3-5.6l-4.7-0.2l-0.8,0l3.3,5.6L251.9,81.3L251.9,81.3z"/>
		<path class="st10" d="M250.6,82.3l3.3,5.6l1.5,0l-3.3-5.6L250.6,82.3z"/>
		<path class="st10" d="M271.6,82l-3.3-5.6l-6.6-0.2l3.3,5.6L271.6,82z"/>
		<path class="st10" d="M264.1,81.8l-3.3-5.6l-6.6-0.2l3.3,5.6L264.1,81.8z"/>
		<path class="st10" d="M245.8,75.6l-6.6-0.2l3.3,5.6l6.6,0.2L245.8,75.6z"/>
		<path class="st10" d="M272.2,83.1l-6.6-0.2l3.3,5.6l6.6,0.2L272.2,83.1z"/>
		<path class="st10" d="M258.1,82.6l3.3,5.6l6.6,0.2l-3.3-5.6L258.1,82.6z"/>
		<path class="st10" d="M252.6,82.4l-0.8,0l3.3,5.6l0.8,0l4.7,0.2l-3.3-5.6L252.6,82.4L252.6,82.4z"/>
		<path class="st10" d="M243.1,82.1l3.3,5.6l6.6,0.2l-3.3-5.6L243.1,82.1z"/>
		<path class="st15" d="M294.8,89.6l-0.6-1.1l-15.2-25.8l-1.2-2.1c-0.4-0.6-1-1.1-1.5-1.1l-37.6-1.3c-0.5,0-0.6,0.5-0.2,1.1l1.2,2.1
			l2.3,3.8l2,3.4l3.3,5.6l0.9,1.5l3.4,5.8l0.5,0.9l3.3,5.6l0.1,0.2c0.4,0.6,1,1.1,1.5,1.1l37.6,1.3
			C295.1,90.7,295.1,90.2,294.8,89.6z"/>
		<path d="M354,136.9H236c-1.4,0-2.5,1.1-2.5,2.5s1.1,2.5,2.5,2.5h118c1.4,0,2.5-1.1,2.5-2.5S355.4,136.9,354,136.9z"/>
		<path d="M326,153.9h-62c-1.4,0-2.5,1.1-2.5,2.5s1.1,2.5,2.5,2.5h62c1.4,0,2.5-1.1,2.5-2.5S327.4,153.9,326,153.9z"/>
		<path d="M341.6,170.9h-93.2c-0.8,0-1.4,0.6-1.4,1.4s0.6,1.4,1.4,1.4h93.2c0.8,0,1.4-0.6,1.4-1.4S342.4,170.9,341.6,170.9z"/>
		<path d="M291.6,196.7c0-6.1-4.9-10.9-11-10.9s-11,4.9-11,10.9s4.9,10.9,11,10.9S291.6,202.7,291.6,196.7z"/>
		<path d="M320.4,196.7c0-6.1-4.9-10.9-11-10.9s-11,4.9-11,10.9s4.9,10.9,11,10.9S320.4,202.7,320.4,196.7z"/>
	</g>
	<path class="st2" d="M48.3,32.7h-1v2.6h-1.8V28h2.9c0.9,0,1.5,0.2,2,0.6c0.5,0.4,0.7,0.9,0.7,1.6c0,0.5-0.1,0.9-0.3,1.3
		c-0.2,0.3-0.5,0.6-1,0.8l1.5,2.9v0.1h-1.9L48.3,32.7L48.3,32.7z M47.3,31.4h1.1c0.3,0,0.6-0.1,0.8-0.3c0.2-0.2,0.3-0.4,0.3-0.7
		s-0.1-0.6-0.3-0.7s-0.4-0.3-0.8-0.3h-1.1V31.4z M54.8,35.4c-0.8,0-1.5-0.2-2-0.7c-0.5-0.5-0.8-1.1-0.8-1.9v-0.1
		c0-0.5,0.1-1,0.3-1.5c0.2-0.4,0.5-0.8,0.9-1c0.4-0.2,0.9-0.4,1.4-0.4c0.8,0,1.4,0.2,1.8,0.7c0.4,0.5,0.7,1.1,0.7,2v0.7h-3.4
		c0.1,0.3,0.2,0.5,0.4,0.7c0.2,0.2,0.5,0.3,0.8,0.3c0.5,0,1-0.2,1.2-0.6l0.8,0.9c-0.2,0.3-0.5,0.5-0.9,0.7
		C55.7,35.3,55.2,35.4,54.8,35.4L54.8,35.4z M54.6,31.1c-0.5,0-0.8,0.3-0.9,1h1.7v-0.1c0-0.3-0.1-0.5-0.2-0.6
		C55.1,31.2,54.9,31.1,54.6,31.1L54.6,31.1z M60.6,33.8c0-0.1-0.1-0.3-0.2-0.3c-0.2-0.1-0.4-0.2-0.9-0.3c-0.4-0.1-0.8-0.2-1-0.4
		c-0.3-0.2-0.5-0.3-0.6-0.6c-0.1-0.2-0.2-0.5-0.2-0.8c0-0.5,0.2-0.9,0.6-1.2s1-0.5,1.6-0.5c0.7,0,1.3,0.2,1.7,0.5
		c0.4,0.3,0.7,0.8,0.7,1.3h-1.7c0-0.4-0.2-0.6-0.7-0.6c-0.2,0-0.3,0-0.5,0.1s-0.2,0.2-0.2,0.4s0.1,0.3,0.2,0.4
		c0.2,0.1,0.4,0.2,0.7,0.2s0.6,0.1,0.8,0.2c0.8,0.3,1.2,0.8,1.2,1.5c0,0.5-0.2,0.9-0.7,1.2c-0.4,0.3-1,0.5-1.7,0.5
		c-0.5,0-0.9-0.1-1.2-0.2s-0.7-0.4-0.8-0.7c-0.2-0.3-0.3-0.6-0.3-0.9H59c0,0.2,0.1,0.4,0.2,0.5c0.2,0.1,0.4,0.2,0.6,0.2
		c0.2,0,0.4,0,0.5-0.1S60.6,33.9,60.6,33.8L60.6,33.8z M68.1,32.6c0,0.8-0.2,1.5-0.6,2s-0.9,0.8-1.5,0.8c-0.5,0-0.9-0.2-1.2-0.5v2.5
		H63v-7.5h1.6l0.1,0.5c0.3-0.4,0.8-0.6,1.3-0.6c0.7,0,1.2,0.2,1.6,0.7C67.9,31,68.1,31.7,68.1,32.6L68.1,32.6L68.1,32.6z M66.4,32.5
		c0-1-0.3-1.4-0.8-1.4c-0.4,0-0.7,0.1-0.8,0.4v2.1c0.2,0.3,0.4,0.5,0.8,0.5c0.5,0,0.8-0.5,0.8-1.4V32.5L66.4,32.5z M68.6,32.5
		c0-0.5,0.1-1,0.3-1.4s0.5-0.8,0.9-1c0.4-0.2,0.9-0.3,1.4-0.3c0.8,0,1.4,0.2,1.9,0.8c0.5,0.5,0.7,1.2,0.7,2v0.1c0,0.8-0.2,1.5-0.7,2
		c-0.5,0.5-1.1,0.7-1.9,0.7s-1.4-0.2-1.9-0.7s-0.7-1.1-0.8-1.9C68.6,32.8,68.6,32.6,68.6,32.5z M70.3,32.7c0,0.5,0.1,0.9,0.2,1.1
		c0.2,0.2,0.4,0.3,0.7,0.3c0.6,0,0.9-0.5,0.9-1.4v-0.2c0-1-0.3-1.5-0.9-1.5c-0.6,0-0.9,0.4-0.9,1.3L70.3,32.7L70.3,32.7z M76.1,29.9
		l0.1,0.6c0.4-0.5,0.9-0.7,1.6-0.7c0.6,0,1,0.2,1.3,0.5c0.3,0.3,0.4,0.9,0.4,1.5v3.5h-1.7v-3.4c0-0.3-0.1-0.5-0.2-0.6
		c-0.1-0.1-0.3-0.2-0.6-0.2c-0.3,0-0.6,0.1-0.7,0.4v3.8h-1.7v-5.4L76.1,29.9L76.1,29.9z M83.2,33.8c0-0.1-0.1-0.3-0.2-0.3
		s-0.4-0.2-0.9-0.3s-0.8-0.2-1-0.4c-0.3-0.2-0.5-0.3-0.6-0.6c-0.1-0.2-0.2-0.5-0.2-0.8c0-0.5,0.2-0.9,0.6-1.2s0.9-0.5,1.6-0.5
		c0.7,0,1.3,0.2,1.7,0.5c0.4,0.3,0.7,0.8,0.7,1.3h-1.7c0-0.4-0.2-0.6-0.7-0.6c-0.2,0-0.3,0-0.4,0.1c-0.1,0.1-0.2,0.2-0.2,0.4
		s0.1,0.3,0.2,0.4c0.2,0.1,0.4,0.2,0.7,0.2s0.6,0.1,0.8,0.2c0.8,0.3,1.2,0.8,1.2,1.5c0,0.5-0.2,0.9-0.7,1.2c-0.4,0.3-1,0.5-1.7,0.5
		c-0.5,0-0.9-0.1-1.2-0.2s-0.7-0.4-0.8-0.7s-0.3-0.6-0.3-0.9h1.6c0,0.2,0.1,0.4,0.2,0.5c0.2,0.1,0.4,0.2,0.6,0.2
		c0.2,0,0.4,0,0.5-0.1C83.2,34.1,83.2,33.9,83.2,33.8L83.2,33.8z M87.4,35.3h-1.7v-5.4h1.7V35.3z M85.6,28.5c0-0.2,0.1-0.4,0.3-0.6
		c0.2-0.1,0.4-0.2,0.7-0.2s0.5,0.1,0.7,0.2c0.2,0.1,0.3,0.4,0.3,0.6s-0.1,0.4-0.3,0.6c-0.2,0.1-0.4,0.2-0.7,0.2s-0.5-0.1-0.7-0.2
		C85.7,28.9,85.6,28.7,85.6,28.5z M90.6,33.3l0.9-3.4h1.8l-1.8,5.4h-1.7L88,29.9h1.8L90.6,33.3L90.6,33.3z M96.3,35.4
		c-0.8,0-1.5-0.2-2-0.7c-0.5-0.5-0.8-1.1-0.8-1.9v-0.1c0-0.5,0.1-1,0.3-1.5c0.2-0.4,0.5-0.8,0.9-1c0.4-0.2,0.9-0.4,1.4-0.4
		c0.8,0,1.4,0.2,1.8,0.7c0.4,0.5,0.7,1.1,0.7,2v0.7h-3.4c0.1,0.3,0.2,0.5,0.4,0.7c0.2,0.2,0.5,0.3,0.8,0.3c0.5,0,0.9-0.2,1.2-0.6
		l0.8,0.9c-0.2,0.3-0.5,0.5-0.9,0.7C97.2,35.3,96.8,35.4,96.3,35.4L96.3,35.4z M96.1,31.1c-0.5,0-0.8,0.3-0.9,1H97v-0.1
		c0-0.3-0.1-0.5-0.2-0.6C96.6,31.2,96.4,31.1,96.1,31.1L96.1,31.1z M107.6,32.6l0.8-4.6h1.8l-1.6,7.3h-1.8l-1-4.2l-1,4.2H103
		l-1.6-7.3h1.8l0.8,4.6l1-4.6h1.5L107.6,32.6L107.6,32.6z M113.2,35.4c-0.8,0-1.5-0.2-2-0.7c-0.5-0.5-0.8-1.1-0.8-1.9v-0.1
		c0-0.5,0.1-1,0.3-1.5c0.2-0.4,0.5-0.8,0.9-1c0.4-0.2,0.9-0.4,1.4-0.4c0.8,0,1.4,0.2,1.8,0.7c0.4,0.5,0.7,1.1,0.7,2v0.7h-3.4
		c0.1,0.3,0.2,0.5,0.4,0.7c0.2,0.2,0.5,0.3,0.8,0.3c0.5,0,0.9-0.2,1.2-0.6l0.8,0.9c-0.2,0.3-0.5,0.5-0.9,0.7
		C114.1,35.3,113.7,35.4,113.2,35.4L113.2,35.4z M113.1,31.1c-0.5,0-0.8,0.3-0.9,1h1.7v-0.1c0-0.3-0.1-0.5-0.2-0.6
		C113.5,31.2,113.3,31.1,113.1,31.1L113.1,31.1z M121.3,32.6c0,0.9-0.2,1.6-0.6,2s-0.9,0.7-1.6,0.7c-0.6,0-1-0.2-1.3-0.7l-0.1,0.6
		h-1.5v-7.7h1.7v2.7c0.3-0.4,0.7-0.5,1.2-0.5c0.7,0,1.2,0.2,1.6,0.7C121.1,31,121.3,31.7,121.3,32.6L121.3,32.6L121.3,32.6z
		 M119.6,32.5c0-0.5-0.1-0.9-0.2-1.1c-0.1-0.2-0.3-0.3-0.6-0.3c-0.4,0-0.7,0.1-0.8,0.4v2.2c0.1,0.3,0.4,0.4,0.8,0.4s0.7-0.2,0.8-0.6
		C119.5,33.3,119.6,33,119.6,32.5L119.6,32.5z M124.6,35.3V28h2.3c0.7,0,1.2,0.1,1.7,0.4s0.9,0.7,1.2,1.2c0.3,0.5,0.4,1.1,0.4,1.8
		v0.3c0,0.7-0.1,1.3-0.4,1.8c-0.3,0.5-0.7,0.9-1.2,1.2c-0.5,0.3-1.1,0.5-1.7,0.5C127,35.3,124.6,35.3,124.6,35.3z M126.4,29.4V34
		h0.6c0.5,0,0.9-0.2,1.2-0.5c0.3-0.4,0.4-0.9,0.4-1.6v-0.3c0-0.7-0.1-1.2-0.4-1.6c-0.3-0.4-0.7-0.5-1.2-0.5H126.4z M133.8,35.4
		c-0.8,0-1.5-0.2-2-0.7c-0.5-0.5-0.8-1.1-0.8-1.9v-0.1c0-0.5,0.1-1,0.3-1.5c0.2-0.4,0.5-0.8,0.9-1s0.9-0.4,1.4-0.4
		c0.8,0,1.4,0.2,1.8,0.7c0.4,0.5,0.7,1.1,0.7,2v0.7h-3.4c0.1,0.3,0.2,0.5,0.4,0.7c0.2,0.2,0.5,0.3,0.8,0.3c0.5,0,0.9-0.2,1.2-0.6
		l0.8,0.9c-0.2,0.3-0.5,0.5-0.9,0.7C134.7,35.3,134.3,35.4,133.8,35.4L133.8,35.4z M133.6,31.1c-0.5,0-0.8,0.3-0.9,1h1.7v-0.1
		c0-0.3-0.1-0.5-0.2-0.6C134.1,31.2,133.9,31.1,133.6,31.1L133.6,31.1z M139.6,33.8c0-0.1-0.1-0.3-0.2-0.3s-0.4-0.2-0.9-0.3
		s-0.8-0.2-1-0.4c-0.3-0.2-0.5-0.3-0.6-0.6c-0.1-0.2-0.2-0.5-0.2-0.8c0-0.5,0.2-0.9,0.6-1.2c0.4-0.3,0.9-0.5,1.6-0.5
		c0.7,0,1.3,0.2,1.7,0.5c0.4,0.3,0.6,0.8,0.6,1.3h-1.7c0-0.4-0.2-0.6-0.7-0.6c-0.2,0-0.3,0-0.4,0.1s-0.2,0.2-0.2,0.4
		s0.1,0.3,0.2,0.4c0.1,0.1,0.4,0.2,0.7,0.2c0.3,0.1,0.6,0.1,0.9,0.2c0.8,0.3,1.2,0.8,1.2,1.5c0,0.5-0.2,0.9-0.7,1.2
		c-0.4,0.3-1,0.5-1.7,0.5c-0.5,0-0.9-0.1-1.2-0.2s-0.6-0.4-0.9-0.7c-0.2-0.3-0.3-0.6-0.3-0.9h1.6c0,0.2,0.1,0.4,0.2,0.5
		c0.2,0.1,0.4,0.2,0.6,0.2c0.2,0,0.4,0,0.5-0.1C139.6,34.1,139.6,33.9,139.6,33.8L139.6,33.8z M143.9,35.3h-1.7v-5.4h1.7V35.3z
		 M142.1,28.5c0-0.2,0.1-0.4,0.3-0.6s0.4-0.2,0.7-0.2s0.5,0.1,0.7,0.2c0.2,0.1,0.3,0.4,0.3,0.6s-0.1,0.4-0.3,0.6s-0.4,0.2-0.7,0.2
		s-0.5-0.1-0.7-0.2C142.2,28.9,142.1,28.7,142.1,28.5z M144.7,32.6c0-0.5,0.1-1,0.3-1.5c0.2-0.4,0.4-0.8,0.8-1
		c0.3-0.2,0.7-0.4,1.2-0.4c0.6,0,1,0.2,1.3,0.6l0.1-0.5h1.5v5.2c0,0.5-0.1,0.9-0.3,1.2c-0.2,0.3-0.5,0.6-1,0.8
		c-0.4,0.2-0.9,0.3-1.5,0.3c-0.4,0-0.8-0.1-1.2-0.2c-0.4-0.2-0.6-0.3-0.9-0.6l0.7-1c0.3,0.4,0.7,0.6,1.2,0.6c0.8,0,1.1-0.4,1.1-1.2
		v-0.2c-0.3,0.4-0.7,0.5-1.2,0.5c-0.7,0-1.2-0.2-1.6-0.8C144.9,34.1,144.7,33.5,144.7,32.6L144.7,32.6L144.7,32.6z M146.4,32.7
		c0,0.4,0.1,0.8,0.2,1.1c0.2,0.3,0.4,0.4,0.7,0.4c0.4,0,0.6-0.1,0.8-0.4v-2.3c-0.2-0.2-0.4-0.4-0.8-0.4c-0.3,0-0.5,0.1-0.7,0.4
		C146.5,31.8,146.4,32.2,146.4,32.7L146.4,32.7z M152.4,29.9l0.1,0.6c0.4-0.5,0.9-0.7,1.6-0.7c0.6,0,1,0.2,1.3,0.5
		c0.3,0.3,0.4,0.9,0.4,1.5v3.5H154v-3.4c0-0.3-0.1-0.5-0.2-0.6c-0.1-0.1-0.3-0.2-0.6-0.2c-0.3,0-0.6,0.1-0.7,0.4v3.8h-1.7v-5.4
		L152.4,29.9L152.4,29.9z"/>
	<path class="st2" d="M49.1,92.8h-2.4l-0.4,1.4h-1.9l2.7-7.3h1.7l2.7,7.3h-1.9C49.5,94.2,49.1,92.8,49.1,92.8z M47.1,91.5h1.6
		l-0.8-2.5L47.1,91.5z M53.7,91.7v2.5h-1.8v-7.3h2.9c0.6,0,1,0.1,1.5,0.3c0.4,0.2,0.8,0.5,1,0.9s0.4,0.8,0.4,1.3
		c0,0.7-0.3,1.3-0.8,1.7c-0.5,0.4-1.2,0.6-2.1,0.6L53.7,91.7L53.7,91.7z M53.7,90.3h1.2c0.3,0,0.6-0.1,0.8-0.3
		c0.2-0.2,0.3-0.4,0.3-0.7c0-0.3-0.1-0.6-0.3-0.8c-0.2-0.2-0.4-0.3-0.8-0.3h-1.2C53.7,88.2,53.7,90.3,53.7,90.3z M60.5,94.2h-1.8
		v-7.3h1.8V94.2z M64.5,92.7c0-0.1-0.1-0.3-0.2-0.3s-0.4-0.2-0.9-0.3c-0.4-0.1-0.8-0.2-1-0.4s-0.5-0.3-0.6-0.6
		c-0.1-0.2-0.2-0.5-0.2-0.8c0-0.5,0.2-0.9,0.6-1.2s1-0.5,1.6-0.5c0.7,0,1.3,0.2,1.7,0.5c0.4,0.3,0.7,0.8,0.7,1.3h-1.7
		c0-0.4-0.2-0.7-0.7-0.7c-0.2,0-0.3,0.1-0.5,0.2s-0.2,0.2-0.2,0.4s0.1,0.3,0.2,0.4c0.2,0.1,0.4,0.2,0.7,0.2c0.3,0.1,0.6,0.1,0.8,0.2
		c0.8,0.3,1.2,0.8,1.2,1.5c0,0.5-0.2,0.9-0.7,1.2s-1,0.5-1.7,0.5c-0.5,0-0.9-0.1-1.2-0.2s-0.7-0.4-0.8-0.7c-0.2-0.3-0.3-0.6-0.3-0.9
		h1.6c0,0.2,0.1,0.4,0.2,0.6c0.2,0.1,0.4,0.2,0.6,0.2c0.2,0,0.4-0.1,0.5-0.1C64.4,93,64.5,92.8,64.5,92.7L64.5,92.7z M71.8,93
		c0.2,0,0.4-0.1,0.6-0.2c0.1-0.1,0.2-0.3,0.2-0.5h1.6c0,0.6-0.2,1.1-0.6,1.5c-0.4,0.4-1,0.6-1.6,0.6c-0.8,0-1.4-0.2-1.9-0.7
		c-0.4-0.5-0.7-1.2-0.7-2.1v-0.1c0-0.6,0.1-1,0.3-1.4c0.2-0.4,0.5-0.7,0.9-1s0.8-0.3,1.3-0.3c0.7,0,1.3,0.2,1.7,0.6s0.6,0.9,0.6,1.6
		h-1.6c0-0.3-0.1-0.5-0.2-0.7S72,90,71.8,90c-0.4,0-0.7,0.3-0.8,0.8c0,0.2,0,0.4,0,0.7c0,0.5,0.1,0.9,0.2,1.1S71.5,93,71.8,93
		L71.8,93z M74.6,91.4c0-0.5,0.1-1,0.3-1.4c0.2-0.4,0.5-0.8,0.9-1c0.4-0.2,0.9-0.3,1.4-0.3c0.8,0,1.4,0.2,1.9,0.8
		c0.5,0.5,0.7,1.2,0.7,2.1v0.1c0,0.8-0.2,1.5-0.7,2c-0.5,0.5-1.1,0.7-1.9,0.7s-1.4-0.2-1.9-0.7s-0.7-1.1-0.8-1.9L74.6,91.4
		L74.6,91.4z M76.3,91.5c0,0.5,0.1,0.9,0.2,1.1c0.2,0.2,0.4,0.3,0.7,0.3c0.6,0,0.9-0.5,0.9-1.4v-0.2c0-1-0.3-1.5-0.9-1.5
		c-0.6,0-0.9,0.4-0.9,1.3L76.3,91.5L76.3,91.5z M82.1,88.8l0.1,0.6c0.4-0.5,0.9-0.7,1.6-0.7c0.6,0,1,0.2,1.3,0.5
		c0.3,0.3,0.4,0.8,0.4,1.5v3.5h-1.7v-3.4c0-0.3-0.1-0.5-0.2-0.6S83.3,90,83,90c-0.3,0-0.6,0.1-0.7,0.4v3.8h-1.7v-5.4L82.1,88.8
		L82.1,88.8z M89.2,92.7c0-0.1-0.1-0.3-0.2-0.3s-0.4-0.2-0.9-0.3s-0.8-0.2-1-0.4c-0.3-0.2-0.5-0.3-0.6-0.6c-0.1-0.2-0.2-0.5-0.2-0.8
		c0-0.5,0.2-0.9,0.6-1.2s0.9-0.5,1.6-0.5c0.7,0,1.3,0.2,1.7,0.5c0.4,0.3,0.7,0.8,0.7,1.3h-1.7c0-0.4-0.2-0.7-0.7-0.7
		c-0.2,0-0.3,0.1-0.4,0.2c-0.1,0.1-0.2,0.2-0.2,0.4s0.1,0.3,0.2,0.4c0.2,0.1,0.4,0.2,0.7,0.2c0.3,0.1,0.6,0.1,0.8,0.2
		c0.8,0.3,1.2,0.8,1.2,1.5c0,0.5-0.2,0.9-0.7,1.2s-1,0.5-1.7,0.5c-0.5,0-0.9-0.1-1.2-0.2s-0.7-0.4-0.8-0.7S86,92.8,86,92.5h1.6
		c0,0.2,0.1,0.4,0.2,0.6c0.2,0.1,0.4,0.2,0.6,0.2c0.2,0,0.4-0.1,0.5-0.1C89.1,93,89.2,92.8,89.2,92.7L89.2,92.7z M94.9,93.6
		c-0.4,0.5-0.8,0.7-1.4,0.7s-1.1-0.2-1.3-0.5c-0.3-0.3-0.5-0.8-0.5-1.5v-3.5h1.7v3.5c0,0.5,0.2,0.7,0.7,0.7c0.4,0,0.7-0.1,0.8-0.4
		v-3.8h1.7v5.4h-1.6L94.9,93.6L94.9,93.6z M99,88.8l0.1,0.6c0.4-0.5,0.9-0.7,1.6-0.7c0.7,0,1.2,0.3,1.4,0.8c0.4-0.6,0.9-0.8,1.6-0.8
		c1.1,0,1.7,0.7,1.7,2v3.5h-1.7v-3.4c0-0.3-0.1-0.5-0.1-0.6S103.2,90,103,90c-0.3,0-0.6,0.2-0.8,0.4v0.1v3.7h-1.7v-3.4
		c0-0.3,0-0.5-0.1-0.6c-0.1-0.1-0.3-0.2-0.5-0.2c-0.3,0-0.6,0.2-0.7,0.4v3.8h-1.7v-5.4L99,88.8L99,88.8z M111.3,91.5
		c0,0.8-0.2,1.5-0.6,2s-0.9,0.8-1.5,0.8c-0.5,0-0.9-0.2-1.2-0.6v2.5h-1.7v-7.5h1.6l0.1,0.5c0.3-0.4,0.8-0.6,1.3-0.6
		c0.7,0,1.2,0.2,1.6,0.7C111.1,89.9,111.3,90.6,111.3,91.5L111.3,91.5L111.3,91.5z M109.6,91.4c0-1-0.3-1.4-0.8-1.4
		c-0.4,0-0.7,0.1-0.8,0.4v2.1c0.2,0.3,0.4,0.4,0.8,0.4c0.5,0,0.8-0.5,0.8-1.4V91.4L109.6,91.4z M114,87.4v1.3h0.9v1.2H114v2.5
		c0,0.2,0,0.3,0.1,0.4s0.2,0.1,0.4,0.1c0.2,0,0.3,0,0.4,0v1.2c-0.3,0.1-0.6,0.1-0.9,0.1c-0.6,0-1-0.1-1.3-0.4
		c-0.3-0.3-0.4-0.7-0.4-1.2v-2.7h-0.7v-1.2h0.7v-1.3C112.3,87.4,114,87.4,114,87.4z M117.4,94.2h-1.7v-5.4h1.7V94.2z M115.6,87.4
		c0-0.2,0.1-0.4,0.3-0.6c0.2-0.2,0.4-0.2,0.7-0.2s0.5,0.1,0.7,0.2c0.2,0.2,0.3,0.3,0.3,0.6s-0.1,0.4-0.3,0.6
		c-0.2,0.2-0.4,0.2-0.7,0.2s-0.5-0.1-0.7-0.2C115.7,87.8,115.6,87.6,115.6,87.4z M118.2,91.4c0-0.5,0.1-1,0.3-1.4
		c0.2-0.4,0.5-0.8,0.9-1c0.4-0.2,0.9-0.3,1.4-0.3c0.8,0,1.4,0.2,1.9,0.8c0.5,0.5,0.7,1.2,0.7,2.1v0.1c0,0.8-0.2,1.5-0.7,2
		c-0.5,0.5-1.1,0.7-1.9,0.7s-1.4-0.2-1.9-0.7s-0.7-1.1-0.8-1.9L118.2,91.4L118.2,91.4z M119.9,91.5c0,0.5,0.1,0.9,0.2,1.1
		s0.4,0.3,0.7,0.3c0.6,0,0.9-0.5,0.9-1.4v-0.2c0-1-0.3-1.5-0.9-1.5c-0.6,0-0.9,0.4-0.9,1.3L119.9,91.5L119.9,91.5z M125.7,88.8
		l0.1,0.6c0.4-0.5,0.9-0.7,1.6-0.7c0.6,0,1,0.2,1.3,0.5c0.3,0.3,0.4,0.8,0.4,1.5v3.5h-1.7v-3.4c0-0.3-0.1-0.5-0.2-0.6
		s-0.3-0.2-0.6-0.2c-0.3,0-0.6,0.1-0.7,0.4v3.8h-1.7v-5.4L125.7,88.8L125.7,88.8z"/>
	<path class="st2" d="M50,168.5c0-0.3-0.1-0.5-0.3-0.6s-0.6-0.3-1.1-0.5c-0.5-0.2-0.9-0.3-1.2-0.5c-0.8-0.4-1.2-1.1-1.2-1.8
		c0-0.4,0.1-0.8,0.3-1.1c0.2-0.3,0.5-0.6,1-0.7c0.4-0.2,0.9-0.3,1.4-0.3s1,0.1,1.4,0.3c0.4,0.2,0.7,0.4,1,0.8
		c0.2,0.3,0.3,0.7,0.3,1.2H50c0-0.3-0.1-0.6-0.3-0.8s-0.5-0.3-0.9-0.3s-0.7,0.1-0.9,0.2c-0.2,0.1-0.3,0.4-0.3,0.6s0.1,0.4,0.4,0.6
		s0.6,0.3,1.1,0.4c0.9,0.3,1.5,0.6,1.9,1s0.6,0.9,0.6,1.4c0,0.6-0.2,1.1-0.7,1.5s-1.1,0.5-1.9,0.5c-0.6,0-1.1-0.1-1.5-0.3
		c-0.5-0.2-0.8-0.5-1.1-0.9c-0.2-0.4-0.4-0.8-0.4-1.2h1.5c0,0.8,0.5,1.2,1.4,1.2c0.4,0,0.6-0.1,0.8-0.2S50,168.8,50,168.5L50,168.5
		L50,168.5z M54.2,163.6v1.3h0.9v1.1h-0.9v2.7c0,0.2,0,0.4,0.1,0.4c0.1,0.1,0.2,0.1,0.4,0.1c0.2,0,0.3,0,0.4,0v1.1
		c-0.3,0.1-0.6,0.1-0.9,0.1c-1,0-1.5-0.5-1.5-1.5V166h-0.8V165h0.8v-1.3L54.2,163.6L54.2,163.6z M59,170.4c-0.1-0.1-0.1-0.3-0.2-0.5
		c-0.3,0.4-0.8,0.6-1.4,0.6c-0.5,0-1-0.1-1.3-0.5c-0.3-0.3-0.5-0.7-0.5-1.2c0-0.6,0.2-1,0.6-1.3c0.4-0.3,1-0.5,1.8-0.5h0.7v-0.3
		c0-0.2-0.1-0.4-0.2-0.6c-0.1-0.1-0.3-0.2-0.6-0.2c-0.2,0-0.4,0.1-0.6,0.2s-0.2,0.3-0.2,0.5h-1.5c0-0.3,0.1-0.6,0.3-0.9
		c0.2-0.3,0.5-0.5,0.8-0.6c0.3-0.1,0.8-0.2,1.2-0.2c0.7,0,1.2,0.2,1.6,0.5c0.4,0.3,0.6,0.8,0.6,1.4v2.4c0,0.5,0.1,0.9,0.2,1.2v0.1
		L59,170.4L59,170.4z M57.8,169.4c0.2,0,0.4-0.1,0.6-0.1c0.2-0.1,0.3-0.2,0.4-0.4v-0.9h-0.5c-0.7,0-1.1,0.2-1.2,0.8v0.1
		c0,0.2,0.1,0.3,0.2,0.4S57.6,169.4,57.8,169.4z M62.7,165l0,0.6c0.4-0.5,0.9-0.7,1.6-0.7c0.6,0,1,0.2,1.3,0.5s0.4,0.8,0.4,1.5v3.5
		h-1.4v-3.5c0-0.3-0.1-0.5-0.2-0.7S64,166,63.7,166c-0.4,0-0.7,0.2-0.9,0.5v3.8h-1.5V165C61.4,165,62.7,165,62.7,165z M66.9,167.6
		c0-0.9,0.2-1.5,0.6-2s0.9-0.8,1.6-0.8c0.5,0,1,0.2,1.3,0.6v-2.8h1.5v7.7h-1.3l-0.1-0.6c-0.4,0.4-0.8,0.7-1.4,0.7
		c-0.6,0-1.2-0.2-1.5-0.8C67.1,169.2,66.9,168.5,66.9,167.6L66.9,167.6L66.9,167.6z M68.4,167.7c0,0.5,0.1,0.9,0.3,1.2
		s0.4,0.4,0.8,0.4c0.4,0,0.8-0.2,0.9-0.6v-2.1c-0.2-0.4-0.5-0.6-0.9-0.6C68.7,166,68.4,166.6,68.4,167.7L68.4,167.7L68.4,167.7z
		 M76.1,170.4c-0.1-0.1-0.1-0.3-0.2-0.5c-0.3,0.4-0.8,0.6-1.4,0.6c-0.5,0-1-0.1-1.3-0.5c-0.3-0.3-0.5-0.7-0.5-1.2
		c0-0.6,0.2-1,0.6-1.3c0.4-0.3,1-0.5,1.8-0.5h0.7v-0.3c0-0.2-0.1-0.4-0.2-0.6c-0.1-0.1-0.3-0.2-0.6-0.2c-0.2,0-0.4,0.1-0.6,0.2
		s-0.2,0.3-0.2,0.5h-1.4c0-0.3,0.1-0.6,0.3-0.9c0.2-0.3,0.5-0.5,0.8-0.6c0.3-0.1,0.8-0.2,1.2-0.2c0.7,0,1.2,0.2,1.6,0.5
		c0.4,0.3,0.6,0.8,0.6,1.4v2.4c0,0.5,0.1,0.9,0.2,1.2v0.1L76.1,170.4L76.1,170.4z M74.9,169.4c0.2,0,0.4-0.1,0.6-0.1
		c0.2-0.1,0.3-0.2,0.4-0.4v-0.9h-0.5c-0.7,0-1.1,0.2-1.2,0.8v0.1c0,0.2,0.1,0.3,0.2,0.4S74.7,169.4,74.9,169.4z M80,170.4h-1.4v-7.7
		H80V170.4z M80.9,167.6c0-0.5,0.1-1,0.3-1.4s0.5-0.8,0.9-1c0.4-0.2,0.8-0.4,1.4-0.4c0.7,0,1.3,0.2,1.8,0.7s0.7,1.1,0.8,1.8v0.4
		c0,0.8-0.2,1.5-0.7,2c-0.5,0.5-1.1,0.8-1.9,0.8s-1.4-0.2-1.9-0.8C81.2,169.2,80.9,168.5,80.9,167.6L80.9,167.6L80.9,167.6z
		 M82.4,167.7c0,0.5,0.1,0.9,0.3,1.2c0.2,0.3,0.5,0.4,0.8,0.4s0.6-0.1,0.8-0.4c0.2-0.3,0.3-0.7,0.3-1.3c0-0.5-0.1-0.9-0.3-1.2
		c-0.2-0.3-0.5-0.4-0.8-0.4s-0.6,0.1-0.8,0.4C82.5,166.7,82.4,167.1,82.4,167.7L82.4,167.7L82.4,167.7z M88.3,164.9l0.1,0.6
		c0.4-0.5,0.9-0.7,1.6-0.7c0.6,0,1,0.2,1.3,0.5s0.4,0.8,0.4,1.5v3.5h-1.4v-3.5c0-0.3-0.1-0.5-0.2-0.7s-0.4-0.2-0.7-0.2
		c-0.4,0-0.7,0.2-0.9,0.5v3.8H87v-5.4H88.3L88.3,164.9z M95.2,170.5c-0.8,0-1.4-0.2-1.9-0.7c-0.5-0.5-0.8-1.1-0.8-1.9v-0.1
		c0-0.5,0.1-1,0.3-1.5c0.2-0.4,0.5-0.8,0.9-1c0.4-0.2,0.8-0.4,1.3-0.4c0.7,0,1.3,0.2,1.8,0.7c0.4,0.5,0.6,1.1,0.6,2v0.6H94
		c0.1,0.4,0.2,0.6,0.4,0.9c0.2,0.2,0.5,0.3,0.9,0.3c0.6,0,1-0.2,1.3-0.6l0.7,0.8c-0.2,0.3-0.5,0.6-0.9,0.7S95.7,170.5,95.2,170.5z
		 M95.1,166c-0.3,0-0.5,0.1-0.7,0.3c-0.2,0.2-0.3,0.5-0.3,0.8h2V167c0-0.3-0.1-0.6-0.3-0.7C95.6,166.1,95.4,166,95.1,166L95.1,166
		L95.1,166z M105.1,168.9h-2.6l-0.5,1.5h-1.6l2.7-7.3h1.4l2.7,7.3h-1.6L105.1,168.9C105.1,168.9,105.1,168.9,105.1,168.9z
		 M102.8,167.6h1.8l-0.9-2.7L102.8,167.6L102.8,167.6z M112.4,167.7c0,0.8-0.2,1.5-0.6,2s-0.9,0.8-1.5,0.8c-0.6,0-1-0.2-1.3-0.6v2.6
		h-1.4v-7.5h1.3l0.1,0.5c0.3-0.4,0.8-0.6,1.4-0.6c0.7,0,1.2,0.2,1.6,0.7S112.4,166.8,112.4,167.7L112.4,167.7L112.4,167.7
		L112.4,167.7z M111,167.6c0-0.5-0.1-0.9-0.3-1.2c-0.2-0.3-0.4-0.4-0.8-0.4c-0.4,0-0.8,0.2-0.9,0.5v2.2c0.2,0.4,0.5,0.5,0.9,0.5
		C110.6,169.3,111,168.7,111,167.6L111,167.6z M118.2,167.7c0,0.8-0.2,1.5-0.6,2s-0.9,0.8-1.5,0.8c-0.6,0-1-0.2-1.3-0.6v2.6h-1.4
		v-7.5h1.3l0.1,0.5c0.3-0.4,0.8-0.6,1.4-0.6c0.7,0,1.2,0.2,1.6,0.7S118.2,166.7,118.2,167.7L118.2,167.7L118.2,167.7L118.2,167.7z
		 M116.8,167.6c0-0.5-0.1-0.9-0.3-1.2c-0.2-0.3-0.4-0.4-0.8-0.4c-0.5,0-0.8,0.2-0.9,0.5v2.2c0.2,0.4,0.5,0.5,0.9,0.5
		C116.4,169.3,116.8,168.7,116.8,167.6L116.8,167.6z M122,168.8c0-0.2-0.1-0.3-0.3-0.4c-0.2-0.1-0.4-0.2-0.8-0.3
		c-1.3-0.3-1.9-0.8-1.9-1.6c0-0.5,0.2-0.9,0.6-1.2c0.4-0.3,0.9-0.5,1.6-0.5c0.7,0,1.2,0.2,1.7,0.5c0.4,0.3,0.6,0.7,0.6,1.3H122
		c0-0.2-0.1-0.4-0.2-0.5c-0.1-0.1-0.3-0.2-0.6-0.2c-0.2,0-0.4,0.1-0.6,0.2c-0.1,0.1-0.2,0.2-0.2,0.4c0,0.2,0.1,0.3,0.2,0.4
		s0.4,0.2,0.8,0.3c0.4,0.1,0.7,0.1,0.9,0.2c0.8,0.3,1.2,0.8,1.2,1.5c0,0.5-0.2,0.9-0.6,1.2c-0.4,0.3-1,0.5-1.6,0.5
		c-0.4,0-0.9-0.1-1.2-0.2s-0.6-0.4-0.8-0.7c-0.2-0.3-0.3-0.6-0.3-0.9h1.4c0,0.3,0.1,0.5,0.3,0.6c0.2,0.1,0.4,0.2,0.7,0.2
		c0.3,0,0.5-0.1,0.6-0.1C122,169.1,122,169,122,168.8L122,168.8L122,168.8z M131.7,168.4l0.7-3.4h1.4l-1.4,5.4h-1.2l-1-3.4l-1,3.4
		h-1.2l-1.4-5.4h1.4l0.7,3.4l1-3.4h1.1L131.7,168.4L131.7,168.4L131.7,168.4z M136,170.3h-1.4v-5.4h1.4V170.3z M134.5,163.5
		c0-0.2,0.1-0.4,0.2-0.5s0.4-0.2,0.6-0.2s0.4,0.1,0.6,0.2s0.2,0.3,0.2,0.5s-0.1,0.4-0.2,0.5s-0.3,0.2-0.6,0.2s-0.4-0.1-0.6-0.2
		S134.5,163.7,134.5,163.5L134.5,163.5z M139,163.6v1.3h0.9v1.1H139v2.7c0,0.2,0,0.4,0.1,0.4c0.1,0.1,0.2,0.1,0.4,0.1
		c0.2,0,0.3,0,0.4,0v1.1c-0.3,0.1-0.6,0.1-0.9,0.1c-1,0-1.5-0.5-1.6-1.5V166h-0.8v-1.1h0.8v-1.3L139,163.6L139,163.6z M142.1,165.5
		c0.4-0.5,0.9-0.7,1.4-0.7c1.2,0,1.8,0.7,1.8,2.1v3.5h-1.4v-3.4c0-0.3-0.1-0.5-0.2-0.7c-0.1-0.1-0.4-0.2-0.7-0.2
		c-0.4,0-0.7,0.2-0.9,0.5v3.9h-1.4v-7.7h1.4V165.5L142.1,165.5L142.1,165.5z M69.5,180.3c0.2,0,0.4-0.1,0.6-0.2
		c0.1-0.1,0.2-0.3,0.2-0.5h1.6c0,0.6-0.2,1.1-0.6,1.5c-0.4,0.4-1,0.6-1.6,0.6c-0.8,0-1.4-0.2-1.9-0.7c-0.4-0.5-0.7-1.2-0.7-2.1v-0.1
		c0-0.6,0.1-1,0.3-1.4c0.2-0.4,0.5-0.7,0.9-1s0.8-0.3,1.3-0.3c0.7,0,1.3,0.2,1.7,0.6s0.6,0.9,0.6,1.6h-1.6c0-0.3-0.1-0.5-0.2-0.6
		s-0.3-0.2-0.6-0.2c-0.4,0-0.7,0.3-0.8,0.8c0,0.2,0,0.4,0,0.7c0,0.5,0.1,0.9,0.2,1.1S69.2,180.3,69.5,180.3L69.5,180.3z M46.6,181.8
		v-7.3h2.2c0.6,0,1.2,0.1,1.7,0.4c0.5,0.3,0.9,0.7,1.2,1.2c0.3,0.5,0.4,1.1,0.4,1.8v0.3c0,0.7-0.1,1.3-0.4,1.8s-0.7,0.9-1.2,1.2
		c-0.5,0.3-1.1,0.4-1.7,0.4L46.6,181.8L46.6,181.8z M48.1,175.8v4.9h0.7c0.6,0,1-0.2,1.3-0.6c0.3-0.4,0.5-0.9,0.5-1.6V178
		c0-0.7-0.2-1.3-0.5-1.7s-0.8-0.6-1.3-0.6L48.1,175.8L48.1,175.8z M55.4,181.9c-0.8,0-1.4-0.2-2-0.7c-0.5-0.5-0.8-1.1-0.8-1.9V179
		c0-0.5,0.1-1,0.3-1.5c0.2-0.4,0.5-0.8,0.9-1c0.4-0.2,0.8-0.4,1.3-0.4c0.7,0,1.3,0.2,1.8,0.7c0.4,0.5,0.6,1.1,0.6,2v0.6h-3.5
		c0,0.4,0.2,0.6,0.4,0.9c0.2,0.2,0.5,0.3,0.9,0.3c0.6,0,1-0.2,1.3-0.6l0.7,0.8c-0.2,0.3-0.5,0.6-0.9,0.7S55.8,181.9,55.4,181.9z
		 M55.2,177.4c-0.3,0-0.5,0.1-0.7,0.3c-0.2,0.2-0.3,0.5-0.3,0.8h2v-0.1c0-0.3-0.1-0.6-0.3-0.7C55.8,177.5,55.6,177.4,55.2,177.4
		L55.2,177.4L55.2,177.4z M58.4,179c0-0.9,0.2-1.5,0.6-2s0.9-0.8,1.6-0.8c0.5,0,1,0.2,1.3,0.6v-2.8h1.5v7.7H62l-0.1-0.6
		c-0.4,0.4-0.8,0.7-1.4,0.7c-0.6,0-1.2-0.2-1.5-0.8C58.6,180.6,58.4,179.9,58.4,179L58.4,179L58.4,179z M59.9,179.1
		c0,0.5,0.1,0.9,0.3,1.2s0.4,0.4,0.8,0.4c0.5,0,0.8-0.2,1-0.6V178c-0.2-0.4-0.5-0.6-0.9-0.6C60.2,177.4,59.9,178,59.9,179.1
		L59.9,179.1L59.9,179.1z M66,181.7h-1.4v-5.4H66V181.7z M64.4,174.9c0-0.2,0.1-0.4,0.2-0.5c0.2-0.1,0.3-0.2,0.6-0.2
		s0.4,0.1,0.6,0.2s0.2,0.3,0.2,0.5s-0.1,0.4-0.2,0.5s-0.3,0.2-0.6,0.2s-0.4-0.1-0.6-0.2S64.4,175.1,64.4,174.9L64.4,174.9
		L64.4,174.9z M76.2,181.6c-0.1-0.1-0.1-0.3-0.2-0.5c-0.3,0.4-0.8,0.6-1.4,0.6c-0.5,0-1-0.1-1.3-0.5c-0.3-0.3-0.5-0.7-0.5-1.2
		c0-0.6,0.2-1,0.6-1.3c0.4-0.3,1-0.5,1.8-0.5H76V178c0-0.2-0.1-0.4-0.2-0.6c-0.1-0.1-0.3-0.2-0.6-0.2c-0.2,0-0.4,0.1-0.6,0.2
		s-0.2,0.3-0.2,0.5H73c0-0.3,0.1-0.6,0.3-0.9c0.2-0.3,0.5-0.5,0.8-0.6c0.3-0.1,0.8-0.2,1.2-0.2c0.7,0,1.2,0.2,1.6,0.5
		c0.4,0.3,0.6,0.8,0.6,1.4v2.4c0,0.5,0.1,0.9,0.2,1.2v0.1L76.2,181.6L76.2,181.6z M75,180.6c0.2,0,0.4-0.1,0.6-0.1
		c0.2-0.1,0.3-0.2,0.4-0.4v-0.9h-0.5c-0.7,0-1.1,0.2-1.2,0.8v0.1c0,0.2,0.1,0.3,0.2,0.4S74.8,180.6,75,180.6z M80.2,174.9v1.3h0.9
		v1.1h-0.9v2.7c0,0.2,0,0.4,0.1,0.4c0.1,0.1,0.2,0.1,0.4,0.1c0.2,0,0.3,0,0.4,0v1.1c-0.3,0.1-0.6,0.1-0.9,0.1c-1,0-1.5-0.5-1.6-1.5
		v-2.9H78v-1.1h0.8v-1.3L80.2,174.9L80.2,174.9z M84.2,181.7h-1.4v-5.4h1.4V181.7z M82.7,174.9c0-0.2,0.1-0.4,0.2-0.5
		c0.2-0.1,0.3-0.2,0.6-0.2s0.4,0.1,0.6,0.2s0.2,0.3,0.2,0.5s-0.1,0.4-0.2,0.5s-0.3,0.2-0.6,0.2s-0.4-0.1-0.6-0.2
		S82.7,175.1,82.7,174.9L82.7,174.9L82.7,174.9z M85.3,179c0-0.5,0.1-1,0.3-1.4s0.5-0.8,0.9-1c0.4-0.2,0.8-0.4,1.4-0.4
		c0.7,0,1.3,0.2,1.8,0.7s0.7,1.1,0.8,1.8v0.4c0,0.8-0.2,1.5-0.7,2c-0.5,0.5-1.1,0.8-1.9,0.8s-1.4-0.2-1.9-0.8
		C85.5,180.6,85.3,179.9,85.3,179L85.3,179L85.3,179z M86.7,179.1c0,0.5,0.1,0.9,0.3,1.2c0.2,0.3,0.5,0.4,0.8,0.4s0.6-0.1,0.8-0.4
		c0.2-0.3,0.3-0.7,0.3-1.3c0-0.5-0.1-0.9-0.3-1.2c-0.2-0.3-0.5-0.4-0.8-0.4s-0.6,0.1-0.8,0.4C86.8,178.1,86.7,178.5,86.7,179.1
		L86.7,179.1L86.7,179.1z M92.8,176.3l0.1,0.6c0.4-0.5,0.9-0.7,1.6-0.7c0.6,0,1,0.2,1.3,0.5s0.4,0.8,0.4,1.5v3.5h-1.4v-3.5
		c0-0.3-0.1-0.5-0.2-0.7s-0.4-0.2-0.7-0.2c-0.4,0-0.7,0.2-0.9,0.5v3.8h-1.4v-5.4H92.8L92.8,176.3z"/>
</g>
</svg>
