<svg width="40" height="40" viewBox="0 0 40 40" fill="none" xmlns="http://www.w3.org/2000/svg">
<path d="M35.0667 21.8833C35.3 21.8833 35.5167 21.9833 35.7 22.1667L37.8333 24.3C38.2 24.65 38.2 25.2333 37.8333 25.5833L36.1667 27.25L32.75 23.8333L34.4167 22.1667C34.6 21.9833 34.8333 21.8833 35.0667 21.8833ZM31.7833 24.8L35.2 28.2167L25.1 38.3333H21.6667V34.9L31.7833 24.8ZM5 11.6667V8.33334H8.33333V6.66668C8.33333 5.78262 8.68452 4.93478 9.30964 4.30965C9.93476 3.68453 10.7826 3.33334 11.6667 3.33334H21.6667V15L25.8333 12.5L30 15V3.33334H31.6667C33.4167 3.33334 35 4.91668 35 6.66668V16.6667L18.3333 33.3333V36.6667H11.6667C9.91667 36.6667 8.33333 35.0833 8.33333 33.3333V31.6667H5V28.3333H8.33333V21.6667H5V18.3333H8.33333V11.6667H5ZM8.33333 11.6667H11.6667V8.33334H8.33333V11.6667ZM8.33333 18.3333V21.6667H11.6667V18.3333H8.33333ZM8.33333 28.3333V31.6667H11.6667V28.3333H8.33333Z" fill="#E14658"/>
</svg>
